<?xml version="1.0" encoding="UTF-8" standalone="no"?><svg xmlns="http://www.w3.org/2000/svg" xmlns:xlink="http://www.w3.org/1999/xlink" clip-rule="evenodd" stroke-miterlimit="10" viewBox="0 0 1920 1080"><desc>SVG generated by Keynote</desc><defs></defs><g transform="matrix(1.00, 0.00, -0.00, -1.00, 0.0, 1080.0)"><g><clipPath id="clip0x7fad0fe92e00"><path d="M 0.0 1080.0 L 1920.0 1080.0 L 1920.0 0.0 L 0.0 0.0 Z M 0.0 1080.0 "></path></clipPath><g clip-path="url(#clip0x7fad0fe92e00)"><image xlink:href="../../6E59E501-5AC6-43A6-BE5B-2CF2B6D53CE4/assets/C8AF8D5373B240750928713C158CDCE7.png" width="1280.00" height="1024.00" transform="matrix(1.50, 0.00, -0.00, -1.05, 0.0, 1080.0)"></image></g></g><image xlink:href="../../6E59E501-5AC6-43A6-BE5B-2CF2B6D53CE4/assets/8A87A3B5F2651CC804842E862E028977.png" width="153.00" height="41.00" transform="matrix(0.95, 0.00, -0.00, -0.95, 1725.0, 1080.0)"></image><text xml:space="preserve" font-family="Helvetica,Helvetica" font-size="88.0" fill="#3E3E3E" transform="matrix(1.00, 0.00, -0.00, -1.00, 57.0, 951.2)">S</text><text xml:space="preserve" font-family="Helvetica,Helvetica" font-size="88.0" fill="#3E3E3E" transform="matrix(1.00, 0.00, -0.00, -1.00, 115.7, 951.2)">E</text><text xml:space="preserve" font-family="Helvetica,Helvetica" font-size="88.0" fill="#3E3E3E" transform="matrix(1.00, 0.00, -0.00, -1.00, 174.4, 951.2)">R</text><text xml:space="preserve" font-family="Helvetica,Helvetica" font-size="88.0" fill="#3E3E3E" transform="matrix(1.00, 0.00, -0.00, -1.00, 238.0, 951.2)">I</text><text xml:space="preserve" font-family="Helvetica,Helvetica" font-size="88.0" fill="#3E3E3E" transform="matrix(1.00, 0.00, -0.00, -1.00, 262.4, 951.2)">A</text><text xml:space="preserve" font-family="Helvetica,Helvetica" font-size="88.0" fill="#3E3E3E" transform="matrix(1.00, 0.00, -0.00, -1.00, 321.1, 951.2)">L</text><text xml:space="preserve" font-family="Helvetica,Helvetica" font-size="88.0" fill="#3E3E3E" transform="matrix(1.00, 0.00, -0.00, -1.00, 370.0, 951.2)">I</text><text xml:space="preserve" font-family="Helvetica,Helvetica" font-size="88.0" fill="#3E3E3E" transform="matrix(1.00, 0.00, -0.00, -1.00, 394.5, 951.2)">Z</text><text xml:space="preserve" font-family="Helvetica,Helvetica" font-size="88.0" fill="#3E3E3E" transform="matrix(1.00, 0.00, -0.00, -1.00, 448.2, 951.2)">E</text><text xml:space="preserve" font-family="Helvetica,Helvetica" font-size="88.0" fill="#3E3E3E" transform="matrix(1.00, 0.00, -0.00, -1.00, 506.9, 951.2)"> </text><text xml:space="preserve" font-family="Helvetica,Helvetica" font-size="88.0" fill="#3E3E3E" transform="matrix(1.00, 0.00, -0.00, -1.00, 531.3, 951.2)">D</text><text xml:space="preserve" font-family="Helvetica,Helvetica" font-size="88.0" fill="#3E3E3E" transform="matrix(1.00, 0.00, -0.00, -1.00, 594.9, 951.2)">A</text><text xml:space="preserve" font-family="Helvetica,Helvetica" font-size="88.0" fill="#3E3E3E" transform="matrix(1.00, 0.00, -0.00, -1.00, 647.1, 951.2)">T</text><text xml:space="preserve" font-family="Helvetica,Helvetica" font-size="88.0" fill="#3E3E3E" transform="matrix(1.00, 0.00, -0.00, -1.00, 694.4, 951.2)">A</text><path d="M 111.0 764.0 L 588.0 764.0 L 588.0 165.0 L 111.0 165.0 Z M 111.1 764.1 " fill="#7F8685"></path><g><clipPath id="clip0x7fad0fd2fc60"><path d="M 100.9 165.2 L 597.8 165.2 L 597.8 764.1 L 100.9 764.1 Z M 100.9 165.2 "></path></clipPath><g clip-path="url(#clip0x7fad0fd2fc60)"><text xml:space="preserve" font-family="GillSans-Light,Gill Sans" font-size="50.0" fill="#FEFFFF" transform="matrix(1.00, 0.00, -0.00, -1.00, 285.0, 476.1)">G</text><text xml:space="preserve" font-family="GillSans-Light,Gill Sans" font-size="50.0" fill="#FEFFFF" transform="matrix(1.00, 0.00, -0.00, -1.00, 321.0, 476.1)">e</text><text xml:space="preserve" font-family="GillSans-Light,Gill Sans" font-size="50.0" fill="#FEFFFF" transform="matrix(1.00, 0.00, -0.00, -1.00, 344.9, 476.1)">c</text><text xml:space="preserve" font-family="GillSans-Light,Gill Sans" font-size="50.0" fill="#FEFFFF" transform="matrix(1.00, 0.00, -0.00, -1.00, 365.8, 476.1)">k</text><text xml:space="preserve" font-family="GillSans-Light,Gill Sans" font-size="50.0" fill="#FEFFFF" transform="matrix(1.00, 0.00, -0.00, -1.00, 386.6, 476.1)">o</text><text xml:space="preserve" font-family="LucidaGrande,Lucida Grande" font-size="50.0" fill="#FEFFFF" transform="matrix(1.00, 0.00, -0.00, -1.00, 413.7, 476.1)"> </text><text xml:space="preserve" font-family="GillSans-Light,Gill Sans" font-size="50.0" fill="#FEFFFF" transform="matrix(1.00, 0.00, -0.00, -1.00, 299.4, 419.1)">C</text><text xml:space="preserve" font-family="GillSans-Light,Gill Sans" font-size="50.0" fill="#FEFFFF" transform="matrix(1.00, 0.00, -0.00, -1.00, 333.2, 419.1)">+</text><text xml:space="preserve" font-family="GillSans-Light,Gill Sans" font-size="50.0" fill="#FEFFFF" transform="matrix(1.00, 0.00, -0.00, -1.00, 366.2, 419.1)">+</text></g></g><path d="M 1334.0 764.0 L 1810.0 764.0 L 1810.0 165.0 L 1334.0 165.0 Z M 1333.6 764.1 " fill="#7F8685"></path><g><clipPath id="clip0x7fad0fd36610"><path d="M 1323.4 165.2 L 1820.3 165.2 L 1820.3 764.1 L 1323.4 764.1 Z M 1323.4 165.2 "></path></clipPath><g clip-path="url(#clip0x7fad0fd36610)"><text xml:space="preserve" font-family="GillSans-Light,Gill Sans" font-size="50.0" fill="#FEFFFF" transform="matrix(1.00, 0.00, -0.00, -1.00, 1389.2, 476.1)">L</text><text xml:space="preserve" font-family="GillSans-Light,Gill Sans" font-size="50.0" fill="#FEFFFF" transform="matrix(1.00, 0.00, -0.00, -1.00, 1412.6, 476.1)">a</text><text xml:space="preserve" font-family="GillSans-Light,Gill Sans" font-size="50.0" fill="#FEFFFF" transform="matrix(1.00, 0.00, -0.00, -1.00, 1433.2, 476.1)">y</text><text xml:space="preserve" font-family="GillSans-Light,Gill Sans" font-size="50.0" fill="#FEFFFF" transform="matrix(1.00, 0.00, -0.00, -1.00, 1453.0, 476.1)">e</text><text xml:space="preserve" font-family="GillSans-Light,Gill Sans" font-size="50.0" fill="#FEFFFF" transform="matrix(1.00, 0.00, -0.00, -1.00, 1477.0, 476.1)">r</text><text xml:space="preserve" font-family="GillSans-Light,Gill Sans" font-size="50.0" fill="#FEFFFF" transform="matrix(1.00, 0.00, -0.00, -1.00, 1495.6, 476.1)">s</text><text xml:space="preserve" font-family="GillSans-Light,Gill Sans" font-size="50.0" fill="#FEFFFF" transform="matrix(1.00, 0.00, -0.00, -1.00, 1513.3, 476.1)">c</text><text xml:space="preserve" font-family="GillSans-Light,Gill Sans" font-size="50.0" fill="#FEFFFF" transform="matrix(1.00, 0.00, -0.00, -1.00, 1534.2, 476.1)">o</text><text xml:space="preserve" font-family="GillSans-Light,Gill Sans" font-size="50.0" fill="#FEFFFF" transform="matrix(1.00, 0.00, -0.00, -1.00, 1561.3, 476.1)">p</text><text xml:space="preserve" font-family="GillSans-Light,Gill Sans" font-size="50.0" fill="#FEFFFF" transform="matrix(1.00, 0.00, -0.00, -1.00, 1586.8, 476.1)">e</text><text xml:space="preserve" font-family="GillSans-Light,Gill Sans" font-size="50.0" fill="#FEFFFF" transform="matrix(1.00, 0.00, -0.00, -1.00, 1610.7, 476.1)"> </text><text xml:space="preserve" font-family="GillSans-Light,Gill Sans" font-size="50.0" fill="#FEFFFF" transform="matrix(1.00, 0.00, -0.00, -1.00, 1624.6, 476.1)">v</text><text xml:space="preserve" font-family="GillSans-Light,Gill Sans" font-size="50.0" fill="#FEFFFF" transform="matrix(1.00, 0.00, -0.00, -1.00, 1645.9, 476.1)">i</text><text xml:space="preserve" font-family="GillSans-Light,Gill Sans" font-size="50.0" fill="#FEFFFF" transform="matrix(1.00, 0.00, -0.00, -1.00, 1655.3, 476.1)">e</text><text xml:space="preserve" font-family="GillSans-Light,Gill Sans" font-size="50.0" fill="#FEFFFF" transform="matrix(1.00, 0.00, -0.00, -1.00, 1679.3, 476.1)">w</text><text xml:space="preserve" font-family="GillSans-Light,Gill Sans" font-size="50.0" fill="#FEFFFF" transform="matrix(1.00, 0.00, -0.00, -1.00, 1713.9, 476.1)">e</text><text xml:space="preserve" font-family="GillSans-Light,Gill Sans" font-size="50.0" fill="#FEFFFF" transform="matrix(1.00, 0.00, -0.00, -1.00, 1737.9, 476.1)">r</text><text xml:space="preserve" font-family="LucidaGrande,Lucida Grande" font-size="50.0" fill="#FEFFFF" transform="matrix(1.00, 0.00, -0.00, -1.00, 1754.6, 476.1)"> </text><text xml:space="preserve" font-family="GillSans-Light,Gill Sans" font-size="50.0" fill="#FEFFFF" transform="matrix(1.00, 0.00, -0.00, -1.00, 1482.1, 419.1)">J</text><text xml:space="preserve" font-family="GillSans-Light,Gill Sans" font-size="50.0" fill="#FEFFFF" transform="matrix(1.00, 0.00, -0.00, -1.00, 1492.5, 419.1)">a</text><text xml:space="preserve" font-family="GillSans-Light,Gill Sans" font-size="50.0" fill="#FEFFFF" transform="matrix(1.00, 0.00, -0.00, -1.00, 1512.5, 419.1)">v</text><text xml:space="preserve" font-family="GillSans-Light,Gill Sans" font-size="50.0" fill="#FEFFFF" transform="matrix(1.00, 0.00, -0.00, -1.00, 1533.9, 419.1)">a</text><text xml:space="preserve" font-family="GillSans-Light,Gill Sans" font-size="50.0" fill="#FEFFFF" transform="matrix(1.00, 0.00, -0.00, -1.00, 1555.2, 419.1)">s</text><text xml:space="preserve" font-family="GillSans-Light,Gill Sans" font-size="50.0" fill="#FEFFFF" transform="matrix(1.00, 0.00, -0.00, -1.00, 1572.9, 419.1)">c</text><text xml:space="preserve" font-family="GillSans-Light,Gill Sans" font-size="50.0" fill="#FEFFFF" transform="matrix(1.00, 0.00, -0.00, -1.00, 1593.8, 419.1)">r</text><text xml:space="preserve" font-family="GillSans-Light,Gill Sans" font-size="50.0" fill="#FEFFFF" transform="matrix(1.00, 0.00, -0.00, -1.00, 1611.6, 419.1)">i</text><text xml:space="preserve" font-family="GillSans-Light,Gill Sans" font-size="50.0" fill="#FEFFFF" transform="matrix(1.00, 0.00, -0.00, -1.00, 1621.0, 419.1)">p</text><text xml:space="preserve" font-family="GillSans-Light,Gill Sans" font-size="50.0" fill="#FEFFFF" transform="matrix(1.00, 0.00, -0.00, -1.00, 1646.5, 419.1)">t</text></g></g><text xml:space="preserve" font-family="Helvetica,Helvetica" font-size="58.0" fill="#525252" transform="matrix(1.00, 0.00, -0.00, -1.00, 115.3, 792.6)">W</text><text xml:space="preserve" font-family="Helvetica,Helvetica" font-size="58.0" fill="#525252" transform="matrix(1.00, 0.00, -0.00, -1.00, 168.6, 792.6)">S</text><text xml:space="preserve" font-family="Helvetica,Helvetica" font-size="58.0" fill="#525252" transform="matrix(1.00, 0.00, -0.00, -1.00, 205.8, 792.6)"> </text><text xml:space="preserve" font-family="Helvetica,Helvetica" font-size="58.0" fill="#525252" transform="matrix(1.00, 0.00, -0.00, -1.00, 220.5, 792.6)">S</text><text xml:space="preserve" font-family="Helvetica,Helvetica" font-size="58.0" fill="#525252" transform="matrix(1.00, 0.00, -0.00, -1.00, 257.7, 792.6)">e</text><text xml:space="preserve" font-family="Helvetica,Helvetica" font-size="58.0" fill="#525252" transform="matrix(1.00, 0.00, -0.00, -1.00, 288.5, 792.6)">r</text><text xml:space="preserve" font-family="Helvetica,Helvetica" font-size="58.0" fill="#525252" transform="matrix(1.00, 0.00, -0.00, -1.00, 306.4, 792.6)">v</text><text xml:space="preserve" font-family="Helvetica,Helvetica" font-size="58.0" fill="#525252" transform="matrix(1.00, 0.00, -0.00, -1.00, 333.9, 792.6)">e</text><text xml:space="preserve" font-family="Helvetica,Helvetica" font-size="58.0" fill="#525252" transform="matrix(1.00, 0.00, -0.00, -1.00, 364.7, 792.6)">r</text><text xml:space="preserve" font-family="Helvetica,Helvetica" font-size="58.0" fill="#525252" transform="matrix(1.00, 0.00, -0.00, -1.00, 1349.1, 792.6)">W</text><text xml:space="preserve" font-family="Helvetica,Helvetica" font-size="58.0" fill="#525252" transform="matrix(1.00, 0.00, -0.00, -1.00, 1402.4, 792.6)">S</text><text xml:space="preserve" font-family="Helvetica,Helvetica" font-size="58.0" fill="#525252" transform="matrix(1.00, 0.00, -0.00, -1.00, 1439.6, 792.6)"> </text><text xml:space="preserve" font-family="Helvetica,Helvetica" font-size="58.0" fill="#525252" transform="matrix(1.00, 0.00, -0.00, -1.00, 1454.3, 792.6)">C</text><text xml:space="preserve" font-family="Helvetica,Helvetica" font-size="58.0" fill="#525252" transform="matrix(1.00, 0.00, -0.00, -1.00, 1494.7, 792.6)">l</text><text xml:space="preserve" font-family="Helvetica,Helvetica" font-size="58.0" fill="#525252" transform="matrix(1.00, 0.00, -0.00, -1.00, 1506.1, 792.6)">i</text><text xml:space="preserve" font-family="Helvetica,Helvetica" font-size="58.0" fill="#525252" transform="matrix(1.00, 0.00, -0.00, -1.00, 1517.5, 792.6)">e</text><text xml:space="preserve" font-family="Helvetica,Helvetica" font-size="58.0" fill="#525252" transform="matrix(1.00, 0.00, -0.00, -1.00, 1548.3, 792.6)">n</text><text xml:space="preserve" font-family="Helvetica,Helvetica" font-size="58.0" fill="#525252" transform="matrix(1.00, 0.00, -0.00, -1.00, 1579.1, 792.6)">t</text><path d="M 50.2 134.0 L 50.2 177.7 L 0.0 88.9 L 50.2 0.0 L 50.2 44.0 L 690.2 44.0 L 690.2 0.0 L 740.5 88.9 L 690.2 177.7 L 690.2 134.0 Z M 50.7 133.9 " fill="none" stroke="#85878C" stroke-width="2.00" transform="matrix(1.00, 0.00, 0.00, -1.00, 589.8, 715.0)"></path><text xml:space="preserve" font-family="GillSans-Light,Gill Sans" font-size="24.0" fill="#525252" transform="matrix(1.00, 0.00, -0.00, -1.00, 948.5, 24.7)">1</text><text xml:space="preserve" font-family="GillSans-Light,Gill Sans" font-size="24.0" fill="#525252" transform="matrix(1.00, 0.00, -0.00, -1.00, 960.5, 24.7)">2</text></g></svg>