<?xml version="1.0" encoding="UTF-8" standalone="no"?><svg xmlns="http://www.w3.org/2000/svg" xmlns:xlink="http://www.w3.org/1999/xlink" clip-rule="evenodd" stroke-miterlimit="10" viewBox="0 0 1920 1080"><desc>SVG generated by Keynote</desc><defs></defs><g transform="matrix(1.00, 0.00, -0.00, -1.00, 0.0, 1080.0)"><g><clipPath id="clip0x7fad107d5b40"><path d="M 0.0 1080.0 L 1920.0 1080.0 L 1920.0 0.0 L 0.0 0.0 Z M 0.0 1080.0 "></path></clipPath><g clip-path="url(#clip0x7fad107d5b40)"><image xlink:href="../../6E59E501-5AC6-43A6-BE5B-2CF2B6D53CE4/assets/C8AF8D5373B240750928713C158CDCE7.png" width="1280.00" height="1024.00" transform="matrix(1.50, 0.00, -0.00, -1.05, 0.0, 1080.0)"></image></g></g><image xlink:href="../../6E59E501-5AC6-43A6-BE5B-2CF2B6D53CE4/assets/8A87A3B5F2651CC804842E862E028977.png" width="153.00" height="41.00" transform="matrix(0.95, 0.00, -0.00, -0.95, 1725.0, 1080.0)"></image><text xml:space="preserve" font-family="Helvetica,Helvetica" font-size="88.0" fill="#3E3E3E" transform="matrix(1.00, 0.00, -0.00, -1.00, 57.0, 951.2)">C</text><text xml:space="preserve" font-family="Helvetica,Helvetica" font-size="88.0" fill="#3E3E3E" transform="matrix(1.00, 0.00, -0.00, -1.00, 120.6, 951.2)">O</text><text xml:space="preserve" font-family="Helvetica,Helvetica" font-size="88.0" fill="#3E3E3E" transform="matrix(1.00, 0.00, -0.00, -1.00, 189.0, 951.2)">N</text><text xml:space="preserve" font-family="Helvetica,Helvetica" font-size="88.0" fill="#3E3E3E" transform="matrix(1.00, 0.00, -0.00, -1.00, 252.6, 951.2)">T</text><text xml:space="preserve" font-family="Helvetica,Helvetica" font-size="88.0" fill="#3E3E3E" transform="matrix(1.00, 0.00, -0.00, -1.00, 306.3, 951.2)">R</text><text xml:space="preserve" font-family="Helvetica,Helvetica" font-size="88.0" fill="#3E3E3E" transform="matrix(1.00, 0.00, -0.00, -1.00, 369.9, 951.2)">I</text><text xml:space="preserve" font-family="Helvetica,Helvetica" font-size="88.0" fill="#3E3E3E" transform="matrix(1.00, 0.00, -0.00, -1.00, 394.3, 951.2)">B</text><text xml:space="preserve" font-family="Helvetica,Helvetica" font-size="88.0" fill="#3E3E3E" transform="matrix(1.00, 0.00, -0.00, -1.00, 453.0, 951.2)">U</text><text xml:space="preserve" font-family="Helvetica,Helvetica" font-size="88.0" fill="#3E3E3E" transform="matrix(1.00, 0.00, -0.00, -1.00, 516.6, 951.2)">T</text><text xml:space="preserve" font-family="Helvetica,Helvetica" font-size="88.0" fill="#3E3E3E" transform="matrix(1.00, 0.00, -0.00, -1.00, 568.8, 951.2)">O</text><text xml:space="preserve" font-family="Helvetica,Helvetica" font-size="88.0" fill="#3E3E3E" transform="matrix(1.00, 0.00, -0.00, -1.00, 637.2, 951.2)">R</text><text xml:space="preserve" font-family="Helvetica,Helvetica" font-size="88.0" fill="#3E3E3E" transform="matrix(1.00, 0.00, -0.00, -1.00, 700.8, 951.2)">S</text><text xml:space="preserve" font-family="Helvetica,Helvetica" font-size="42.6" fill="#525252" transform="matrix(1.00, 0.00, -0.00, -1.00, 57.0, 822.8)">•</text><text xml:space="preserve" font-family="Helvetica,Helvetica" font-size="52.0" fill="#3E3E3E" transform="matrix(1.00, 0.00, -0.00, -1.00, 81.0, 820.0)">G</text><text xml:space="preserve" font-family="Helvetica,Helvetica" font-size="52.0" fill="#3E3E3E" transform="matrix(1.00, 0.00, -0.00, -1.00, 121.4, 820.0)">i</text><text xml:space="preserve" font-family="Helvetica,Helvetica" font-size="52.0" fill="#3E3E3E" transform="matrix(1.00, 0.00, -0.00, -1.00, 133.0, 820.0)">t</text><text xml:space="preserve" font-family="Helvetica,Helvetica" font-size="52.0" fill="#3E3E3E" transform="matrix(1.00, 0.00, -0.00, -1.00, 147.4, 820.0)">h</text><text xml:space="preserve" font-family="Helvetica,Helvetica" font-size="52.0" fill="#3E3E3E" transform="matrix(1.00, 0.00, -0.00, -1.00, 176.3, 820.0)">u</text><text xml:space="preserve" font-family="Helvetica,Helvetica" font-size="52.0" fill="#3E3E3E" transform="matrix(1.00, 0.00, -0.00, -1.00, 205.2, 820.0)">b</text><text xml:space="preserve" font-family="Helvetica,Helvetica" font-size="52.0" fill="#3E3E3E" transform="matrix(1.00, 0.00, -0.00, -1.00, 234.1, 820.0)">:</text><text xml:space="preserve" font-family="Helvetica,Helvetica" font-size="52.0" fill="#3E3E3E" transform="matrix(1.00, 0.00, -0.00, -1.00, 248.6, 820.0)"> </text><text xml:space="preserve" font-family="Helvetica,Helvetica" font-size="52.0" fill="#3E3E3E" transform="matrix(1.00, 0.00, -0.00, -1.00, 263.1, 820.0)">h</text><text xml:space="preserve" font-family="Helvetica,Helvetica" font-size="52.0" fill="#3E3E3E" transform="matrix(1.00, 0.00, -0.00, -1.00, 292.0, 820.0)">t</text><text xml:space="preserve" font-family="Helvetica,Helvetica" font-size="52.0" fill="#3E3E3E" transform="matrix(1.00, 0.00, -0.00, -1.00, 306.5, 820.0)">t</text><text xml:space="preserve" font-family="Helvetica,Helvetica" font-size="52.0" fill="#3E3E3E" transform="matrix(1.00, 0.00, -0.00, -1.00, 320.9, 820.0)">p</text><text xml:space="preserve" font-family="Helvetica,Helvetica" font-size="52.0" fill="#3E3E3E" transform="matrix(1.00, 0.00, -0.00, -1.00, 349.8, 820.0)">s</text><text xml:space="preserve" font-family="Helvetica,Helvetica" font-size="52.0" fill="#3E3E3E" transform="matrix(1.00, 0.00, -0.00, -1.00, 375.8, 820.0)">:</text><text xml:space="preserve" font-family="Helvetica,Helvetica" font-size="52.0" fill="#3E3E3E" transform="matrix(1.00, 0.00, -0.00, -1.00, 390.3, 820.0)">/</text><text xml:space="preserve" font-family="Helvetica,Helvetica" font-size="52.0" fill="#3E3E3E" transform="matrix(1.00, 0.00, -0.00, -1.00, 404.7, 820.0)">/</text><text xml:space="preserve" font-family="Helvetica,Helvetica" font-size="52.0" fill="#3E3E3E" transform="matrix(1.00, 0.00, -0.00, -1.00, 419.1, 820.0)">g</text><text xml:space="preserve" font-family="Helvetica,Helvetica" font-size="52.0" fill="#3E3E3E" transform="matrix(1.00, 0.00, -0.00, -1.00, 448.1, 820.0)">i</text><text xml:space="preserve" font-family="Helvetica,Helvetica" font-size="52.0" fill="#3E3E3E" transform="matrix(1.00, 0.00, -0.00, -1.00, 459.6, 820.0)">t</text><text xml:space="preserve" font-family="Helvetica,Helvetica" font-size="52.0" fill="#3E3E3E" transform="matrix(1.00, 0.00, -0.00, -1.00, 474.1, 820.0)">h</text><text xml:space="preserve" font-family="Helvetica,Helvetica" font-size="52.0" fill="#3E3E3E" transform="matrix(1.00, 0.00, -0.00, -1.00, 503.0, 820.0)">u</text><text xml:space="preserve" font-family="Helvetica,Helvetica" font-size="52.0" fill="#3E3E3E" transform="matrix(1.00, 0.00, -0.00, -1.00, 531.9, 820.0)">b</text><text xml:space="preserve" font-family="Helvetica,Helvetica" font-size="52.0" fill="#3E3E3E" transform="matrix(1.00, 0.00, -0.00, -1.00, 560.9, 820.0)">.</text><text xml:space="preserve" font-family="Helvetica,Helvetica" font-size="52.0" fill="#3E3E3E" transform="matrix(1.00, 0.00, -0.00, -1.00, 575.3, 820.0)">c</text><text xml:space="preserve" font-family="Helvetica,Helvetica" font-size="52.0" fill="#3E3E3E" transform="matrix(1.00, 0.00, -0.00, -1.00, 601.3, 820.0)">o</text><text xml:space="preserve" font-family="Helvetica,Helvetica" font-size="52.0" fill="#3E3E3E" transform="matrix(1.00, 0.00, -0.00, -1.00, 630.2, 820.0)">m</text><text xml:space="preserve" font-family="Helvetica,Helvetica" font-size="52.0" fill="#3E3E3E" transform="matrix(1.00, 0.00, -0.00, -1.00, 673.6, 820.0)">/</text><text xml:space="preserve" font-family="Helvetica,Helvetica" font-size="52.0" fill="#3E3E3E" transform="matrix(1.00, 0.00, -0.00, -1.00, 688.0, 820.0)">m</text><text xml:space="preserve" font-family="Helvetica,Helvetica" font-size="52.0" fill="#3E3E3E" transform="matrix(1.00, 0.00, -0.00, -1.00, 731.3, 820.0)">o</text><text xml:space="preserve" font-family="Helvetica,Helvetica" font-size="52.0" fill="#3E3E3E" transform="matrix(1.00, 0.00, -0.00, -1.00, 760.2, 820.0)">z</text><text xml:space="preserve" font-family="Helvetica,Helvetica" font-size="52.0" fill="#3E3E3E" transform="matrix(1.00, 0.00, -0.00, -1.00, 786.2, 820.0)">i</text><text xml:space="preserve" font-family="Helvetica,Helvetica" font-size="52.0" fill="#3E3E3E" transform="matrix(1.00, 0.00, -0.00, -1.00, 797.8, 820.0)">l</text><text xml:space="preserve" font-family="Helvetica,Helvetica" font-size="52.0" fill="#3E3E3E" transform="matrix(1.00, 0.00, -0.00, -1.00, 809.4, 820.0)">l</text><text xml:space="preserve" font-family="Helvetica,Helvetica" font-size="52.0" fill="#3E3E3E" transform="matrix(1.00, 0.00, -0.00, -1.00, 820.9, 820.0)">a</text><text xml:space="preserve" font-family="Helvetica,Helvetica" font-size="52.0" fill="#3E3E3E" transform="matrix(1.00, 0.00, -0.00, -1.00, 849.9, 820.0)">/</text><text xml:space="preserve" font-family="Helvetica,Helvetica" font-size="52.0" fill="#3E3E3E" transform="matrix(1.00, 0.00, -0.00, -1.00, 864.3, 820.0)">l</text><text xml:space="preserve" font-family="Helvetica,Helvetica" font-size="52.0" fill="#3E3E3E" transform="matrix(1.00, 0.00, -0.00, -1.00, 875.9, 820.0)">a</text><text xml:space="preserve" font-family="Helvetica,Helvetica" font-size="52.0" fill="#3E3E3E" transform="matrix(1.00, 0.00, -0.00, -1.00, 904.8, 820.0)">y</text><text xml:space="preserve" font-family="Helvetica,Helvetica" font-size="52.0" fill="#3E3E3E" transform="matrix(1.00, 0.00, -0.00, -1.00, 930.8, 820.0)">e</text><text xml:space="preserve" font-family="Helvetica,Helvetica" font-size="52.0" fill="#3E3E3E" transform="matrix(1.00, 0.00, -0.00, -1.00, 959.7, 820.0)">r</text><text xml:space="preserve" font-family="Helvetica,Helvetica" font-size="52.0" fill="#3E3E3E" transform="matrix(1.00, 0.00, -0.00, -1.00, 977.0, 820.0)">s</text><text xml:space="preserve" font-family="Helvetica,Helvetica" font-size="52.0" fill="#3E3E3E" transform="matrix(1.00, 0.00, -0.00, -1.00, 1003.0, 820.0)">c</text><text xml:space="preserve" font-family="Helvetica,Helvetica" font-size="52.0" fill="#3E3E3E" transform="matrix(1.00, 0.00, -0.00, -1.00, 1029.0, 820.0)">o</text><text xml:space="preserve" font-family="Helvetica,Helvetica" font-size="52.0" fill="#3E3E3E" transform="matrix(1.00, 0.00, -0.00, -1.00, 1058.0, 820.0)">p</text><text xml:space="preserve" font-family="Helvetica,Helvetica" font-size="52.0" fill="#3E3E3E" transform="matrix(1.00, 0.00, -0.00, -1.00, 1086.9, 820.0)">e</text><g><clipPath id="clip0x7fad11118b10"><path d="M 262.1 813.7 L 1115.7 813.7 L 1115.7 818.3 L 262.1 818.3 Z M 262.1 813.7 "></path></clipPath><g clip-path="url(#clip0x7fad11118b10)"><path d="M 210.1 58.0 L 1062.7 58.0 " fill="none" stroke="#3E3E3E" stroke-width="2.56" transform="matrix(1.00, 0.00, 0.00, -1.00, 53.0, 874.0)"></path></g></g><text xml:space="preserve" font-family="Helvetica,Helvetica" font-size="42.6" fill="#525252" transform="matrix(1.00, 0.00, -0.00, -1.00, 57.0, 706.8)">•</text><text xml:space="preserve" font-family="Helvetica,Helvetica" font-size="52.0" fill="#3E3E3E" transform="matrix(1.00, 0.00, -0.00, -1.00, 81.0, 704.0)">C</text><text xml:space="preserve" font-family="Helvetica,Helvetica" font-size="52.0" fill="#3E3E3E" transform="matrix(1.00, 0.00, -0.00, -1.00, 118.6, 704.0)">o</text><text xml:space="preserve" font-family="Helvetica,Helvetica" font-size="52.0" fill="#3E3E3E" transform="matrix(1.00, 0.00, -0.00, -1.00, 147.5, 704.0)">n</text><text xml:space="preserve" font-family="Helvetica,Helvetica" font-size="52.0" fill="#3E3E3E" transform="matrix(1.00, 0.00, -0.00, -1.00, 176.4, 704.0)">t</text><text xml:space="preserve" font-family="Helvetica,Helvetica" font-size="52.0" fill="#3E3E3E" transform="matrix(1.00, 0.00, -0.00, -1.00, 190.9, 704.0)">r</text><text xml:space="preserve" font-family="Helvetica,Helvetica" font-size="52.0" fill="#3E3E3E" transform="matrix(1.00, 0.00, -0.00, -1.00, 208.2, 704.0)">i</text><text xml:space="preserve" font-family="Helvetica,Helvetica" font-size="52.0" fill="#3E3E3E" transform="matrix(1.00, 0.00, -0.00, -1.00, 219.7, 704.0)">b</text><text xml:space="preserve" font-family="Helvetica,Helvetica" font-size="52.0" fill="#3E3E3E" transform="matrix(1.00, 0.00, -0.00, -1.00, 248.7, 704.0)">u</text><text xml:space="preserve" font-family="Helvetica,Helvetica" font-size="52.0" fill="#3E3E3E" transform="matrix(1.00, 0.00, -0.00, -1.00, 277.6, 704.0)">t</text><text xml:space="preserve" font-family="Helvetica,Helvetica" font-size="52.0" fill="#3E3E3E" transform="matrix(1.00, 0.00, -0.00, -1.00, 292.0, 704.0)">o</text><text xml:space="preserve" font-family="Helvetica,Helvetica" font-size="52.0" fill="#3E3E3E" transform="matrix(1.00, 0.00, -0.00, -1.00, 321.0, 704.0)">r</text><text xml:space="preserve" font-family="Helvetica,Helvetica" font-size="52.0" fill="#3E3E3E" transform="matrix(1.00, 0.00, -0.00, -1.00, 338.3, 704.0)">s</text><text xml:space="preserve" font-family="Helvetica,Helvetica" font-size="52.0" fill="#3E3E3E" transform="matrix(1.00, 0.00, -0.00, -1.00, 364.3, 704.0)">:</text><text xml:space="preserve" font-family="Helvetica,Helvetica" font-size="42.6" fill="#525252" transform="matrix(1.00, 0.00, -0.00, -1.00, 87.0, 590.8)">•</text><text xml:space="preserve" font-family="Helvetica,Helvetica" font-size="52.0" fill="#3E3E3E" transform="matrix(1.00, 0.00, -0.00, -1.00, 111.0, 588.0)">C</text><text xml:space="preserve" font-family="Helvetica,Helvetica" font-size="52.0" fill="#3E3E3E" transform="matrix(1.00, 0.00, -0.00, -1.00, 148.6, 588.0)">J</text><text xml:space="preserve" font-family="Helvetica,Helvetica" font-size="42.6" fill="#525252" transform="matrix(1.00, 0.00, -0.00, -1.00, 87.0, 474.8)">•</text><text xml:space="preserve" font-family="Helvetica,Helvetica" font-size="52.0" fill="#3E3E3E" transform="matrix(1.00, 0.00, -0.00, -1.00, 111.0, 472.0)">M</text><text xml:space="preserve" font-family="Helvetica,Helvetica" font-size="52.0" fill="#3E3E3E" transform="matrix(1.00, 0.00, -0.00, -1.00, 154.3, 472.0)">o</text><text xml:space="preserve" font-family="Helvetica,Helvetica" font-size="52.0" fill="#3E3E3E" transform="matrix(1.00, 0.00, -0.00, -1.00, 183.2, 472.0)">r</text><text xml:space="preserve" font-family="Helvetica,Helvetica" font-size="52.0" fill="#3E3E3E" transform="matrix(1.00, 0.00, -0.00, -1.00, 200.6, 472.0)">r</text><text xml:space="preserve" font-family="Helvetica,Helvetica" font-size="52.0" fill="#3E3E3E" transform="matrix(1.00, 0.00, -0.00, -1.00, 217.9, 472.0)">i</text><text xml:space="preserve" font-family="Helvetica,Helvetica" font-size="52.0" fill="#3E3E3E" transform="matrix(1.00, 0.00, -0.00, -1.00, 229.4, 472.0)">s</text><text xml:space="preserve" font-family="Helvetica,Helvetica" font-size="42.6" fill="#525252" transform="matrix(1.00, 0.00, -0.00, -1.00, 87.0, 358.8)">•</text><text xml:space="preserve" font-family="Helvetica,Helvetica" font-size="52.0" fill="#3E3E3E" transform="matrix(1.00, 0.00, -0.00, -1.00, 111.0, 356.0)">V</text><text xml:space="preserve" font-family="Helvetica,Helvetica" font-size="52.0" fill="#3E3E3E" transform="matrix(1.00, 0.00, -0.00, -1.00, 145.7, 356.0)">l</text><text xml:space="preserve" font-family="Helvetica,Helvetica" font-size="52.0" fill="#3E3E3E" transform="matrix(1.00, 0.00, -0.00, -1.00, 157.2, 356.0)">a</text><text xml:space="preserve" font-family="Helvetica,Helvetica" font-size="52.0" fill="#3E3E3E" transform="matrix(1.00, 0.00, -0.00, -1.00, 186.2, 356.0)">d</text><text xml:space="preserve" font-family="Helvetica,Helvetica" font-size="42.6" fill="#525252" transform="matrix(1.00, 0.00, -0.00, -1.00, 87.0, 242.8)">•</text><text xml:space="preserve" font-family="Helvetica,Helvetica" font-size="52.0" fill="#3E3E3E" transform="matrix(1.00, 0.00, -0.00, -1.00, 111.0, 240.0)">B</text><text xml:space="preserve" font-family="Helvetica,Helvetica" font-size="52.0" fill="#3E3E3E" transform="matrix(1.00, 0.00, -0.00, -1.00, 145.7, 240.0)">o</text><text xml:space="preserve" font-family="Helvetica,Helvetica" font-size="52.0" fill="#3E3E3E" transform="matrix(1.00, 0.00, -0.00, -1.00, 174.6, 240.0)">r</text><text xml:space="preserve" font-family="Helvetica,Helvetica" font-size="52.0" fill="#3E3E3E" transform="matrix(1.00, 0.00, -0.00, -1.00, 191.9, 240.0)">i</text><text xml:space="preserve" font-family="Helvetica,Helvetica" font-size="52.0" fill="#3E3E3E" transform="matrix(1.00, 0.00, -0.00, -1.00, 203.5, 240.0)">s</text><text xml:space="preserve" font-family="Helvetica,Helvetica" font-size="42.6" fill="#525252" transform="matrix(1.00, 0.00, -0.00, -1.00, 57.0, 126.8)">•</text><text xml:space="preserve" font-family="Helvetica,Helvetica" font-size="52.0" fill="#3E3E3E" transform="matrix(1.00, 0.00, -0.00, -1.00, 81.0, 124.0)"> </text><text xml:space="preserve" font-family="Helvetica,Helvetica" font-size="52.0" fill="#3E3E3E" transform="matrix(1.00, 0.00, -0.00, -1.00, 95.4, 124.0)">R</text><text xml:space="preserve" font-family="Helvetica,Helvetica" font-size="52.0" fill="#3E3E3E" transform="matrix(1.00, 0.00, -0.00, -1.00, 133.0, 124.0)">e</text><text xml:space="preserve" font-family="Helvetica,Helvetica" font-size="52.0" fill="#3E3E3E" transform="matrix(1.00, 0.00, -0.00, -1.00, 161.9, 124.0)">f</text><text xml:space="preserve" font-family="Helvetica,Helvetica" font-size="52.0" fill="#3E3E3E" transform="matrix(1.00, 0.00, -0.00, -1.00, 176.4, 124.0)">e</text><text xml:space="preserve" font-family="Helvetica,Helvetica" font-size="52.0" fill="#3E3E3E" transform="matrix(1.00, 0.00, -0.00, -1.00, 205.3, 124.0)">r</text><text xml:space="preserve" font-family="Helvetica,Helvetica" font-size="52.0" fill="#3E3E3E" transform="matrix(1.00, 0.00, -0.00, -1.00, 222.6, 124.0)">e</text><text xml:space="preserve" font-family="Helvetica,Helvetica" font-size="52.0" fill="#3E3E3E" transform="matrix(1.00, 0.00, -0.00, -1.00, 251.5, 124.0)">n</text><text xml:space="preserve" font-family="Helvetica,Helvetica" font-size="52.0" fill="#3E3E3E" transform="matrix(1.00, 0.00, -0.00, -1.00, 280.5, 124.0)">c</text><text xml:space="preserve" font-family="Helvetica,Helvetica" font-size="52.0" fill="#3E3E3E" transform="matrix(1.00, 0.00, -0.00, -1.00, 306.5, 124.0)">e</text><text xml:space="preserve" font-family="Helvetica,Helvetica" font-size="52.0" fill="#3E3E3E" transform="matrix(1.00, 0.00, -0.00, -1.00, 335.4, 124.0)">:</text><text xml:space="preserve" font-family="Helvetica,Helvetica" font-size="52.0" fill="#3E3E3E" transform="matrix(1.00, 0.00, -0.00, -1.00, 349.8, 124.0)"> </text><text xml:space="preserve" font-family="Helvetica,Helvetica" font-size="52.0" fill="#3E3E3E" transform="matrix(1.00, 0.00, -0.00, -1.00, 364.3, 124.0)">h</text><text xml:space="preserve" font-family="Helvetica,Helvetica" font-size="52.0" fill="#3E3E3E" transform="matrix(1.00, 0.00, -0.00, -1.00, 393.2, 124.0)">t</text><text xml:space="preserve" font-family="Helvetica,Helvetica" font-size="52.0" fill="#3E3E3E" transform="matrix(1.00, 0.00, -0.00, -1.00, 407.6, 124.0)">t</text><text xml:space="preserve" font-family="Helvetica,Helvetica" font-size="52.0" fill="#3E3E3E" transform="matrix(1.00, 0.00, -0.00, -1.00, 422.1, 124.0)">p</text><text xml:space="preserve" font-family="Helvetica,Helvetica" font-size="52.0" fill="#3E3E3E" transform="matrix(1.00, 0.00, -0.00, -1.00, 451.0, 124.0)">s</text><text xml:space="preserve" font-family="Helvetica,Helvetica" font-size="52.0" fill="#3E3E3E" transform="matrix(1.00, 0.00, -0.00, -1.00, 477.0, 124.0)">:</text><text xml:space="preserve" font-family="Helvetica,Helvetica" font-size="52.0" fill="#3E3E3E" transform="matrix(1.00, 0.00, -0.00, -1.00, 491.4, 124.0)">/</text><text xml:space="preserve" font-family="Helvetica,Helvetica" font-size="52.0" fill="#3E3E3E" transform="matrix(1.00, 0.00, -0.00, -1.00, 505.9, 124.0)">/</text><text xml:space="preserve" font-family="Helvetica,Helvetica" font-size="52.0" fill="#3E3E3E" transform="matrix(1.00, 0.00, -0.00, -1.00, 520.3, 124.0)">w</text><text xml:space="preserve" font-family="Helvetica,Helvetica" font-size="52.0" fill="#3E3E3E" transform="matrix(1.00, 0.00, -0.00, -1.00, 557.9, 124.0)">i</text><text xml:space="preserve" font-family="Helvetica,Helvetica" font-size="52.0" fill="#3E3E3E" transform="matrix(1.00, 0.00, -0.00, -1.00, 569.4, 124.0)">k</text><text xml:space="preserve" font-family="Helvetica,Helvetica" font-size="52.0" fill="#3E3E3E" transform="matrix(1.00, 0.00, -0.00, -1.00, 595.4, 124.0)">i</text><text xml:space="preserve" font-family="Helvetica,Helvetica" font-size="52.0" fill="#3E3E3E" transform="matrix(1.00, 0.00, -0.00, -1.00, 607.0, 124.0)">.</text><text xml:space="preserve" font-family="Helvetica,Helvetica" font-size="52.0" fill="#3E3E3E" transform="matrix(1.00, 0.00, -0.00, -1.00, 621.4, 124.0)">m</text><text xml:space="preserve" font-family="Helvetica,Helvetica" font-size="52.0" fill="#3E3E3E" transform="matrix(1.00, 0.00, -0.00, -1.00, 664.7, 124.0)">o</text><text xml:space="preserve" font-family="Helvetica,Helvetica" font-size="52.0" fill="#3E3E3E" transform="matrix(1.00, 0.00, -0.00, -1.00, 693.7, 124.0)">z</text><text xml:space="preserve" font-family="Helvetica,Helvetica" font-size="52.0" fill="#3E3E3E" transform="matrix(1.00, 0.00, -0.00, -1.00, 719.7, 124.0)">i</text><text xml:space="preserve" font-family="Helvetica,Helvetica" font-size="52.0" fill="#3E3E3E" transform="matrix(1.00, 0.00, -0.00, -1.00, 731.2, 124.0)">l</text><text xml:space="preserve" font-family="Helvetica,Helvetica" font-size="52.0" fill="#3E3E3E" transform="matrix(1.00, 0.00, -0.00, -1.00, 742.8, 124.0)">l</text><text xml:space="preserve" font-family="Helvetica,Helvetica" font-size="52.0" fill="#3E3E3E" transform="matrix(1.00, 0.00, -0.00, -1.00, 754.4, 124.0)">a</text><text xml:space="preserve" font-family="Helvetica,Helvetica" font-size="52.0" fill="#3E3E3E" transform="matrix(1.00, 0.00, -0.00, -1.00, 783.3, 124.0)">.</text><text xml:space="preserve" font-family="Helvetica,Helvetica" font-size="52.0" fill="#3E3E3E" transform="matrix(1.00, 0.00, -0.00, -1.00, 797.7, 124.0)">o</text><text xml:space="preserve" font-family="Helvetica,Helvetica" font-size="52.0" fill="#3E3E3E" transform="matrix(1.00, 0.00, -0.00, -1.00, 826.7, 124.0)">r</text><text xml:space="preserve" font-family="Helvetica,Helvetica" font-size="52.0" fill="#3E3E3E" transform="matrix(1.00, 0.00, -0.00, -1.00, 844.0, 124.0)">g</text><text xml:space="preserve" font-family="Helvetica,Helvetica" font-size="52.0" fill="#3E3E3E" transform="matrix(1.00, 0.00, -0.00, -1.00, 872.9, 124.0)">/</text><text xml:space="preserve" font-family="Helvetica,Helvetica" font-size="52.0" fill="#3E3E3E" transform="matrix(1.00, 0.00, -0.00, -1.00, 887.3, 124.0)">P</text><text xml:space="preserve" font-family="Helvetica,Helvetica" font-size="52.0" fill="#3E3E3E" transform="matrix(1.00, 0.00, -0.00, -1.00, 922.0, 124.0)">l</text><text xml:space="preserve" font-family="Helvetica,Helvetica" font-size="52.0" fill="#3E3E3E" transform="matrix(1.00, 0.00, -0.00, -1.00, 933.6, 124.0)">a</text><text xml:space="preserve" font-family="Helvetica,Helvetica" font-size="52.0" fill="#3E3E3E" transform="matrix(1.00, 0.00, -0.00, -1.00, 962.5, 124.0)">t</text><text xml:space="preserve" font-family="Helvetica,Helvetica" font-size="52.0" fill="#3E3E3E" transform="matrix(1.00, 0.00, -0.00, -1.00, 977.0, 124.0)">f</text><text xml:space="preserve" font-family="Helvetica,Helvetica" font-size="52.0" fill="#3E3E3E" transform="matrix(1.00, 0.00, -0.00, -1.00, 991.4, 124.0)">o</text><text xml:space="preserve" font-family="Helvetica,Helvetica" font-size="52.0" fill="#3E3E3E" transform="matrix(1.00, 0.00, -0.00, -1.00, 1020.3, 124.0)">r</text><text xml:space="preserve" font-family="Helvetica,Helvetica" font-size="52.0" fill="#3E3E3E" transform="matrix(1.00, 0.00, -0.00, -1.00, 1037.6, 124.0)">m</text><text xml:space="preserve" font-family="Helvetica,Helvetica" font-size="52.0" fill="#3E3E3E" transform="matrix(1.00, 0.00, -0.00, -1.00, 1081.0, 124.0)">/</text><text xml:space="preserve" font-family="Helvetica,Helvetica" font-size="52.0" fill="#3E3E3E" transform="matrix(1.00, 0.00, -0.00, -1.00, 1095.4, 124.0)">G</text><text xml:space="preserve" font-family="Helvetica,Helvetica" font-size="52.0" fill="#3E3E3E" transform="matrix(1.00, 0.00, -0.00, -1.00, 1135.8, 124.0)">F</text><text xml:space="preserve" font-family="Helvetica,Helvetica" font-size="52.0" fill="#3E3E3E" transform="matrix(1.00, 0.00, -0.00, -1.00, 1167.6, 124.0)">X</text><text xml:space="preserve" font-family="Helvetica,Helvetica" font-size="52.0" fill="#3E3E3E" transform="matrix(1.00, 0.00, -0.00, -1.00, 1202.3, 124.0)">/</text><text xml:space="preserve" font-family="Helvetica,Helvetica" font-size="52.0" fill="#3E3E3E" transform="matrix(1.00, 0.00, -0.00, -1.00, 1216.7, 124.0)">L</text><text xml:space="preserve" font-family="Helvetica,Helvetica" font-size="52.0" fill="#3E3E3E" transform="matrix(1.00, 0.00, -0.00, -1.00, 1245.6, 124.0)">a</text><text xml:space="preserve" font-family="Helvetica,Helvetica" font-size="52.0" fill="#3E3E3E" transform="matrix(1.00, 0.00, -0.00, -1.00, 1274.6, 124.0)">y</text><text xml:space="preserve" font-family="Helvetica,Helvetica" font-size="52.0" fill="#3E3E3E" transform="matrix(1.00, 0.00, -0.00, -1.00, 1300.6, 124.0)">e</text><text xml:space="preserve" font-family="Helvetica,Helvetica" font-size="52.0" fill="#3E3E3E" transform="matrix(1.00, 0.00, -0.00, -1.00, 1329.5, 124.0)">r</text><text xml:space="preserve" font-family="Helvetica,Helvetica" font-size="52.0" fill="#3E3E3E" transform="matrix(1.00, 0.00, -0.00, -1.00, 1346.8, 124.0)">S</text><text xml:space="preserve" font-family="Helvetica,Helvetica" font-size="52.0" fill="#3E3E3E" transform="matrix(1.00, 0.00, -0.00, -1.00, 1381.5, 124.0)">c</text><text xml:space="preserve" font-family="Helvetica,Helvetica" font-size="52.0" fill="#3E3E3E" transform="matrix(1.00, 0.00, -0.00, -1.00, 1407.5, 124.0)">o</text><text xml:space="preserve" font-family="Helvetica,Helvetica" font-size="52.0" fill="#3E3E3E" transform="matrix(1.00, 0.00, -0.00, -1.00, 1436.4, 124.0)">p</text><text xml:space="preserve" font-family="Helvetica,Helvetica" font-size="52.0" fill="#3E3E3E" transform="matrix(1.00, 0.00, -0.00, -1.00, 1465.4, 124.0)">e</text><g><clipPath id="clip0x7fad1113ece0"><path d="M 363.3 117.7 L 1494.2 117.7 L 1494.2 122.3 L 363.3 122.3 Z M 363.3 117.7 "></path></clipPath><g clip-path="url(#clip0x7fad1113ece0)"><path d="M 311.3 754.0 L 1441.2 754.0 " fill="none" stroke="#3E3E3E" stroke-width="2.56" transform="matrix(1.00, 0.00, 0.00, -1.00, 53.0, 874.0)"></path></g></g><text xml:space="preserve" font-family="GillSans-Light,Gill Sans" font-size="24.0" fill="#525252" transform="matrix(1.00, 0.00, -0.00, -1.00, 948.5, 24.7)">1</text><text xml:space="preserve" font-family="GillSans-Light,Gill Sans" font-size="24.0" fill="#525252" transform="matrix(1.00, 0.00, -0.00, -1.00, 960.5, 24.7)">7</text></g></svg>