<?xml version="1.0" encoding="UTF-8" standalone="no"?><svg xmlns="http://www.w3.org/2000/svg" xmlns:xlink="http://www.w3.org/1999/xlink" clip-rule="evenodd" stroke-miterlimit="10" viewBox="0 0 777 82"><desc>SVG generated by Keynote</desc><defs><pattern id="4F39D97B-B3FF-404C-8ABA-08ACD5A6CFF8" patternUnits="userSpaceOnUse" width="600" height="600" viewBox="0 0 600 600"><image xlink:href="../../27FC78CF-AF69-4AEC-9347-5C015BE30FA0/assets/1DCD970325A402F83F095B3789B6FDC2.png" width="600.00" height="600.00"></image></pattern></defs><g transform="matrix(1.00, 0.00, -0.00, -1.00, 0.0, 82.0)"><g><clipPath id="clip0x7fad139b4800"><path d="M 0.6 35.0 L 776.9 35.0 L 776.9 81.9 L 0.6 81.9 Z M 0.6 35.0 "></path></clipPath><g clip-path="url(#clip0x7fad139b4800)"><image xlink:href="A77934940A7EC50E6FC3959B993D31C5.png" width="774.00" height="45.00" transform="matrix(1.00, 0.00, -0.00, -1.00, 1.6, 80.9)" opacity="0.50"></image></g></g><g><clipPath id="clip0x7fad13a41b10"><path d="M 69.0 54.0 L 69.0 41.0 L 4.6 60.5 L 69.0 79.9 L 69.0 67.0 L 773.0 67.0 L 773.0 54.0 Z M 68.6 54.2 "></path></clipPath><g clip-path="url(#clip0x7fad13a41b10)"><g><clipPath id="clip0x7fad13a3e600"><path d="M 0.6 35.0 L 776.9 35.0 L 776.9 81.9 L 0.6 81.9 Z M 0.6 35.0 "></path></clipPath><g clip-path="url(#clip0x7fad13a3e600)"><path d="M 4.6 41.0 L 773.0 41.0 L 773.0 79.9 L 4.6 79.9 Z M 4.6 41.0 " fill="url(#4F39D97B-B3FF-404C-8ABA-08ACD5A6CFF8)"></path></g></g></g></g><g><clipPath id="clip0x7fad13a42dd0"><path d="M 119.1 -3.2 L 658.4 -3.2 L 658.4 56.3 L 119.1 56.3 Z M 119.1 -3.2 "></path></clipPath><g clip-path="url(#clip0x7fad13a42dd0)"><text xml:space="preserve" font-family="Helvetica,Helvetica" font-size="35.0" fill="#3E3E3E" transform="matrix(1.00, 0.00, -0.00, -1.00, 140.4, 13.6)">{</text><text xml:space="preserve" font-family="Helvetica,Helvetica" font-size="35.0" fill="#3E3E3E" transform="matrix(1.00, 0.00, -0.00, -1.00, 152.1, 13.6)"> </text><text xml:space="preserve" font-family="Helvetica,Helvetica" font-size="35.0" fill="#3E3E3E" transform="matrix(1.00, 0.00, -0.00, -1.00, 161.8, 13.6)">"</text><text xml:space="preserve" font-family="Helvetica,Helvetica" font-size="35.0" fill="#3E3E3E" transform="matrix(1.00, 0.00, -0.00, -1.00, 174.2, 13.6)">t</text><text xml:space="preserve" font-family="Helvetica,Helvetica" font-size="35.0" fill="#3E3E3E" transform="matrix(1.00, 0.00, -0.00, -1.00, 183.9, 13.6)">o</text><text xml:space="preserve" font-family="Helvetica,Helvetica" font-size="35.0" fill="#3E3E3E" transform="matrix(1.00, 0.00, -0.00, -1.00, 203.4, 13.6)">"</text><text xml:space="preserve" font-family="Helvetica,Helvetica" font-size="35.0" fill="#3E3E3E" transform="matrix(1.00, 0.00, -0.00, -1.00, 215.8, 13.6)">:</text><text xml:space="preserve" font-family="Helvetica,Helvetica" font-size="35.0" fill="#3E3E3E" transform="matrix(1.00, 0.00, -0.00, -1.00, 225.6, 13.6)">t</text><text xml:space="preserve" font-family="Helvetica,Helvetica" font-size="35.0" fill="#3E3E3E" transform="matrix(1.00, 0.00, -0.00, -1.00, 235.3, 13.6)">a</text><text xml:space="preserve" font-family="Helvetica,Helvetica" font-size="35.0" fill="#3E3E3E" transform="matrix(1.00, 0.00, -0.00, -1.00, 254.7, 13.6)">b</text><text xml:space="preserve" font-family="Helvetica,Helvetica" font-size="35.0" fill="#3E3E3E" transform="matrix(1.00, 0.00, -0.00, -1.00, 274.2, 13.6)">A</text><text xml:space="preserve" font-family="Helvetica,Helvetica" font-size="35.0" fill="#3E3E3E" transform="matrix(1.00, 0.00, -0.00, -1.00, 297.6, 13.6)">c</text><text xml:space="preserve" font-family="Helvetica,Helvetica" font-size="35.0" fill="#3E3E3E" transform="matrix(1.00, 0.00, -0.00, -1.00, 315.1, 13.6)">t</text><text xml:space="preserve" font-family="Helvetica,Helvetica" font-size="35.0" fill="#3E3E3E" transform="matrix(1.00, 0.00, -0.00, -1.00, 324.8, 13.6)">o</text><text xml:space="preserve" font-family="Helvetica,Helvetica" font-size="35.0" fill="#3E3E3E" transform="matrix(1.00, 0.00, -0.00, -1.00, 344.2, 13.6)">r</text><text xml:space="preserve" font-family="Helvetica,Helvetica" font-size="35.0" fill="#3E3E3E" transform="matrix(1.00, 0.00, -0.00, -1.00, 355.9, 13.6)">2</text><text xml:space="preserve" font-family="Helvetica,Helvetica" font-size="35.0" fill="#3E3E3E" transform="matrix(1.00, 0.00, -0.00, -1.00, 375.4, 13.6)">,</text><text xml:space="preserve" font-family="Helvetica,Helvetica" font-size="35.0" fill="#3E3E3E" transform="matrix(1.00, 0.00, -0.00, -1.00, 385.1, 13.6)"> </text><text xml:space="preserve" font-family="Helvetica,Helvetica" font-size="35.0" fill="#3E3E3E" transform="matrix(1.00, 0.00, -0.00, -1.00, 394.8, 13.6)">"</text><text xml:space="preserve" font-family="Helvetica,Helvetica" font-size="35.0" fill="#3E3E3E" transform="matrix(1.00, 0.00, -0.00, -1.00, 407.2, 13.6)">t</text><text xml:space="preserve" font-family="Helvetica,Helvetica" font-size="35.0" fill="#3E3E3E" transform="matrix(1.00, 0.00, -0.00, -1.00, 416.9, 13.6)">y</text><text xml:space="preserve" font-family="Helvetica,Helvetica" font-size="35.0" fill="#3E3E3E" transform="matrix(1.00, 0.00, -0.00, -1.00, 434.4, 13.6)">p</text><text xml:space="preserve" font-family="Helvetica,Helvetica" font-size="35.0" fill="#3E3E3E" transform="matrix(1.00, 0.00, -0.00, -1.00, 453.9, 13.6)">e</text><text xml:space="preserve" font-family="Helvetica,Helvetica" font-size="35.0" fill="#3E3E3E" transform="matrix(1.00, 0.00, -0.00, -1.00, 473.4, 13.6)">"</text><text xml:space="preserve" font-family="Helvetica,Helvetica" font-size="35.0" fill="#3E3E3E" transform="matrix(1.00, 0.00, -0.00, -1.00, 485.8, 13.6)">:</text><text xml:space="preserve" font-family="Helvetica,Helvetica" font-size="35.0" fill="#3E3E3E" transform="matrix(1.00, 0.00, -0.00, -1.00, 495.5, 13.6)">"</text><text xml:space="preserve" font-family="Helvetica,Helvetica" font-size="35.0" fill="#3E3E3E" transform="matrix(1.00, 0.00, -0.00, -1.00, 508.0, 13.6)">a</text><text xml:space="preserve" font-family="Helvetica,Helvetica" font-size="35.0" fill="#3E3E3E" transform="matrix(1.00, 0.00, -0.00, -1.00, 527.4, 13.6)">t</text><text xml:space="preserve" font-family="Helvetica,Helvetica" font-size="35.0" fill="#3E3E3E" transform="matrix(1.00, 0.00, -0.00, -1.00, 537.1, 13.6)">t</text><text xml:space="preserve" font-family="Helvetica,Helvetica" font-size="35.0" fill="#3E3E3E" transform="matrix(1.00, 0.00, -0.00, -1.00, 546.9, 13.6)">a</text><text xml:space="preserve" font-family="Helvetica,Helvetica" font-size="35.0" fill="#3E3E3E" transform="matrix(1.00, 0.00, -0.00, -1.00, 566.3, 13.6)">c</text><text xml:space="preserve" font-family="Helvetica,Helvetica" font-size="35.0" fill="#3E3E3E" transform="matrix(1.00, 0.00, -0.00, -1.00, 583.8, 13.6)">h</text><text xml:space="preserve" font-family="Helvetica,Helvetica" font-size="35.0" fill="#3E3E3E" transform="matrix(1.00, 0.00, -0.00, -1.00, 603.3, 13.6)">"</text><text xml:space="preserve" font-family="Helvetica,Helvetica" font-size="35.0" fill="#3E3E3E" transform="matrix(1.00, 0.00, -0.00, -1.00, 615.7, 13.6)"> </text><text xml:space="preserve" font-family="Helvetica,Helvetica" font-size="35.0" fill="#3E3E3E" transform="matrix(1.00, 0.00, -0.00, -1.00, 625.5, 13.6)">}</text></g></g></g></svg>