<?xml version="1.0" encoding="UTF-8" standalone="no"?><svg xmlns="http://www.w3.org/2000/svg" xmlns:xlink="http://www.w3.org/1999/xlink" clip-rule="evenodd" stroke-miterlimit="10" viewBox="0 0 575 510"><desc>SVG generated by Keynote</desc><defs></defs><g transform="matrix(1.00, 0.00, -0.00, -1.00, 0.0, 510.0)"><g><clipPath id="clip0x7fad13a251b0"><path d="M 0.8 0.1 L 574.6 0.1 L 574.6 510.0 L 0.8 510.0 Z M 0.8 0.1 "></path></clipPath><g clip-path="url(#clip0x7fad13a251b0)"><path d="M -0.2 -0.4 L 568.8 -0.4 L 568.8 504.6 L -0.2 504.6 Z M 0.0 0.0 " fill="none" stroke="#85878C" stroke-width="2.00" stroke-linejoin="round" stroke-dasharray="2.0, 4.0" transform="matrix(1.00, 0.00, 0.00, -1.00, 3.2, 507.6)"></path></g></g><g><clipPath id="clip0x7fad13a265e0"><path d="M 204.8 17.3 L 370.6 17.3 L 370.6 102.3 L 204.8 102.3 Z M 204.8 17.3 "></path></clipPath><g clip-path="url(#clip0x7fad13a265e0)"><text xml:space="preserve" font-family="Helvetica,Helvetica" font-size="50.0" fill="#525252" transform="matrix(1.00, 0.00, -0.00, -1.00, 217.8, 41.3)">S</text><text xml:space="preserve" font-family="Helvetica,Helvetica" font-size="50.0" fill="#525252" transform="matrix(1.00, 0.00, -0.00, -1.00, 249.9, 41.3)">e</text><text xml:space="preserve" font-family="Helvetica,Helvetica" font-size="50.0" fill="#525252" transform="matrix(1.00, 0.00, -0.00, -1.00, 276.5, 41.3)">r</text><text xml:space="preserve" font-family="Helvetica,Helvetica" font-size="50.0" fill="#525252" transform="matrix(1.00, 0.00, -0.00, -1.00, 291.9, 41.3)">v</text><text xml:space="preserve" font-family="Helvetica,Helvetica" font-size="50.0" fill="#525252" transform="matrix(1.00, 0.00, -0.00, -1.00, 315.6, 41.3)">e</text><text xml:space="preserve" font-family="Helvetica,Helvetica" font-size="50.0" fill="#525252" transform="matrix(1.00, 0.00, -0.00, -1.00, 342.2, 41.3)">r</text></g></g></g></svg>