<?xml version="1.0" encoding="UTF-8" standalone="no"?><svg xmlns="http://www.w3.org/2000/svg" xmlns:xlink="http://www.w3.org/1999/xlink" clip-rule="evenodd" stroke-miterlimit="10" viewBox="0 0 965 132"><desc>SVG generated by Keynote</desc><defs><pattern id="153EC23D-B52D-4164-855B-43D5861D12C3" patternUnits="userSpaceOnUse" width="600" height="600" viewBox="0 0 600 600"><image xlink:href="../../27FC78CF-AF69-4AEC-9347-5C015BE30FA0/assets/1DCD970325A402F83F095B3789B6FDC2.png" width="600.00" height="600.00"></image></pattern></defs><g transform="matrix(1.00, 0.00, -0.00, -1.00, 0.0, 132.0)"><g><clipPath id="clip0x7fad13980d70"><path d="M 0.5 84.9 L 964.7 84.9 L 964.7 131.8 L 0.5 131.8 Z M 0.5 84.9 "></path></clipPath><g clip-path="url(#clip0x7fad13980d70)"><image xlink:href="C486D9EBEF8E254B137B195171ED6D7B.png" width="962.00" height="45.00" transform="matrix(1.00, 0.00, -0.00, -1.00, 1.5, 130.8)" opacity="0.50"></image></g></g><g><clipPath id="clip0x7fad13a40500"><path d="M 897.0 104.0 L 897.0 90.9 L 960.7 110.4 L 897.0 129.8 L 897.0 117.0 L 5.0 117.0 L 5.0 104.0 Z M 896.7 104.2 "></path></clipPath><g clip-path="url(#clip0x7fad13a40500)"><g><clipPath id="clip0x7fad13a18ea0"><path d="M 0.5 84.9 L 964.7 84.9 L 964.7 131.8 L 0.5 131.8 Z M 0.5 84.9 "></path></clipPath><g clip-path="url(#clip0x7fad13a18ea0)"><path d="M 5.0 90.9 L 960.7 90.9 L 960.7 129.8 L 5.0 129.8 Z M 5.0 90.9 " fill="url(#153EC23D-B52D-4164-855B-43D5861D12C3)"></path></g></g></g></g><g><clipPath id="clip0x7fad13980300"><path d="M 71.0 -3.4 L 894.2 -3.4 L 894.2 98.1 L 71.0 98.1 Z M 71.0 -3.4 "></path></clipPath><g clip-path="url(#clip0x7fad13980300)"><text xml:space="preserve" font-family="Helvetica,Helvetica" font-size="35.0" fill="#3E3E3E" transform="matrix(1.00, 0.00, -0.00, -1.00, 90.5, 55.4)">{</text><text xml:space="preserve" font-family="Helvetica,Helvetica" font-size="35.0" fill="#3E3E3E" transform="matrix(1.00, 0.00, -0.00, -1.00, 102.2, 55.4)"> </text><text xml:space="preserve" font-family="Helvetica,Helvetica" font-size="35.0" fill="#3E3E3E" transform="matrix(1.00, 0.00, -0.00, -1.00, 111.9, 55.4)">"</text><text xml:space="preserve" font-family="Helvetica,Helvetica" font-size="35.0" fill="#3E3E3E" transform="matrix(1.00, 0.00, -0.00, -1.00, 124.3, 55.4)">f</text><text xml:space="preserve" font-family="Helvetica,Helvetica" font-size="35.0" fill="#3E3E3E" transform="matrix(1.00, 0.00, -0.00, -1.00, 134.0, 55.4)">r</text><text xml:space="preserve" font-family="Helvetica,Helvetica" font-size="35.0" fill="#3E3E3E" transform="matrix(1.00, 0.00, -0.00, -1.00, 145.7, 55.4)">o</text><text xml:space="preserve" font-family="Helvetica,Helvetica" font-size="35.0" fill="#3E3E3E" transform="matrix(1.00, 0.00, -0.00, -1.00, 165.2, 55.4)">m</text><text xml:space="preserve" font-family="Helvetica,Helvetica" font-size="35.0" fill="#3E3E3E" transform="matrix(1.00, 0.00, -0.00, -1.00, 194.3, 55.4)">"</text><text xml:space="preserve" font-family="Helvetica,Helvetica" font-size="35.0" fill="#3E3E3E" transform="matrix(1.00, 0.00, -0.00, -1.00, 206.7, 55.4)">:</text><text xml:space="preserve" font-family="Helvetica,Helvetica" font-size="35.0" fill="#3E3E3E" transform="matrix(1.00, 0.00, -0.00, -1.00, 216.5, 55.4)">"</text><text xml:space="preserve" font-family="Helvetica,Helvetica" font-size="35.0" fill="#3E3E3E" transform="matrix(1.00, 0.00, -0.00, -1.00, 228.9, 55.4)">r</text><text xml:space="preserve" font-family="Helvetica,Helvetica" font-size="35.0" fill="#3E3E3E" transform="matrix(1.00, 0.00, -0.00, -1.00, 240.5, 55.4)">o</text><text xml:space="preserve" font-family="Helvetica,Helvetica" font-size="35.0" fill="#3E3E3E" transform="matrix(1.00, 0.00, -0.00, -1.00, 260.0, 55.4)">o</text><text xml:space="preserve" font-family="Helvetica,Helvetica" font-size="35.0" fill="#3E3E3E" transform="matrix(1.00, 0.00, -0.00, -1.00, 279.5, 55.4)">t</text><text xml:space="preserve" font-family="Helvetica,Helvetica" font-size="35.0" fill="#3E3E3E" transform="matrix(1.00, 0.00, -0.00, -1.00, 289.2, 55.4)">"</text><text xml:space="preserve" font-family="Helvetica,Helvetica" font-size="35.0" fill="#3E3E3E" transform="matrix(1.00, 0.00, -0.00, -1.00, 301.6, 55.4)">,</text><text xml:space="preserve" font-family="Helvetica,Helvetica" font-size="35.0" fill="#3E3E3E" transform="matrix(1.00, 0.00, -0.00, -1.00, 311.3, 55.4)"> </text><text xml:space="preserve" font-family="Helvetica,Helvetica" font-size="35.0" fill="#3E3E3E" transform="matrix(1.00, 0.00, -0.00, -1.00, 321.1, 55.4)">"</text><text xml:space="preserve" font-family="Helvetica,Helvetica" font-size="35.0" fill="#3E3E3E" transform="matrix(1.00, 0.00, -0.00, -1.00, 333.5, 55.4)">t</text><text xml:space="preserve" font-family="Helvetica,Helvetica" font-size="35.0" fill="#3E3E3E" transform="matrix(1.00, 0.00, -0.00, -1.00, 343.2, 55.4)">a</text><text xml:space="preserve" font-family="Helvetica,Helvetica" font-size="35.0" fill="#3E3E3E" transform="matrix(1.00, 0.00, -0.00, -1.00, 362.7, 55.4)">b</text><text xml:space="preserve" font-family="Helvetica,Helvetica" font-size="35.0" fill="#3E3E3E" transform="matrix(1.00, 0.00, -0.00, -1.00, 382.1, 55.4)">s</text><text xml:space="preserve" font-family="Helvetica,Helvetica" font-size="35.0" fill="#3E3E3E" transform="matrix(1.00, 0.00, -0.00, -1.00, 399.6, 55.4)">"</text><text xml:space="preserve" font-family="Helvetica,Helvetica" font-size="35.0" fill="#3E3E3E" transform="matrix(1.00, 0.00, -0.00, -1.00, 412.1, 55.4)">:</text><text xml:space="preserve" font-family="Helvetica,Helvetica" font-size="35.0" fill="#3E3E3E" transform="matrix(1.00, 0.00, -0.00, -1.00, 421.8, 55.4)">[</text><text xml:space="preserve" font-family="Helvetica,Helvetica" font-size="35.0" fill="#3E3E3E" transform="matrix(1.00, 0.00, -0.00, -1.00, 431.5, 55.4)">t</text><text xml:space="preserve" font-family="Helvetica,Helvetica" font-size="35.0" fill="#3E3E3E" transform="matrix(1.00, 0.00, -0.00, -1.00, 441.2, 55.4)">a</text><text xml:space="preserve" font-family="Helvetica,Helvetica" font-size="35.0" fill="#3E3E3E" transform="matrix(1.00, 0.00, -0.00, -1.00, 460.7, 55.4)">b</text><text xml:space="preserve" font-family="Helvetica,Helvetica" font-size="35.0" fill="#3E3E3E" transform="matrix(1.00, 0.00, -0.00, -1.00, 480.2, 55.4)">,</text><text xml:space="preserve" font-family="Helvetica,Helvetica" font-size="35.0" fill="#3E3E3E" transform="matrix(1.00, 0.00, -0.00, -1.00, 489.9, 55.4)"> </text><text xml:space="preserve" font-family="Helvetica,Helvetica" font-size="35.0" fill="#3E3E3E" transform="matrix(1.00, 0.00, -0.00, -1.00, 499.6, 55.4)">.</text><text xml:space="preserve" font-family="Helvetica,Helvetica" font-size="35.0" fill="#3E3E3E" transform="matrix(1.00, 0.00, -0.00, -1.00, 509.3, 55.4)">.</text><text xml:space="preserve" font-family="Helvetica,Helvetica" font-size="35.0" fill="#3E3E3E" transform="matrix(1.00, 0.00, -0.00, -1.00, 519.0, 55.4)">.</text><text xml:space="preserve" font-family="Helvetica,Helvetica" font-size="35.0" fill="#3E3E3E" transform="matrix(1.00, 0.00, -0.00, -1.00, 528.8, 55.4)">]</text><text xml:space="preserve" font-family="Helvetica,Helvetica" font-size="35.0" fill="#3E3E3E" transform="matrix(1.00, 0.00, -0.00, -1.00, 538.5, 55.4)">,</text><text xml:space="preserve" font-family="Helvetica,Helvetica" font-size="35.0" fill="#3E3E3E" transform="matrix(1.00, 0.00, -0.00, -1.00, 548.2, 55.4)"> </text><text xml:space="preserve" font-family="Helvetica,Helvetica" font-size="35.0" fill="#3E3E3E" transform="matrix(1.00, 0.00, -0.00, -1.00, 557.9, 55.4)">"</text><text xml:space="preserve" font-family="Helvetica,Helvetica" font-size="35.0" fill="#3E3E3E" transform="matrix(1.00, 0.00, -0.00, -1.00, 570.3, 55.4)">s</text><text xml:space="preserve" font-family="Helvetica,Helvetica" font-size="35.0" fill="#3E3E3E" transform="matrix(1.00, 0.00, -0.00, -1.00, 587.8, 55.4)">e</text><text xml:space="preserve" font-family="Helvetica,Helvetica" font-size="35.0" fill="#3E3E3E" transform="matrix(1.00, 0.00, -0.00, -1.00, 607.3, 55.4)">l</text><text xml:space="preserve" font-family="Helvetica,Helvetica" font-size="35.0" fill="#3E3E3E" transform="matrix(1.00, 0.00, -0.00, -1.00, 615.1, 55.4)">e</text><text xml:space="preserve" font-family="Helvetica,Helvetica" font-size="35.0" fill="#3E3E3E" transform="matrix(1.00, 0.00, -0.00, -1.00, 634.6, 55.4)">c</text><text xml:space="preserve" font-family="Helvetica,Helvetica" font-size="35.0" fill="#3E3E3E" transform="matrix(1.00, 0.00, -0.00, -1.00, 652.1, 55.4)">t</text><text xml:space="preserve" font-family="Helvetica,Helvetica" font-size="35.0" fill="#3E3E3E" transform="matrix(1.00, 0.00, -0.00, -1.00, 661.8, 55.4)">e</text><text xml:space="preserve" font-family="Helvetica,Helvetica" font-size="35.0" fill="#3E3E3E" transform="matrix(1.00, 0.00, -0.00, -1.00, 681.2, 55.4)">d</text><text xml:space="preserve" font-family="Helvetica,Helvetica" font-size="35.0" fill="#3E3E3E" transform="matrix(1.00, 0.00, -0.00, -1.00, 700.7, 55.4)">"</text><text xml:space="preserve" font-family="Helvetica,Helvetica" font-size="35.0" fill="#3E3E3E" transform="matrix(1.00, 0.00, -0.00, -1.00, 713.1, 55.4)">:</text><text xml:space="preserve" font-family="Helvetica,Helvetica" font-size="35.0" fill="#3E3E3E" transform="matrix(1.00, 0.00, -0.00, -1.00, 722.9, 55.4)">s</text><text xml:space="preserve" font-family="Helvetica,Helvetica" font-size="35.0" fill="#3E3E3E" transform="matrix(1.00, 0.00, -0.00, -1.00, 740.4, 55.4)">e</text><text xml:space="preserve" font-family="Helvetica,Helvetica" font-size="35.0" fill="#3E3E3E" transform="matrix(1.00, 0.00, -0.00, -1.00, 759.8, 55.4)">l</text><text xml:space="preserve" font-family="Helvetica,Helvetica" font-size="35.0" fill="#3E3E3E" transform="matrix(1.00, 0.00, -0.00, -1.00, 767.6, 55.4)">e</text><text xml:space="preserve" font-family="Helvetica,Helvetica" font-size="35.0" fill="#3E3E3E" transform="matrix(1.00, 0.00, -0.00, -1.00, 787.1, 55.4)">c</text><text xml:space="preserve" font-family="Helvetica,Helvetica" font-size="35.0" fill="#3E3E3E" transform="matrix(1.00, 0.00, -0.00, -1.00, 804.6, 55.4)">t</text><text xml:space="preserve" font-family="Helvetica,Helvetica" font-size="35.0" fill="#3E3E3E" transform="matrix(1.00, 0.00, -0.00, -1.00, 814.3, 55.4)">e</text><text xml:space="preserve" font-family="Helvetica,Helvetica" font-size="35.0" fill="#3E3E3E" transform="matrix(1.00, 0.00, -0.00, -1.00, 833.8, 55.4)">d</text><text xml:space="preserve" font-family="Helvetica,Helvetica" font-size="35.0" fill="#3E3E3E" transform="matrix(1.00, 0.00, -0.00, -1.00, 853.2, 55.4)"> </text><text xml:space="preserve" font-family="Helvetica,Helvetica" font-size="35.0" fill="#3E3E3E" transform="matrix(1.00, 0.00, -0.00, -1.00, 863.0, 55.4)">}</text><text xml:space="preserve" font-family="Helvetica,Helvetica" font-size="35.0" fill="#3E3E3E" transform="matrix(1.00, 0.00, -0.00, -1.00, 874.7, 55.4)"> </text><text xml:space="preserve" font-family="Helvetica,Helvetica" font-size="35.0" fill="#3E3E3E" transform="matrix(1.00, 0.00, -0.00, -1.00, 144.4, 13.4)">t</text><text xml:space="preserve" font-family="Helvetica,Helvetica" font-size="35.0" fill="#3E3E3E" transform="matrix(1.00, 0.00, -0.00, -1.00, 154.1, 13.4)">a</text><text xml:space="preserve" font-family="Helvetica,Helvetica" font-size="35.0" fill="#3E3E3E" transform="matrix(1.00, 0.00, -0.00, -1.00, 173.6, 13.4)">b</text><text xml:space="preserve" font-family="Helvetica,Helvetica" font-size="35.0" fill="#3E3E3E" transform="matrix(1.00, 0.00, -0.00, -1.00, 193.0, 13.4)">:</text><text xml:space="preserve" font-family="Helvetica,Helvetica" font-size="35.0" fill="#3E3E3E" transform="matrix(1.00, 0.00, -0.00, -1.00, 202.8, 13.4)"> </text><text xml:space="preserve" font-family="Helvetica,Helvetica" font-size="35.0" fill="#3E3E3E" transform="matrix(1.00, 0.00, -0.00, -1.00, 212.5, 13.4)">{</text><text xml:space="preserve" font-family="Helvetica,Helvetica" font-size="35.0" fill="#3E3E3E" transform="matrix(1.00, 0.00, -0.00, -1.00, 224.2, 13.4)"> </text><text xml:space="preserve" font-family="Helvetica,Helvetica" font-size="35.0" fill="#3E3E3E" transform="matrix(1.00, 0.00, -0.00, -1.00, 233.9, 13.4)">"</text><text xml:space="preserve" font-family="Helvetica,Helvetica" font-size="35.0" fill="#3E3E3E" transform="matrix(1.00, 0.00, -0.00, -1.00, 246.3, 13.4)">a</text><text xml:space="preserve" font-family="Helvetica,Helvetica" font-size="35.0" fill="#3E3E3E" transform="matrix(1.00, 0.00, -0.00, -1.00, 265.8, 13.4)">c</text><text xml:space="preserve" font-family="Helvetica,Helvetica" font-size="35.0" fill="#3E3E3E" transform="matrix(1.00, 0.00, -0.00, -1.00, 283.3, 13.4)">t</text><text xml:space="preserve" font-family="Helvetica,Helvetica" font-size="35.0" fill="#3E3E3E" transform="matrix(1.00, 0.00, -0.00, -1.00, 293.0, 13.4)">o</text><text xml:space="preserve" font-family="Helvetica,Helvetica" font-size="35.0" fill="#3E3E3E" transform="matrix(1.00, 0.00, -0.00, -1.00, 312.5, 13.4)">r</text><text xml:space="preserve" font-family="Helvetica,Helvetica" font-size="35.0" fill="#3E3E3E" transform="matrix(1.00, 0.00, -0.00, -1.00, 324.2, 13.4)">"</text><text xml:space="preserve" font-family="Helvetica,Helvetica" font-size="35.0" fill="#3E3E3E" transform="matrix(1.00, 0.00, -0.00, -1.00, 336.6, 13.4)">:</text><text xml:space="preserve" font-family="Helvetica,Helvetica" font-size="35.0" fill="#3E3E3E" transform="matrix(1.00, 0.00, -0.00, -1.00, 346.3, 13.4)">t</text><text xml:space="preserve" font-family="Helvetica,Helvetica" font-size="35.0" fill="#3E3E3E" transform="matrix(1.00, 0.00, -0.00, -1.00, 356.0, 13.4)">a</text><text xml:space="preserve" font-family="Helvetica,Helvetica" font-size="35.0" fill="#3E3E3E" transform="matrix(1.00, 0.00, -0.00, -1.00, 375.5, 13.4)">b</text><text xml:space="preserve" font-family="Helvetica,Helvetica" font-size="35.0" fill="#3E3E3E" transform="matrix(1.00, 0.00, -0.00, -1.00, 395.0, 13.4)">A</text><text xml:space="preserve" font-family="Helvetica,Helvetica" font-size="35.0" fill="#3E3E3E" transform="matrix(1.00, 0.00, -0.00, -1.00, 418.3, 13.4)">c</text><text xml:space="preserve" font-family="Helvetica,Helvetica" font-size="35.0" fill="#3E3E3E" transform="matrix(1.00, 0.00, -0.00, -1.00, 435.8, 13.4)">t</text><text xml:space="preserve" font-family="Helvetica,Helvetica" font-size="35.0" fill="#3E3E3E" transform="matrix(1.00, 0.00, -0.00, -1.00, 445.5, 13.4)">o</text><text xml:space="preserve" font-family="Helvetica,Helvetica" font-size="35.0" fill="#3E3E3E" transform="matrix(1.00, 0.00, -0.00, -1.00, 465.0, 13.4)">r</text><text xml:space="preserve" font-family="Helvetica,Helvetica" font-size="35.0" fill="#3E3E3E" transform="matrix(1.00, 0.00, -0.00, -1.00, 474.7, 13.4)">,</text><text xml:space="preserve" font-family="Helvetica,Helvetica" font-size="35.0" fill="#3E3E3E" transform="matrix(1.00, 0.00, -0.00, -1.00, 484.5, 13.4)"> </text><text xml:space="preserve" font-family="Helvetica,Helvetica" font-size="35.0" fill="#3E3E3E" transform="matrix(1.00, 0.00, -0.00, -1.00, 494.2, 13.4)">"</text><text xml:space="preserve" font-family="Helvetica,Helvetica" font-size="35.0" fill="#3E3E3E" transform="matrix(1.00, 0.00, -0.00, -1.00, 506.6, 13.4)">t</text><text xml:space="preserve" font-family="Helvetica,Helvetica" font-size="35.0" fill="#3E3E3E" transform="matrix(1.00, 0.00, -0.00, -1.00, 516.3, 13.4)">i</text><text xml:space="preserve" font-family="Helvetica,Helvetica" font-size="35.0" fill="#3E3E3E" transform="matrix(1.00, 0.00, -0.00, -1.00, 524.1, 13.4)">t</text><text xml:space="preserve" font-family="Helvetica,Helvetica" font-size="35.0" fill="#3E3E3E" transform="matrix(1.00, 0.00, -0.00, -1.00, 533.8, 13.4)">l</text><text xml:space="preserve" font-family="Helvetica,Helvetica" font-size="35.0" fill="#3E3E3E" transform="matrix(1.00, 0.00, -0.00, -1.00, 541.6, 13.4)">e</text><text xml:space="preserve" font-family="Helvetica,Helvetica" font-size="35.0" fill="#3E3E3E" transform="matrix(1.00, 0.00, -0.00, -1.00, 561.1, 13.4)">"</text><text xml:space="preserve" font-family="Helvetica,Helvetica" font-size="35.0" fill="#3E3E3E" transform="matrix(1.00, 0.00, -0.00, -1.00, 573.5, 13.4)">:</text><text xml:space="preserve" font-family="Helvetica,Helvetica" font-size="35.0" fill="#3E3E3E" transform="matrix(1.00, 0.00, -0.00, -1.00, 583.2, 13.4)">t</text><text xml:space="preserve" font-family="Helvetica,Helvetica" font-size="35.0" fill="#3E3E3E" transform="matrix(1.00, 0.00, -0.00, -1.00, 592.9, 13.4)">i</text><text xml:space="preserve" font-family="Helvetica,Helvetica" font-size="35.0" fill="#3E3E3E" transform="matrix(1.00, 0.00, -0.00, -1.00, 600.7, 13.4)">t</text><text xml:space="preserve" font-family="Helvetica,Helvetica" font-size="35.0" fill="#3E3E3E" transform="matrix(1.00, 0.00, -0.00, -1.00, 610.4, 13.4)">l</text><text xml:space="preserve" font-family="Helvetica,Helvetica" font-size="35.0" fill="#3E3E3E" transform="matrix(1.00, 0.00, -0.00, -1.00, 618.2, 13.4)">e</text><text xml:space="preserve" font-family="Helvetica,Helvetica" font-size="35.0" fill="#3E3E3E" transform="matrix(1.00, 0.00, -0.00, -1.00, 637.7, 13.4)">,</text><text xml:space="preserve" font-family="Helvetica,Helvetica" font-size="35.0" fill="#3E3E3E" transform="matrix(1.00, 0.00, -0.00, -1.00, 647.4, 13.4)"> </text><text xml:space="preserve" font-family="Helvetica,Helvetica" font-size="35.0" fill="#3E3E3E" transform="matrix(1.00, 0.00, -0.00, -1.00, 657.1, 13.4)">"</text><text xml:space="preserve" font-family="Helvetica,Helvetica" font-size="35.0" fill="#3E3E3E" transform="matrix(1.00, 0.00, -0.00, -1.00, 669.5, 13.4)">u</text><text xml:space="preserve" font-family="Helvetica,Helvetica" font-size="35.0" fill="#3E3E3E" transform="matrix(1.00, 0.00, -0.00, -1.00, 689.0, 13.4)">r</text><text xml:space="preserve" font-family="Helvetica,Helvetica" font-size="35.0" fill="#3E3E3E" transform="matrix(1.00, 0.00, -0.00, -1.00, 700.7, 13.4)">l</text><text xml:space="preserve" font-family="Helvetica,Helvetica" font-size="35.0" fill="#3E3E3E" transform="matrix(1.00, 0.00, -0.00, -1.00, 708.5, 13.4)">"</text><text xml:space="preserve" font-family="Helvetica,Helvetica" font-size="35.0" fill="#3E3E3E" transform="matrix(1.00, 0.00, -0.00, -1.00, 720.9, 13.4)">:</text><text xml:space="preserve" font-family="Helvetica,Helvetica" font-size="35.0" fill="#3E3E3E" transform="matrix(1.00, 0.00, -0.00, -1.00, 730.6, 13.4)">U</text><text xml:space="preserve" font-family="Helvetica,Helvetica" font-size="35.0" fill="#3E3E3E" transform="matrix(1.00, 0.00, -0.00, -1.00, 755.9, 13.4)">R</text><text xml:space="preserve" font-family="Helvetica,Helvetica" font-size="35.0" fill="#3E3E3E" transform="matrix(1.00, 0.00, -0.00, -1.00, 781.2, 13.4)">L</text><text xml:space="preserve" font-family="Helvetica,Helvetica" font-size="35.0" fill="#3E3E3E" transform="matrix(1.00, 0.00, -0.00, -1.00, 799.4, 13.4)"> </text><text xml:space="preserve" font-family="Helvetica,Helvetica" font-size="35.0" fill="#3E3E3E" transform="matrix(1.00, 0.00, -0.00, -1.00, 809.1, 13.4)">}</text></g></g></g></svg>