<?xml version="1.0" encoding="UTF-8" standalone="no"?><svg xmlns="http://www.w3.org/2000/svg" xmlns:xlink="http://www.w3.org/1999/xlink" clip-rule="evenodd" stroke-miterlimit="10" viewBox="0 0 498 306"><desc>SVG generated by Keynote</desc><defs></defs><g transform="matrix(1.00, 0.00, -0.00, -1.00, 0.0, 306.0)"><g><clipPath id="clip0x7fad139736a0"><path d="M 180.3 160.5 L 319.6 160.5 L 319.6 305.5 L 180.3 305.5 Z M 180.3 160.5 "></path></clipPath><g clip-path="url(#clip0x7fad139736a0)"><image xlink:href="../../4DE587A7-1CAC-4AF4-A0AD-D1F0943F74BE/assets/C8756182D8684DEAE8D115ABE3CC614C.png" width="137.00" height="143.00" transform="matrix(1.00, 0.00, -0.00, -1.00, 181.3, 304.5)" opacity="0.50"></image></g></g><g><clipPath id="clip0x7fad13a1a800"><path d="M 294.7 280.7 C 319.9 254.4 319.9 211.6 294.7 185.3 C 269.4 158.9 228.5 158.9 203.3 185.3 C 178.0 211.6 178.0 254.4 203.3 280.7 C 228.5 307.1 269.4 307.1 294.7 280.7 Z M 294.7 280.7 "></path></clipPath><g clip-path="url(#clip0x7fad13a1a800)"><g><clipPath id="clip0x7fad13a16270"><path d="M 180.3 160.5 L 319.6 160.5 L 319.6 305.5 L 180.3 305.5 Z M 180.3 160.5 "></path></clipPath><g clip-path="url(#clip0x7fad13a16270)"><image xlink:href="../../424293F2-DE12-4BCF-BFA8-E18F986F92D1/assets/57C63BC369DF2E161F93135AB5988468.png" width="600.00" height="600.00" transform="matrix(0.50, 0.00, -0.00, -0.50, 184.3, 300.5)"></image></g></g></g></g><g><clipPath id="clip0x7fad13a18170"><path d="M 180.9 165.5 L 317.0 165.5 L 317.0 300.5 L 180.9 300.5 Z M 180.9 165.5 "></path></clipPath><g clip-path="url(#clip0x7fad13a18170)"><text xml:space="preserve" font-family="GillSans-Light,Gill Sans" font-size="50.0" fill="#FEFFFF" transform="matrix(1.00, 0.00, -0.00, -1.00, 206.0, 216.4)">r</text><text xml:space="preserve" font-family="GillSans-Light,Gill Sans" font-size="50.0" fill="#FEFFFF" transform="matrix(1.00, 0.00, -0.00, -1.00, 222.7, 216.4)">o</text><text xml:space="preserve" font-family="GillSans-Light,Gill Sans" font-size="50.0" fill="#FEFFFF" transform="matrix(1.00, 0.00, -0.00, -1.00, 249.8, 216.4)">o</text><text xml:space="preserve" font-family="GillSans-Light,Gill Sans" font-size="50.0" fill="#FEFFFF" transform="matrix(1.00, 0.00, -0.00, -1.00, 276.9, 216.4)">t</text></g></g><g><clipPath id="clip0x7fad13a1ede0"><path d="M 0.3 0.6 L 224.1 0.6 L 224.1 145.6 L 0.3 145.6 Z M 0.3 0.6 "></path></clipPath><g clip-path="url(#clip0x7fad13a1ede0)"><image xlink:href="../../4DE587A7-1CAC-4AF4-A0AD-D1F0943F74BE/assets/C7724A8ED66ED90177606EA1D6036B20.png" width="222.00" height="143.00" transform="matrix(1.00, 0.00, -0.00, -1.00, 1.3, 144.6)" opacity="0.50"></image></g></g><g><clipPath id="clip0x7fad13975af0"><path d="M 186.8 120.8 C 228.5 94.4 228.5 51.7 186.8 25.3 C 145.0 -1.0 77.4 -1.0 35.6 25.3 C -6.1 51.7 -6.1 94.4 35.6 120.8 C 77.4 147.1 145.0 147.1 186.8 120.8 Z M 186.8 120.8 "></path></clipPath><g clip-path="url(#clip0x7fad13975af0)"><g><clipPath id="clip0x7fad139762d0"><path d="M 0.3 0.6 L 224.1 0.6 L 224.1 145.6 L 0.3 145.6 Z M 0.3 0.6 "></path></clipPath><g clip-path="url(#clip0x7fad139762d0)"><image xlink:href="../../424293F2-DE12-4BCF-BFA8-E18F986F92D1/assets/57C63BC369DF2E161F93135AB5988468.png" width="600.00" height="600.00" transform="matrix(0.50, 0.00, -0.00, -0.50, 4.3, 140.6)"></image></g></g></g></g><g><clipPath id="clip0x7fad13976750"><path d="M 4.3 5.6 L 218.1 5.6 L 218.1 140.6 L 4.3 140.6 Z M 4.3 5.6 "></path></clipPath><g clip-path="url(#clip0x7fad13976750)"><text xml:space="preserve" font-family="GillSans-Light,Gill Sans" font-size="50.0" fill="#FEFFFF" transform="matrix(1.00, 0.00, -0.00, -1.00, 33.1, 56.3)">t</text><text xml:space="preserve" font-family="GillSans-Light,Gill Sans" font-size="50.0" fill="#FEFFFF" transform="matrix(1.00, 0.00, -0.00, -1.00, 48.2, 56.3)">a</text><text xml:space="preserve" font-family="GillSans-Light,Gill Sans" font-size="50.0" fill="#FEFFFF" transform="matrix(1.00, 0.00, -0.00, -1.00, 69.5, 56.3)">b</text><text xml:space="preserve" font-family="GillSans-Light,Gill Sans" font-size="50.0" fill="#FEFFFF" transform="matrix(1.00, 0.00, -0.00, -1.00, 95.0, 56.3)">A</text><text xml:space="preserve" font-family="GillSans-Light,Gill Sans" font-size="50.0" fill="#FEFFFF" transform="matrix(1.00, 0.00, -0.00, -1.00, 128.3, 56.3)">c</text><text xml:space="preserve" font-family="GillSans-Light,Gill Sans" font-size="50.0" fill="#FEFFFF" transform="matrix(1.00, 0.00, -0.00, -1.00, 149.2, 56.3)">t</text><text xml:space="preserve" font-family="GillSans-Light,Gill Sans" font-size="50.0" fill="#FEFFFF" transform="matrix(1.00, 0.00, -0.00, -1.00, 164.2, 56.3)">1</text></g></g><g><clipPath id="clip0x7fad1397a590"><path d="M 273.3 0.6 L 497.1 0.6 L 497.1 145.6 L 273.3 145.6 Z M 273.3 0.6 "></path></clipPath><g clip-path="url(#clip0x7fad1397a590)"><image xlink:href="../../4DE587A7-1CAC-4AF4-A0AD-D1F0943F74BE/assets/C7724A8ED66ED90177606EA1D6036B20.png" width="222.00" height="143.00" transform="matrix(1.00, 0.00, -0.00, -1.00, 274.3, 144.6)" opacity="0.50"></image></g></g><g><clipPath id="clip0x7fad13a1fdd0"><path d="M 459.8 120.8 C 501.5 94.4 501.5 51.7 459.8 25.3 C 418.1 -1.0 350.4 -1.0 308.6 25.3 C 266.9 51.7 266.9 94.4 308.6 120.8 C 350.4 147.1 418.1 147.1 459.8 120.8 Z M 459.8 120.8 "></path></clipPath><g clip-path="url(#clip0x7fad13a1fdd0)"><g><clipPath id="clip0x7fad13a20f70"><path d="M 273.3 0.6 L 497.1 0.6 L 497.1 145.6 L 273.3 145.6 Z M 273.3 0.6 "></path></clipPath><g clip-path="url(#clip0x7fad13a20f70)"><image xlink:href="../../424293F2-DE12-4BCF-BFA8-E18F986F92D1/assets/57C63BC369DF2E161F93135AB5988468.png" width="600.00" height="600.00" transform="matrix(0.50, 0.00, -0.00, -0.50, 277.3, 140.6)"></image></g></g></g></g><g><clipPath id="clip0x7fad114fab00"><path d="M 277.3 5.6 L 491.1 5.6 L 491.1 140.6 L 277.3 140.6 Z M 277.3 5.6 "></path></clipPath><g clip-path="url(#clip0x7fad114fab00)"><text xml:space="preserve" font-family="GillSans-Light,Gill Sans" font-size="50.0" fill="#FEFFFF" transform="matrix(1.00, 0.00, -0.00, -1.00, 306.1, 56.3)">t</text><text xml:space="preserve" font-family="GillSans-Light,Gill Sans" font-size="50.0" fill="#FEFFFF" transform="matrix(1.00, 0.00, -0.00, -1.00, 321.2, 56.3)">a</text><text xml:space="preserve" font-family="GillSans-Light,Gill Sans" font-size="50.0" fill="#FEFFFF" transform="matrix(1.00, 0.00, -0.00, -1.00, 342.5, 56.3)">b</text><text xml:space="preserve" font-family="GillSans-Light,Gill Sans" font-size="50.0" fill="#FEFFFF" transform="matrix(1.00, 0.00, -0.00, -1.00, 368.0, 56.3)">A</text><text xml:space="preserve" font-family="GillSans-Light,Gill Sans" font-size="50.0" fill="#FEFFFF" transform="matrix(1.00, 0.00, -0.00, -1.00, 401.3, 56.3)">c</text><text xml:space="preserve" font-family="GillSans-Light,Gill Sans" font-size="50.0" fill="#FEFFFF" transform="matrix(1.00, 0.00, -0.00, -1.00, 422.2, 56.3)">t</text><text xml:space="preserve" font-family="GillSans-Light,Gill Sans" font-size="50.0" fill="#FEFFFF" transform="matrix(1.00, 0.00, -0.00, -1.00, 437.3, 56.3)">2</text></g></g><g><clipPath id="clip0x7fad13801620"><path d="M 290.0 131.0 L 335.6 131.0 L 335.6 184.0 L 290.0 184.0 Z M 290.0 131.0 "></path></clipPath><g clip-path="url(#clip0x7fad13801620)"><path d="M 42.1 49.8 C 28.1 33.2 14.0 16.6 0.0 0.0 " fill="none" stroke="#525252" stroke-width="2.00" transform="matrix(1.00, 0.00, 0.00, -1.00, 291.8, 182.4)"></path></g></g><g><clipPath id="clip0x7fad114fbd90"><path d="M 160.5 130.7 L 207.5 130.7 L 207.5 184.5 L 160.5 184.5 Z M 160.5 130.7 "></path></clipPath><g clip-path="url(#clip0x7fad114fbd90)"><path d="M 0.0 50.5 C 14.5 33.6 29.0 16.8 43.5 0.0 " fill="none" stroke="#525252" stroke-width="2.00" transform="matrix(1.00, 0.00, 0.00, -1.00, 162.3, 182.8)"></path></g></g></g></svg>