<?xml version="1.0" encoding="UTF-8" standalone="no"?><svg xmlns="http://www.w3.org/2000/svg" xmlns:xlink="http://www.w3.org/1999/xlink" clip-rule="evenodd" stroke-miterlimit="10" viewBox="0 0 142 146"><desc>SVG generated by Keynote</desc><defs></defs><g transform="matrix(1.00, 0.00, -0.00, -1.00, 0.0, 146.0)"><image xlink:href="../../4DE587A7-1CAC-4AF4-A0AD-D1F0943F74BE/assets/C8756182D8684DEAE8D115ABE3CC614C.png" width="137.00" height="143.00" transform="matrix(1.00, 0.00, -0.00, -1.00, 3.3, 144.9)" opacity="0.50"></image><g><clipPath id="clip0x7fad134f0f90"><path d="M 116.6 121.1 C 141.8 94.8 141.8 52.0 116.6 25.7 C 91.4 -0.7 50.4 -0.7 25.2 25.7 C -0.0 52.0 -0.0 94.8 25.2 121.1 C 50.4 147.5 91.4 147.5 116.6 121.1 Z M 116.6 121.1 "></path></clipPath><g clip-path="url(#clip0x7fad134f0f90)"><image xlink:href="../../424293F2-DE12-4BCF-BFA8-E18F986F92D1/assets/57C63BC369DF2E161F93135AB5988468.png" width="600.00" height="600.00" transform="matrix(0.50, 0.00, -0.00, -0.50, 6.3, 140.9)"></image></g></g><g><clipPath id="clip0x7fad1360c550"><path d="M 2.8 5.9 L 139.0 5.9 L 139.0 140.9 L 2.8 140.9 Z M 2.8 5.9 "></path></clipPath><g clip-path="url(#clip0x7fad1360c550)"><text xml:space="preserve" font-family="GillSans-Light,Gill Sans" font-size="50.0" fill="#FEFFFF" transform="matrix(1.00, 0.00, -0.00, -1.00, 27.9, 56.8)">r</text><text xml:space="preserve" font-family="GillSans-Light,Gill Sans" font-size="50.0" fill="#FEFFFF" transform="matrix(1.00, 0.00, -0.00, -1.00, 44.6, 56.8)">o</text><text xml:space="preserve" font-family="GillSans-Light,Gill Sans" font-size="50.0" fill="#FEFFFF" transform="matrix(1.00, 0.00, -0.00, -1.00, 71.7, 56.8)">o</text><text xml:space="preserve" font-family="GillSans-Light,Gill Sans" font-size="50.0" fill="#FEFFFF" transform="matrix(1.00, 0.00, -0.00, -1.00, 98.8, 56.8)">t</text></g></g></g></svg>