<?xml version="1.0" encoding="UTF-8" standalone="no"?><svg xmlns="http://www.w3.org/2000/svg" xmlns:xlink="http://www.w3.org/1999/xlink" clip-rule="evenodd" stroke-miterlimit="10" viewBox="0 0 380 108"><desc>SVG generated by Keynote</desc><defs><pattern id="2180C1E8-A28E-4BE9-BCE1-8BA77211AB43" patternUnits="userSpaceOnUse" width="600" height="600" viewBox="0 0 600 600"><image xlink:href="../../E762FFDA-B531-4E02-855D-32971CD8B3ED/assets/ADFEDB07BA590A41659D8979D96483E7.png" width="600.00" height="600.00"></image></pattern></defs><g transform="matrix(1.00, 0.00, -0.00, -1.00, 0.0, 108.0)"><g><clipPath id="clip0x7fad13612be0"><path d="M 0.5 37.7 L 379.9 37.7 L 379.9 107.1 L 0.5 107.1 Z M 0.5 37.7 "></path></clipPath><g clip-path="url(#clip0x7fad13612be0)"><image xlink:href="9998BF8A164F9E47B51BEFCE6F6C5111.png" width="377.00" height="67.00" transform="matrix(1.00, 0.00, -0.00, -1.01, 1.5, 106.1)" opacity="0.50"></image></g></g><g><clipPath id="clip0x7fad1353e840"><path d="M 312.0 65.0 L 312.0 43.7 L 375.9 74.4 L 312.0 105.1 L 312.0 84.0 L 5.0 84.0 L 5.0 65.0 Z M 311.9 64.6 "></path></clipPath><g clip-path="url(#clip0x7fad1353e840)"><g><clipPath id="clip0x7fad13540e80"><path d="M 0.5 37.7 L 379.9 37.7 L 379.9 107.1 L 0.5 107.1 Z M 0.5 37.7 "></path></clipPath><g clip-path="url(#clip0x7fad13540e80)"><path d="M 5.0 43.7 L 375.9 43.7 L 375.9 105.1 L 5.0 105.1 Z M 5.0 43.7 " fill="url(#2180C1E8-A28E-4BE9-BCE1-8BA77211AB43)"></path></g></g></g></g><g><clipPath id="clip0x7fad11652850"><path d="M 80.6 -4.4 L 299.8 -4.4 L 299.8 63.6 L 80.6 63.6 Z M 80.6 -4.4 "></path></clipPath><g clip-path="url(#clip0x7fad11652850)"><text xml:space="preserve" font-family="Helvetica,Helvetica" font-size="40.0" fill="#525252" transform="matrix(1.00, 0.00, -0.00, -1.00, 91.1, 14.8)">n</text><text xml:space="preserve" font-family="Helvetica,Helvetica" font-size="40.0" fill="#525252" transform="matrix(1.00, 0.00, -0.00, -1.00, 112.4, 14.8)">o</text><text xml:space="preserve" font-family="Helvetica,Helvetica" font-size="40.0" fill="#525252" transform="matrix(1.00, 0.00, -0.00, -1.00, 133.6, 14.8)">t</text><text xml:space="preserve" font-family="Helvetica,Helvetica" font-size="40.0" fill="#525252" transform="matrix(1.00, 0.00, -0.00, -1.00, 143.7, 14.8)">i</text><text xml:space="preserve" font-family="Helvetica,Helvetica" font-size="40.0" fill="#525252" transform="matrix(1.00, 0.00, -0.00, -1.00, 151.6, 14.8)">f</text><text xml:space="preserve" font-family="Helvetica,Helvetica" font-size="40.0" fill="#525252" transform="matrix(1.00, 0.00, -0.00, -1.00, 161.8, 14.8)">i</text><text xml:space="preserve" font-family="Helvetica,Helvetica" font-size="40.0" fill="#525252" transform="matrix(1.00, 0.00, -0.00, -1.00, 169.7, 14.8)">c</text><text xml:space="preserve" font-family="Helvetica,Helvetica" font-size="40.0" fill="#525252" transform="matrix(1.00, 0.00, -0.00, -1.00, 188.7, 14.8)">a</text><text xml:space="preserve" font-family="Helvetica,Helvetica" font-size="40.0" fill="#525252" transform="matrix(1.00, 0.00, -0.00, -1.00, 209.9, 14.8)">t</text><text xml:space="preserve" font-family="Helvetica,Helvetica" font-size="40.0" fill="#525252" transform="matrix(1.00, 0.00, -0.00, -1.00, 220.0, 14.8)">i</text><text xml:space="preserve" font-family="Helvetica,Helvetica" font-size="40.0" fill="#525252" transform="matrix(1.00, 0.00, -0.00, -1.00, 227.9, 14.8)">o</text><text xml:space="preserve" font-family="Helvetica,Helvetica" font-size="40.0" fill="#525252" transform="matrix(1.00, 0.00, -0.00, -1.00, 249.2, 14.8)">n</text><text xml:space="preserve" font-family="Helvetica,Helvetica" font-size="40.0" fill="#525252" transform="matrix(1.00, 0.00, -0.00, -1.00, 270.4, 14.8)">s</text></g></g></g></svg>