<?xml version="1.0" encoding="UTF-8" standalone="no"?><svg xmlns="http://www.w3.org/2000/svg" xmlns:xlink="http://www.w3.org/1999/xlink" clip-rule="evenodd" stroke-miterlimit="10" viewBox="0 0 560 186"><desc>SVG generated by Keynote</desc><defs></defs><g transform="matrix(1.00, 0.00, -0.00, -1.00, 0.0, 186.0)"><text xml:space="preserve" font-family="Helvetica,Helvetica" font-size="40.0" fill="#525252" transform="matrix(1.00, 0.00, -0.00, -1.00, 1.0, 154.4)">e</text><text xml:space="preserve" font-family="Helvetica,Helvetica" font-size="40.0" fill="#525252" transform="matrix(1.00, 0.00, -0.00, -1.00, 22.3, 154.4)">x</text><text xml:space="preserve" font-family="Helvetica,Helvetica" font-size="40.0" fill="#525252" transform="matrix(1.00, 0.00, -0.00, -1.00, 41.3, 154.4)">.</text><text xml:space="preserve" font-family="Helvetica,Helvetica" font-size="40.0" fill="#525252" transform="matrix(1.00, 0.00, -0.00, -1.00, 51.4, 154.4)"> </text><text xml:space="preserve" font-family="Helvetica,Helvetica" font-size="40.0" fill="#525252" transform="matrix(1.00, 0.00, -0.00, -1.00, 61.5, 154.4)">C</text><text xml:space="preserve" font-family="Helvetica,Helvetica" font-size="40.0" fill="#525252" transform="matrix(1.00, 0.00, -0.00, -1.00, 89.4, 154.4)">l</text><text xml:space="preserve" font-family="Helvetica,Helvetica" font-size="40.0" fill="#525252" transform="matrix(1.00, 0.00, -0.00, -1.00, 97.3, 154.4)">i</text><text xml:space="preserve" font-family="Helvetica,Helvetica" font-size="40.0" fill="#525252" transform="matrix(1.00, 0.00, -0.00, -1.00, 105.2, 154.4)">e</text><text xml:space="preserve" font-family="Helvetica,Helvetica" font-size="40.0" fill="#525252" transform="matrix(1.00, 0.00, -0.00, -1.00, 126.5, 154.4)">n</text><text xml:space="preserve" font-family="Helvetica,Helvetica" font-size="40.0" fill="#525252" transform="matrix(1.00, 0.00, -0.00, -1.00, 147.7, 154.4)">t</text><text xml:space="preserve" font-family="Helvetica,Helvetica" font-size="40.0" fill="#525252" transform="matrix(1.00, 0.00, -0.00, -1.00, 157.9, 154.4)"> </text><text xml:space="preserve" font-family="Helvetica,Helvetica" font-size="40.0" fill="#525252" transform="matrix(1.00, 0.00, -0.00, -1.00, 168.0, 154.4)">s</text><text xml:space="preserve" font-family="Helvetica,Helvetica" font-size="40.0" fill="#525252" transform="matrix(1.00, 0.00, -0.00, -1.00, 187.0, 154.4)">e</text><text xml:space="preserve" font-family="Helvetica,Helvetica" font-size="40.0" fill="#525252" transform="matrix(1.00, 0.00, -0.00, -1.00, 208.2, 154.4)">n</text><text xml:space="preserve" font-family="Helvetica,Helvetica" font-size="40.0" fill="#525252" transform="matrix(1.00, 0.00, -0.00, -1.00, 229.5, 154.4)">d</text><text xml:space="preserve" font-family="Helvetica,Helvetica" font-size="40.0" fill="#525252" transform="matrix(1.00, 0.00, -0.00, -1.00, 250.8, 154.4)"> </text><text xml:space="preserve" font-family="Helvetica,Helvetica" font-size="40.0" fill="#525252" transform="matrix(1.00, 0.00, -0.00, -1.00, 260.9, 154.4)">“</text><text xml:space="preserve" font-family="Helvetica,Helvetica" font-size="40.0" fill="#525252" transform="matrix(1.00, 0.00, -0.00, -1.00, 273.2, 154.4)">l</text><text xml:space="preserve" font-family="Helvetica,Helvetica" font-size="40.0" fill="#525252" transform="matrix(1.00, 0.00, -0.00, -1.00, 281.1, 154.4)">i</text><text xml:space="preserve" font-family="Helvetica,Helvetica" font-size="40.0" fill="#525252" transform="matrix(1.00, 0.00, -0.00, -1.00, 289.0, 154.4)">s</text><text xml:space="preserve" font-family="Helvetica,Helvetica" font-size="40.0" fill="#525252" transform="matrix(1.00, 0.00, -0.00, -1.00, 308.0, 154.4)">t</text><text xml:space="preserve" font-family="Helvetica,Helvetica" font-size="40.0" fill="#525252" transform="matrix(1.00, 0.00, -0.00, -1.00, 318.1, 154.4)">T</text><text xml:space="preserve" font-family="Helvetica,Helvetica" font-size="40.0" fill="#525252" transform="matrix(1.00, 0.00, -0.00, -1.00, 337.1, 154.4)">a</text><text xml:space="preserve" font-family="Helvetica,Helvetica" font-size="40.0" fill="#525252" transform="matrix(1.00, 0.00, -0.00, -1.00, 358.4, 154.4)">b</text><text xml:space="preserve" font-family="Helvetica,Helvetica" font-size="40.0" fill="#525252" transform="matrix(1.00, 0.00, -0.00, -1.00, 379.6, 154.4)">s</text><text xml:space="preserve" font-family="Helvetica,Helvetica" font-size="40.0" fill="#525252" transform="matrix(1.00, 0.00, -0.00, -1.00, 398.6, 154.4)">”</text><text xml:space="preserve" font-family="Helvetica,Helvetica" font-size="40.0" fill="#525252" transform="matrix(1.00, 0.00, -0.00, -1.00, 411.0, 154.4)"> </text><text xml:space="preserve" font-family="Helvetica,Helvetica" font-size="40.0" fill="#525252" transform="matrix(1.00, 0.00, -0.00, -1.00, 421.1, 154.4)">r</text><text xml:space="preserve" font-family="Helvetica,Helvetica" font-size="40.0" fill="#525252" transform="matrix(1.00, 0.00, -0.00, -1.00, 433.4, 154.4)">e</text><text xml:space="preserve" font-family="Helvetica,Helvetica" font-size="40.0" fill="#525252" transform="matrix(1.00, 0.00, -0.00, -1.00, 454.7, 154.4)">q</text><text xml:space="preserve" font-family="Helvetica,Helvetica" font-size="40.0" fill="#525252" transform="matrix(1.00, 0.00, -0.00, -1.00, 475.9, 154.4)">u</text><text xml:space="preserve" font-family="Helvetica,Helvetica" font-size="40.0" fill="#525252" transform="matrix(1.00, 0.00, -0.00, -1.00, 497.2, 154.4)">e</text><text xml:space="preserve" font-family="Helvetica,Helvetica" font-size="40.0" fill="#525252" transform="matrix(1.00, 0.00, -0.00, -1.00, 518.4, 154.4)">s</text><text xml:space="preserve" font-family="Helvetica,Helvetica" font-size="40.0" fill="#525252" transform="matrix(1.00, 0.00, -0.00, -1.00, 537.4, 154.4)">t</text><text xml:space="preserve" font-family="Helvetica,Helvetica" font-size="40.0" fill="#525252" transform="matrix(1.00, 0.00, -0.00, -1.00, 547.6, 154.4)">.</text><text xml:space="preserve" font-family="Helvetica,Helvetica" font-size="40.0" fill="#525252" transform="matrix(1.00, 0.00, -0.00, -1.00, 557.7, 154.4)"> </text><text xml:space="preserve" font-family="Helvetica,Helvetica" font-size="40.0" fill="#525252" transform="matrix(1.00, 0.00, -0.00, -1.00, 1.0, 106.4)">T</text><text xml:space="preserve" font-family="Helvetica,Helvetica" font-size="40.0" fill="#525252" transform="matrix(1.00, 0.00, -0.00, -1.00, 24.5, 106.4)">h</text><text xml:space="preserve" font-family="Helvetica,Helvetica" font-size="40.0" fill="#525252" transform="matrix(1.00, 0.00, -0.00, -1.00, 45.7, 106.4)">e</text><text xml:space="preserve" font-family="Helvetica,Helvetica" font-size="40.0" fill="#525252" transform="matrix(1.00, 0.00, -0.00, -1.00, 66.9, 106.4)"> </text><text xml:space="preserve" font-family="Helvetica,Helvetica" font-size="40.0" fill="#525252" transform="matrix(1.00, 0.00, -0.00, -1.00, 77.1, 106.4)">r</text><text xml:space="preserve" font-family="Helvetica,Helvetica" font-size="40.0" fill="#525252" transform="matrix(1.00, 0.00, -0.00, -1.00, 89.4, 106.4)">o</text><text xml:space="preserve" font-family="Helvetica,Helvetica" font-size="40.0" fill="#525252" transform="matrix(1.00, 0.00, -0.00, -1.00, 110.6, 106.4)">o</text><text xml:space="preserve" font-family="Helvetica,Helvetica" font-size="40.0" fill="#525252" transform="matrix(1.00, 0.00, -0.00, -1.00, 131.8, 106.4)">t</text><text xml:space="preserve" font-family="Helvetica,Helvetica" font-size="40.0" fill="#525252" transform="matrix(1.00, 0.00, -0.00, -1.00, 141.9, 106.4)"> </text><text xml:space="preserve" font-family="Helvetica,Helvetica" font-size="40.0" fill="#525252" transform="matrix(1.00, 0.00, -0.00, -1.00, 152.0, 106.4)">a</text><text xml:space="preserve" font-family="Helvetica,Helvetica" font-size="40.0" fill="#525252" transform="matrix(1.00, 0.00, -0.00, -1.00, 173.3, 106.4)">c</text><text xml:space="preserve" font-family="Helvetica,Helvetica" font-size="40.0" fill="#525252" transform="matrix(1.00, 0.00, -0.00, -1.00, 192.3, 106.4)">t</text><text xml:space="preserve" font-family="Helvetica,Helvetica" font-size="40.0" fill="#525252" transform="matrix(1.00, 0.00, -0.00, -1.00, 202.4, 106.4)">o</text><text xml:space="preserve" font-family="Helvetica,Helvetica" font-size="40.0" fill="#525252" transform="matrix(1.00, 0.00, -0.00, -1.00, 223.6, 106.4)">r</text><text xml:space="preserve" font-family="Helvetica,Helvetica" font-size="40.0" fill="#525252" transform="matrix(1.00, 0.00, -0.00, -1.00, 235.9, 106.4)"> </text><text xml:space="preserve" font-family="Helvetica,Helvetica" font-size="40.0" fill="#525252" transform="matrix(1.00, 0.00, -0.00, -1.00, 246.0, 106.4)">m</text><text xml:space="preserve" font-family="Helvetica,Helvetica" font-size="40.0" fill="#525252" transform="matrix(1.00, 0.00, -0.00, -1.00, 278.4, 106.4)">a</text><text xml:space="preserve" font-family="Helvetica,Helvetica" font-size="40.0" fill="#525252" transform="matrix(1.00, 0.00, -0.00, -1.00, 299.6, 106.4)">y</text><text xml:space="preserve" font-family="Helvetica,Helvetica" font-size="40.0" fill="#525252" transform="matrix(1.00, 0.00, -0.00, -1.00, 318.6, 106.4)"> </text><text xml:space="preserve" font-family="Helvetica,Helvetica" font-size="40.0" fill="#525252" transform="matrix(1.00, 0.00, -0.00, -1.00, 328.7, 106.4)">s</text><text xml:space="preserve" font-family="Helvetica,Helvetica" font-size="40.0" fill="#525252" transform="matrix(1.00, 0.00, -0.00, -1.00, 347.7, 106.4)">u</text><text xml:space="preserve" font-family="Helvetica,Helvetica" font-size="40.0" fill="#525252" transform="matrix(1.00, 0.00, -0.00, -1.00, 368.9, 106.4)">b</text><text xml:space="preserve" font-family="Helvetica,Helvetica" font-size="40.0" fill="#525252" transform="matrix(1.00, 0.00, -0.00, -1.00, 390.2, 106.4)">s</text><text xml:space="preserve" font-family="Helvetica,Helvetica" font-size="40.0" fill="#525252" transform="matrix(1.00, 0.00, -0.00, -1.00, 409.1, 106.4)">e</text><text xml:space="preserve" font-family="Helvetica,Helvetica" font-size="40.0" fill="#525252" transform="matrix(1.00, 0.00, -0.00, -1.00, 430.4, 106.4)">q</text><text xml:space="preserve" font-family="Helvetica,Helvetica" font-size="40.0" fill="#525252" transform="matrix(1.00, 0.00, -0.00, -1.00, 451.6, 106.4)">u</text><text xml:space="preserve" font-family="Helvetica,Helvetica" font-size="40.0" fill="#525252" transform="matrix(1.00, 0.00, -0.00, -1.00, 472.9, 106.4)">e</text><text xml:space="preserve" font-family="Helvetica,Helvetica" font-size="40.0" fill="#525252" transform="matrix(1.00, 0.00, -0.00, -1.00, 494.1, 106.4)">n</text><text xml:space="preserve" font-family="Helvetica,Helvetica" font-size="40.0" fill="#525252" transform="matrix(1.00, 0.00, -0.00, -1.00, 515.3, 106.4)">t</text><text xml:space="preserve" font-family="Helvetica,Helvetica" font-size="40.0" fill="#525252" transform="matrix(1.00, 0.00, -0.00, -1.00, 525.4, 106.4)">l</text><text xml:space="preserve" font-family="Helvetica,Helvetica" font-size="40.0" fill="#525252" transform="matrix(1.00, 0.00, -0.00, -1.00, 533.3, 106.4)">y</text><text xml:space="preserve" font-family="Helvetica,Helvetica" font-size="40.0" fill="#525252" transform="matrix(1.00, 0.00, -0.00, -1.00, 552.3, 106.4)"> </text><text xml:space="preserve" font-family="Helvetica,Helvetica" font-size="40.0" fill="#525252" transform="matrix(1.00, 0.00, -0.00, -1.00, 1.0, 58.4)">s</text><text xml:space="preserve" font-family="Helvetica,Helvetica" font-size="40.0" fill="#525252" transform="matrix(1.00, 0.00, -0.00, -1.00, 20.0, 58.4)">e</text><text xml:space="preserve" font-family="Helvetica,Helvetica" font-size="40.0" fill="#525252" transform="matrix(1.00, 0.00, -0.00, -1.00, 41.3, 58.4)">n</text><text xml:space="preserve" font-family="Helvetica,Helvetica" font-size="40.0" fill="#525252" transform="matrix(1.00, 0.00, -0.00, -1.00, 62.5, 58.4)">d</text><text xml:space="preserve" font-family="Helvetica,Helvetica" font-size="40.0" fill="#525252" transform="matrix(1.00, 0.00, -0.00, -1.00, 83.8, 58.4)"> </text><text xml:space="preserve" font-family="Helvetica,Helvetica" font-size="40.0" fill="#525252" transform="matrix(1.00, 0.00, -0.00, -1.00, 93.9, 58.4)">t</text><text xml:space="preserve" font-family="Helvetica,Helvetica" font-size="40.0" fill="#525252" transform="matrix(1.00, 0.00, -0.00, -1.00, 104.0, 58.4)">h</text><text xml:space="preserve" font-family="Helvetica,Helvetica" font-size="40.0" fill="#525252" transform="matrix(1.00, 0.00, -0.00, -1.00, 125.3, 58.4)">e</text><text xml:space="preserve" font-family="Helvetica,Helvetica" font-size="40.0" fill="#525252" transform="matrix(1.00, 0.00, -0.00, -1.00, 146.5, 58.4)"> </text><text xml:space="preserve" font-family="Helvetica,Helvetica" font-size="40.0" fill="#525252" transform="matrix(1.00, 0.00, -0.00, -1.00, 156.6, 58.4)">c</text><text xml:space="preserve" font-family="Helvetica,Helvetica" font-size="40.0" fill="#525252" transform="matrix(1.00, 0.00, -0.00, -1.00, 175.6, 58.4)">l</text><text xml:space="preserve" font-family="Helvetica,Helvetica" font-size="40.0" fill="#525252" transform="matrix(1.00, 0.00, -0.00, -1.00, 183.5, 58.4)">i</text><text xml:space="preserve" font-family="Helvetica,Helvetica" font-size="40.0" fill="#525252" transform="matrix(1.00, 0.00, -0.00, -1.00, 191.4, 58.4)">e</text><text xml:space="preserve" font-family="Helvetica,Helvetica" font-size="40.0" fill="#525252" transform="matrix(1.00, 0.00, -0.00, -1.00, 212.6, 58.4)">n</text><text xml:space="preserve" font-family="Helvetica,Helvetica" font-size="40.0" fill="#525252" transform="matrix(1.00, 0.00, -0.00, -1.00, 233.9, 58.4)">t</text><text xml:space="preserve" font-family="Helvetica,Helvetica" font-size="40.0" fill="#525252" transform="matrix(1.00, 0.00, -0.00, -1.00, 244.0, 58.4)"> </text><text xml:space="preserve" font-family="Helvetica,Helvetica" font-size="40.0" fill="#525252" transform="matrix(1.00, 0.00, -0.00, -1.00, 254.1, 58.4)">a</text><text xml:space="preserve" font-family="Helvetica,Helvetica" font-size="40.0" fill="#525252" transform="matrix(1.00, 0.00, -0.00, -1.00, 275.4, 58.4)"> </text><text xml:space="preserve" font-family="Helvetica,Helvetica" font-size="40.0" fill="#525252" transform="matrix(1.00, 0.00, -0.00, -1.00, 285.5, 58.4)">“</text><text xml:space="preserve" font-family="Helvetica,Helvetica" font-size="40.0" fill="#525252" transform="matrix(1.00, 0.00, -0.00, -1.00, 297.8, 58.4)">t</text><text xml:space="preserve" font-family="Helvetica,Helvetica" font-size="40.0" fill="#525252" transform="matrix(1.00, 0.00, -0.00, -1.00, 307.9, 58.4)">a</text><text xml:space="preserve" font-family="Helvetica,Helvetica" font-size="40.0" fill="#525252" transform="matrix(1.00, 0.00, -0.00, -1.00, 329.1, 58.4)">b</text><text xml:space="preserve" font-family="Helvetica,Helvetica" font-size="40.0" fill="#525252" transform="matrix(1.00, 0.00, -0.00, -1.00, 350.4, 58.4)">L</text><text xml:space="preserve" font-family="Helvetica,Helvetica" font-size="40.0" fill="#525252" transform="matrix(1.00, 0.00, -0.00, -1.00, 371.6, 58.4)">i</text><text xml:space="preserve" font-family="Helvetica,Helvetica" font-size="40.0" fill="#525252" transform="matrix(1.00, 0.00, -0.00, -1.00, 379.5, 58.4)">s</text><text xml:space="preserve" font-family="Helvetica,Helvetica" font-size="40.0" fill="#525252" transform="matrix(1.00, 0.00, -0.00, -1.00, 398.5, 58.4)">t</text><text xml:space="preserve" font-family="Helvetica,Helvetica" font-size="40.0" fill="#525252" transform="matrix(1.00, 0.00, -0.00, -1.00, 408.6, 58.4)">C</text><text xml:space="preserve" font-family="Helvetica,Helvetica" font-size="40.0" fill="#525252" transform="matrix(1.00, 0.00, -0.00, -1.00, 436.5, 58.4)">h</text><text xml:space="preserve" font-family="Helvetica,Helvetica" font-size="40.0" fill="#525252" transform="matrix(1.00, 0.00, -0.00, -1.00, 457.8, 58.4)">a</text><text xml:space="preserve" font-family="Helvetica,Helvetica" font-size="40.0" fill="#525252" transform="matrix(1.00, 0.00, -0.00, -1.00, 479.0, 58.4)">n</text><text xml:space="preserve" font-family="Helvetica,Helvetica" font-size="40.0" fill="#525252" transform="matrix(1.00, 0.00, -0.00, -1.00, 500.3, 58.4)">g</text><text xml:space="preserve" font-family="Helvetica,Helvetica" font-size="40.0" fill="#525252" transform="matrix(1.00, 0.00, -0.00, -1.00, 521.5, 58.4)">e</text><text xml:space="preserve" font-family="Helvetica,Helvetica" font-size="40.0" fill="#525252" transform="matrix(1.00, 0.00, -0.00, -1.00, 542.8, 58.4)">”</text><text xml:space="preserve" font-family="Helvetica,Helvetica" font-size="40.0" fill="#525252" transform="matrix(1.00, 0.00, -0.00, -1.00, 555.1, 58.4)"> </text><text xml:space="preserve" font-family="Helvetica,Helvetica" font-size="40.0" fill="#525252" transform="matrix(1.00, 0.00, -0.00, -1.00, 1.0, 10.4)">n</text><text xml:space="preserve" font-family="Helvetica,Helvetica" font-size="40.0" fill="#525252" transform="matrix(1.00, 0.00, -0.00, -1.00, 22.3, 10.4)">o</text><text xml:space="preserve" font-family="Helvetica,Helvetica" font-size="40.0" fill="#525252" transform="matrix(1.00, 0.00, -0.00, -1.00, 43.6, 10.4)">t</text><text xml:space="preserve" font-family="Helvetica,Helvetica" font-size="40.0" fill="#525252" transform="matrix(1.00, 0.00, -0.00, -1.00, 53.7, 10.4)">i</text><text xml:space="preserve" font-family="Helvetica,Helvetica" font-size="40.0" fill="#525252" transform="matrix(1.00, 0.00, -0.00, -1.00, 61.6, 10.4)">f</text><text xml:space="preserve" font-family="Helvetica,Helvetica" font-size="40.0" fill="#525252" transform="matrix(1.00, 0.00, -0.00, -1.00, 71.7, 10.4)">i</text><text xml:space="preserve" font-family="Helvetica,Helvetica" font-size="40.0" fill="#525252" transform="matrix(1.00, 0.00, -0.00, -1.00, 79.6, 10.4)">c</text><text xml:space="preserve" font-family="Helvetica,Helvetica" font-size="40.0" fill="#525252" transform="matrix(1.00, 0.00, -0.00, -1.00, 98.6, 10.4)">a</text><text xml:space="preserve" font-family="Helvetica,Helvetica" font-size="40.0" fill="#525252" transform="matrix(1.00, 0.00, -0.00, -1.00, 119.8, 10.4)">t</text><text xml:space="preserve" font-family="Helvetica,Helvetica" font-size="40.0" fill="#525252" transform="matrix(1.00, 0.00, -0.00, -1.00, 130.0, 10.4)">i</text><text xml:space="preserve" font-family="Helvetica,Helvetica" font-size="40.0" fill="#525252" transform="matrix(1.00, 0.00, -0.00, -1.00, 137.9, 10.4)">o</text><text xml:space="preserve" font-family="Helvetica,Helvetica" font-size="40.0" fill="#525252" transform="matrix(1.00, 0.00, -0.00, -1.00, 159.1, 10.4)">n</text><text xml:space="preserve" font-family="Helvetica,Helvetica" font-size="40.0" fill="#525252" transform="matrix(1.00, 0.00, -0.00, -1.00, 180.4, 10.4)"> </text><text xml:space="preserve" font-family="Helvetica,Helvetica" font-size="40.0" fill="#525252" transform="matrix(1.00, 0.00, -0.00, -1.00, 190.5, 10.4)">p</text><text xml:space="preserve" font-family="Helvetica,Helvetica" font-size="40.0" fill="#525252" transform="matrix(1.00, 0.00, -0.00, -1.00, 211.7, 10.4)">a</text><text xml:space="preserve" font-family="Helvetica,Helvetica" font-size="40.0" fill="#525252" transform="matrix(1.00, 0.00, -0.00, -1.00, 233.0, 10.4)">c</text><text xml:space="preserve" font-family="Helvetica,Helvetica" font-size="40.0" fill="#525252" transform="matrix(1.00, 0.00, -0.00, -1.00, 252.0, 10.4)">k</text><text xml:space="preserve" font-family="Helvetica,Helvetica" font-size="40.0" fill="#525252" transform="matrix(1.00, 0.00, -0.00, -1.00, 271.0, 10.4)">e</text><text xml:space="preserve" font-family="Helvetica,Helvetica" font-size="40.0" fill="#525252" transform="matrix(1.00, 0.00, -0.00, -1.00, 292.3, 10.4)">t</text></g></svg>