<?xml version="1.0" encoding="UTF-8" standalone="no"?><svg xmlns="http://www.w3.org/2000/svg" xmlns:xlink="http://www.w3.org/1999/xlink" clip-rule="evenodd" stroke-miterlimit="10" viewBox="0 0 380 103"><desc>SVG generated by Keynote</desc><defs><pattern id="2E0854DE-D82C-4E02-9D1D-6A07A733ADEA" patternUnits="userSpaceOnUse" width="600" height="600" viewBox="0 0 600 600"><image xlink:href="../../E762FFDA-B531-4E02-855D-32971CD8B3ED/assets/ADFEDB07BA590A41659D8979D96483E7.png" width="600.00" height="600.00"></image></pattern></defs><g transform="matrix(1.00, 0.00, -0.00, -1.00, 0.0, 103.0)"><g><clipPath id="clip0x7fad1353dfc0"><path d="M 0.5 33.5 L 379.9 33.5 L 379.9 102.9 L 0.5 102.9 Z M 0.5 33.5 "></path></clipPath><g clip-path="url(#clip0x7fad1353dfc0)"><image xlink:href="06D105E759FCE27636AC98C8EECC2468.png" width="377.00" height="67.00" transform="matrix(1.00, 0.00, -0.00, -1.01, 1.5, 101.9)" opacity="0.50"></image></g></g><g><clipPath id="clip0x7fad135404b0"><path d="M 312.0 60.0 L 312.0 39.5 L 375.9 70.2 L 312.0 100.9 L 312.0 80.0 L 5.0 80.0 L 5.0 60.0 Z M 311.9 60.4 "></path></clipPath><g clip-path="url(#clip0x7fad135404b0)"><g><clipPath id="clip0x7fad1353f700"><path d="M 0.5 33.5 L 379.9 33.5 L 379.9 102.9 L 0.5 102.9 Z M 0.5 33.5 "></path></clipPath><g clip-path="url(#clip0x7fad1353f700)"><path d="M 5.0 39.5 L 375.9 39.5 L 375.9 100.9 L 5.0 100.9 Z M 5.0 39.5 " fill="url(#2E0854DE-D82C-4E02-9D1D-6A07A733ADEA)"></path></g></g></g></g><g><clipPath id="clip0x7fad13541f80"><path d="M 138.9 -4.3 L 241.6 -4.3 L 241.6 63.7 L 138.9 63.7 Z M 138.9 -4.3 "></path></clipPath><g clip-path="url(#clip0x7fad13541f80)"><text xml:space="preserve" font-family="Helvetica,Helvetica" font-size="40.0" fill="#525252" transform="matrix(1.00, 0.00, -0.00, -1.00, 149.4, 14.9)">r</text><text xml:space="preserve" font-family="Helvetica,Helvetica" font-size="40.0" fill="#525252" transform="matrix(1.00, 0.00, -0.00, -1.00, 161.7, 14.9)">e</text><text xml:space="preserve" font-family="Helvetica,Helvetica" font-size="40.0" fill="#525252" transform="matrix(1.00, 0.00, -0.00, -1.00, 182.9, 14.9)">p</text><text xml:space="preserve" font-family="Helvetica,Helvetica" font-size="40.0" fill="#525252" transform="matrix(1.00, 0.00, -0.00, -1.00, 204.2, 14.9)">l</text><text xml:space="preserve" font-family="Helvetica,Helvetica" font-size="40.0" fill="#525252" transform="matrix(1.00, 0.00, -0.00, -1.00, 212.1, 14.9)">y</text></g></g></g></svg>