<?xml version="1.0" encoding="UTF-8" standalone="no"?><svg xmlns="http://www.w3.org/2000/svg" xmlns:xlink="http://www.w3.org/1999/xlink" clip-rule="evenodd" stroke-miterlimit="10" viewBox="0 0 152 155"><desc>SVG generated by Keynote</desc><defs></defs><g transform="matrix(1.00, 0.00, -0.00, -1.00, 0.0, 155.0)"><g><clipPath id="clip0x7fad0fd415f0"><path d="M 23.6 46.1 L 131.6 46.1 L 131.6 154.1 L 23.6 154.1 Z M 23.6 46.1 "></path></clipPath><g clip-path="url(#clip0x7fad0fd415f0)"><image xlink:href="23B346EDAC772092CFACFF29C29174B7.png" width="106.00" height="106.00" transform="matrix(1.00, 0.00, -0.00, -1.00, 24.6, 153.1)" opacity="0.50"></image></g></g><g><clipPath id="clip0x7fad0fa05400"><path d="M 28.0 152.0 L 128.0 152.0 L 128.0 52.0 L 28.0 52.0 Z M 27.6 152.1 "></path></clipPath><g clip-path="url(#clip0x7fad0fa05400)"><g><clipPath id="clip0x7fad0fa05b70"><path d="M 23.6 46.1 L 131.6 46.1 L 131.6 154.1 L 23.6 154.1 Z M 23.6 46.1 "></path></clipPath><g clip-path="url(#clip0x7fad0fa05b70)"><image xlink:href="../../27FC78CF-AF69-4AEC-9347-5C015BE30FA0/assets/1DCD970325A402F83F095B3789B6FDC2.png" width="600.00" height="600.00" transform="matrix(0.50, 0.00, -0.00, -0.50, 28.0, 152.0)"></image></g></g></g></g><g><clipPath id="clip0x7fad0feeddb0"><path d="M 17.4 52.1 L 137.8 52.1 L 137.8 152.1 L 17.4 152.1 Z M 17.4 52.1 "></path></clipPath><g clip-path="url(#clip0x7fad0feeddb0)"><text xml:space="preserve" font-family="GillSans-Light,Gill Sans" font-size="50.0" fill="#FEFFFF" transform="matrix(1.00, 0.00, -0.00, -1.00, 62.0, 85.1)">I</text><text xml:space="preserve" font-family="GillSans-Light,Gill Sans" font-size="50.0" fill="#FEFFFF" transform="matrix(1.00, 0.00, -0.00, -1.00, 72.4, 85.1)">I</text><text xml:space="preserve" font-family="GillSans-Light,Gill Sans" font-size="50.0" fill="#FEFFFF" transform="matrix(1.00, 0.00, -0.00, -1.00, 82.8, 85.1)">I</text></g></g><g><clipPath id="clip0x7fad0fef2710"><path d="M -2.2 -2.1 L 154.3 -2.1 L 154.3 48.9 L -2.2 48.9 Z M -2.2 -2.1 "></path></clipPath><g clip-path="url(#clip0x7fad0fef2710)"><text xml:space="preserve" font-family="Helvetica,Helvetica" font-size="30.0" fill="#525252" transform="matrix(1.00, 0.00, -0.00, -1.00, 5.8, 12.3)">l</text><text xml:space="preserve" font-family="Helvetica,Helvetica" font-size="30.0" fill="#525252" transform="matrix(1.00, 0.00, -0.00, -1.00, 11.7, 12.3)">a</text><text xml:space="preserve" font-family="Helvetica,Helvetica" font-size="30.0" fill="#525252" transform="matrix(1.00, 0.00, -0.00, -1.00, 27.6, 12.3)">y</text><text xml:space="preserve" font-family="Helvetica,Helvetica" font-size="30.0" fill="#525252" transform="matrix(1.00, 0.00, -0.00, -1.00, 41.9, 12.3)">e</text><text xml:space="preserve" font-family="Helvetica,Helvetica" font-size="30.0" fill="#525252" transform="matrix(1.00, 0.00, -0.00, -1.00, 57.8, 12.3)">r</text><text xml:space="preserve" font-family="Helvetica,Helvetica" font-size="30.0" fill="#525252" transform="matrix(1.00, 0.00, -0.00, -1.00, 67.1, 12.3)"> </text><text xml:space="preserve" font-family="Helvetica,Helvetica" font-size="30.0" fill="#525252" transform="matrix(1.00, 0.00, -0.00, -1.00, 74.7, 12.3)">b</text><text xml:space="preserve" font-family="Helvetica,Helvetica" font-size="30.0" fill="#525252" transform="matrix(1.00, 0.00, -0.00, -1.00, 90.6, 12.3)">u</text><text xml:space="preserve" font-family="Helvetica,Helvetica" font-size="30.0" fill="#525252" transform="matrix(1.00, 0.00, -0.00, -1.00, 106.6, 12.3)">f</text><text xml:space="preserve" font-family="Helvetica,Helvetica" font-size="30.0" fill="#525252" transform="matrix(1.00, 0.00, -0.00, -1.00, 113.6, 12.3)">f</text><text xml:space="preserve" font-family="Helvetica,Helvetica" font-size="30.0" fill="#525252" transform="matrix(1.00, 0.00, -0.00, -1.00, 121.2, 12.3)">e</text><text xml:space="preserve" font-family="Helvetica,Helvetica" font-size="30.0" fill="#525252" transform="matrix(1.00, 0.00, -0.00, -1.00, 137.1, 12.3)">r</text></g></g></g></svg>