<?xml version="1.0" encoding="UTF-8" standalone="no"?><svg xmlns="http://www.w3.org/2000/svg" xmlns:xlink="http://www.w3.org/1999/xlink" clip-rule="evenodd" stroke-miterlimit="10" viewBox="0 0 248 48"><desc>SVG generated by Keynote</desc><defs></defs><g transform="matrix(1.00, 0.00, -0.00, -1.00, 0.0, 48.0)"><text xml:space="preserve" font-family="Helvetica,Helvetica" font-size="58.0" fill="#525252" transform="matrix(1.00, 0.00, -0.00, -1.00, 1.1, 2.6)">W</text><text xml:space="preserve" font-family="Helvetica,Helvetica" font-size="58.0" fill="#525252" transform="matrix(1.00, 0.00, -0.00, -1.00, 54.4, 2.6)">S</text><text xml:space="preserve" font-family="Helvetica,Helvetica" font-size="58.0" fill="#525252" transform="matrix(1.00, 0.00, -0.00, -1.00, 91.6, 2.6)"> </text><text xml:space="preserve" font-family="Helvetica,Helvetica" font-size="58.0" fill="#525252" transform="matrix(1.00, 0.00, -0.00, -1.00, 106.3, 2.6)">C</text><text xml:space="preserve" font-family="Helvetica,Helvetica" font-size="58.0" fill="#525252" transform="matrix(1.00, 0.00, -0.00, -1.00, 146.7, 2.6)">l</text><text xml:space="preserve" font-family="Helvetica,Helvetica" font-size="58.0" fill="#525252" transform="matrix(1.00, 0.00, -0.00, -1.00, 158.1, 2.6)">i</text><text xml:space="preserve" font-family="Helvetica,Helvetica" font-size="58.0" fill="#525252" transform="matrix(1.00, 0.00, -0.00, -1.00, 169.5, 2.6)">e</text><text xml:space="preserve" font-family="Helvetica,Helvetica" font-size="58.0" fill="#525252" transform="matrix(1.00, 0.00, -0.00, -1.00, 200.3, 2.6)">n</text><text xml:space="preserve" font-family="Helvetica,Helvetica" font-size="58.0" fill="#525252" transform="matrix(1.00, 0.00, -0.00, -1.00, 231.1, 2.6)">t</text></g></svg>