<?xml version="1.0" encoding="UTF-8" standalone="no"?><svg xmlns="http://www.w3.org/2000/svg" xmlns:xlink="http://www.w3.org/1999/xlink" clip-rule="evenodd" stroke-miterlimit="10" viewBox="0 0 147 155"><desc>SVG generated by Keynote</desc><defs></defs><g transform="matrix(1.00, 0.00, -0.00, -1.00, 0.0, 155.0)"><g><clipPath id="clip0x7fad0fee9f70"><path d="M 19.1 46.1 L 127.1 46.1 L 127.1 154.1 L 19.1 154.1 Z M 19.1 46.1 "></path></clipPath><g clip-path="url(#clip0x7fad0fee9f70)"><image xlink:href="61B6B6ABF9C57449314E4F2DB7CBC592.png" width="106.00" height="106.00" transform="matrix(1.00, 0.00, -0.00, -1.00, 20.1, 153.1)" opacity="0.50"></image></g></g><g><clipPath id="clip0x7fad0feec0f0"><path d="M 23.0 152.0 L 123.0 152.0 L 123.0 52.0 L 23.0 52.0 Z M 23.1 152.1 "></path></clipPath><g clip-path="url(#clip0x7fad0feec0f0)"><g><clipPath id="clip0x7fad0feec8e0"><path d="M 19.1 46.1 L 127.1 46.1 L 127.1 154.1 L 19.1 154.1 Z M 19.1 46.1 "></path></clipPath><g clip-path="url(#clip0x7fad0feec8e0)"><image xlink:href="../../27FC78CF-AF69-4AEC-9347-5C015BE30FA0/assets/1DCD970325A402F83F095B3789B6FDC2.png" width="600.00" height="600.00" transform="matrix(0.50, 0.00, -0.00, -0.50, 23.0, 152.0)"></image></g></g></g></g><g><clipPath id="clip0x7fad0df31d10"><path d="M 12.9 52.1 L 133.3 52.1 L 133.3 152.1 L 12.9 152.1 Z M 12.9 52.1 "></path></clipPath><g clip-path="url(#clip0x7fad0df31d10)"><text xml:space="preserve" font-family="GillSans-Light,Gill Sans" font-size="50.0" fill="#FEFFFF" transform="matrix(1.00, 0.00, -0.00, -1.00, 60.6, 85.1)">1</text></g></g><g><clipPath id="clip0x7fad0df336f0"><path d="M -2.4 -2.1 L 148.7 -2.1 L 148.7 48.9 L -2.4 48.9 Z M -2.4 -2.1 "></path></clipPath><g clip-path="url(#clip0x7fad0df336f0)"><text xml:space="preserve" font-family="Helvetica,Helvetica" font-size="30.0" fill="#525252" transform="matrix(1.00, 0.00, -0.00, -1.00, 5.6, 12.3)">f</text><text xml:space="preserve" font-family="Helvetica,Helvetica" font-size="30.0" fill="#525252" transform="matrix(1.00, 0.00, -0.00, -1.00, 13.1, 12.3)">r</text><text xml:space="preserve" font-family="Helvetica,Helvetica" font-size="30.0" fill="#525252" transform="matrix(1.00, 0.00, -0.00, -1.00, 22.4, 12.3)">a</text><text xml:space="preserve" font-family="Helvetica,Helvetica" font-size="30.0" fill="#525252" transform="matrix(1.00, 0.00, -0.00, -1.00, 38.3, 12.3)">m</text><text xml:space="preserve" font-family="Helvetica,Helvetica" font-size="30.0" fill="#525252" transform="matrix(1.00, 0.00, -0.00, -1.00, 62.5, 12.3)">e</text><text xml:space="preserve" font-family="Helvetica,Helvetica" font-size="30.0" fill="#525252" transform="matrix(1.00, 0.00, -0.00, -1.00, 78.5, 12.3)"> </text><text xml:space="preserve" font-family="Helvetica,Helvetica" font-size="30.0" fill="#525252" transform="matrix(1.00, 0.00, -0.00, -1.00, 86.0, 12.3)">s</text><text xml:space="preserve" font-family="Helvetica,Helvetica" font-size="30.0" fill="#525252" transform="matrix(1.00, 0.00, -0.00, -1.00, 100.3, 12.3)">t</text><text xml:space="preserve" font-family="Helvetica,Helvetica" font-size="30.0" fill="#525252" transform="matrix(1.00, 0.00, -0.00, -1.00, 107.9, 12.3)">a</text><text xml:space="preserve" font-family="Helvetica,Helvetica" font-size="30.0" fill="#525252" transform="matrix(1.00, 0.00, -0.00, -1.00, 123.8, 12.3)">r</text><text xml:space="preserve" font-family="Helvetica,Helvetica" font-size="30.0" fill="#525252" transform="matrix(1.00, 0.00, -0.00, -1.00, 133.0, 12.3)">t</text></g></g></g></svg>