<?xml version="1.0" encoding="UTF-8" standalone="no"?><svg xmlns="http://www.w3.org/2000/svg" xmlns:xlink="http://www.w3.org/1999/xlink" clip-rule="evenodd" stroke-miterlimit="10" viewBox="0 0 130 155"><desc>SVG generated by Keynote</desc><defs></defs><g transform="matrix(1.00, 0.00, -0.00, -1.00, 0.0, 155.0)"><g><clipPath id="clip0x7fad0fd3c830"><path d="M 10.9 46.1 L 118.9 46.1 L 118.9 154.1 L 10.9 154.1 Z M 10.9 46.1 "></path></clipPath><g clip-path="url(#clip0x7fad0fd3c830)"><image xlink:href="86075A51D9187D92BED2F4344929D6A8.png" width="106.00" height="106.00" transform="matrix(1.00, 0.00, -0.00, -1.00, 11.9, 153.1)" opacity="0.50"></image></g></g><g><clipPath id="clip0x7fad0feea830"><path d="M 15.0 152.0 L 115.0 152.0 L 115.0 52.0 L 15.0 52.0 Z M 14.9 152.1 "></path></clipPath><g clip-path="url(#clip0x7fad0feea830)"><g><clipPath id="clip0x7fad0fee9320"><path d="M 10.9 46.1 L 118.9 46.1 L 118.9 154.1 L 10.9 154.1 Z M 10.9 46.1 "></path></clipPath><g clip-path="url(#clip0x7fad0fee9320)"><image xlink:href="../../27FC78CF-AF69-4AEC-9347-5C015BE30FA0/assets/1DCD970325A402F83F095B3789B6FDC2.png" width="600.00" height="600.00" transform="matrix(0.50, 0.00, -0.00, -0.50, 15.0, 152.0)"></image></g></g></g></g><g><clipPath id="clip0x7fad0dedd5b0"><path d="M 4.7 52.1 L 125.1 52.1 L 125.1 152.1 L 4.7 152.1 Z M 4.7 52.1 "></path></clipPath><g clip-path="url(#clip0x7fad0dedd5b0)"><text xml:space="preserve" font-family="GillSans-Light,Gill Sans" font-size="50.0" fill="#FEFFFF" transform="matrix(1.00, 0.00, -0.00, -1.00, 54.5, 85.1)">I</text><text xml:space="preserve" font-family="GillSans-Light,Gill Sans" font-size="50.0" fill="#FEFFFF" transform="matrix(1.00, 0.00, -0.00, -1.00, 64.9, 85.1)">I</text></g></g><g><clipPath id="clip0x7fad0f98ba80"><path d="M -1.8 -2.1 L 131.7 -2.1 L 131.7 48.9 L -1.8 48.9 Z M -1.8 -2.1 "></path></clipPath><g clip-path="url(#clip0x7fad0f98ba80)"><text xml:space="preserve" font-family="Helvetica,Helvetica" font-size="30.0" fill="#525252" transform="matrix(1.00, 0.00, -0.00, -1.00, 6.2, 12.3)">l</text><text xml:space="preserve" font-family="Helvetica,Helvetica" font-size="30.0" fill="#525252" transform="matrix(1.00, 0.00, -0.00, -1.00, 12.1, 12.3)">a</text><text xml:space="preserve" font-family="Helvetica,Helvetica" font-size="30.0" fill="#525252" transform="matrix(1.00, 0.00, -0.00, -1.00, 28.0, 12.3)">y</text><text xml:space="preserve" font-family="Helvetica,Helvetica" font-size="30.0" fill="#525252" transform="matrix(1.00, 0.00, -0.00, -1.00, 42.3, 12.3)">e</text><text xml:space="preserve" font-family="Helvetica,Helvetica" font-size="30.0" fill="#525252" transform="matrix(1.00, 0.00, -0.00, -1.00, 58.2, 12.3)">r</text><text xml:space="preserve" font-family="Helvetica,Helvetica" font-size="30.0" fill="#525252" transform="matrix(1.00, 0.00, -0.00, -1.00, 67.5, 12.3)"> </text><text xml:space="preserve" font-family="Helvetica,Helvetica" font-size="30.0" fill="#525252" transform="matrix(1.00, 0.00, -0.00, -1.00, 75.1, 12.3)">t</text><text xml:space="preserve" font-family="Helvetica,Helvetica" font-size="30.0" fill="#525252" transform="matrix(1.00, 0.00, -0.00, -1.00, 82.7, 12.3)">r</text><text xml:space="preserve" font-family="Helvetica,Helvetica" font-size="30.0" fill="#525252" transform="matrix(1.00, 0.00, -0.00, -1.00, 91.9, 12.3)">e</text><text xml:space="preserve" font-family="Helvetica,Helvetica" font-size="30.0" fill="#525252" transform="matrix(1.00, 0.00, -0.00, -1.00, 107.8, 12.3)">e</text></g></g></g></svg>