<?xml version="1.0" encoding="UTF-8" standalone="no"?><svg xmlns="http://www.w3.org/2000/svg" xmlns:xlink="http://www.w3.org/1999/xlink" clip-rule="evenodd" stroke-miterlimit="10" viewBox="0 0 1920 1080"><desc>SVG generated by Keynote</desc><defs></defs><g transform="matrix(1.00, 0.00, -0.00, -1.00, 0.0, 1080.0)"><g><clipPath id="clip0x7fad15404240"><path d="M 0.0 1080.0 L 1920.0 1080.0 L 1920.0 0.0 L 0.0 0.0 Z M 0.0 1080.0 "></path></clipPath><g clip-path="url(#clip0x7fad15404240)"><image xlink:href="../../6E59E501-5AC6-43A6-BE5B-2CF2B6D53CE4/assets/C8AF8D5373B240750928713C158CDCE7.png" width="1280.00" height="1024.00" transform="matrix(1.50, 0.00, -0.00, -1.05, 0.0, 1080.0)"></image></g></g><image xlink:href="../../6E59E501-5AC6-43A6-BE5B-2CF2B6D53CE4/assets/8A87A3B5F2651CC804842E862E028977.png" width="153.00" height="41.00" transform="matrix(0.95, 0.00, -0.00, -0.95, 1725.0, 1080.0)"></image><g><clipPath id="clip0x7fad15407460"><path d="M 475.0 944.0 L 1446.0 944.0 L 1446.0 396.0 L 475.0 396.0 Z M 474.6 944.0 "></path></clipPath><g clip-path="url(#clip0x7fad15407460)"><image xlink:href="0C32C0277AE9707B1A00AD8F150A792D.png" width="1150.00" height="651.00" transform="matrix(0.84, 0.00, -0.00, -0.84, 475.0, 946.0)"></image></g></g><text xml:space="preserve" font-family="Helvetica,Helvetica" font-size="88.0" fill="#3E3E3E" transform="matrix(1.00, 0.00, -0.00, -1.00, 782.0, 154.2)">T</text><text xml:space="preserve" font-family="Helvetica,Helvetica" font-size="88.0" fill="#3E3E3E" transform="matrix(1.00, 0.00, -0.00, -1.00, 835.8, 154.2)">H</text><text xml:space="preserve" font-family="Helvetica,Helvetica" font-size="88.0" fill="#3E3E3E" transform="matrix(1.00, 0.00, -0.00, -1.00, 899.3, 154.2)">A</text><text xml:space="preserve" font-family="Helvetica,Helvetica" font-size="88.0" fill="#3E3E3E" transform="matrix(1.00, 0.00, -0.00, -1.00, 958.0, 154.2)">N</text><text xml:space="preserve" font-family="Helvetica,Helvetica" font-size="88.0" fill="#3E3E3E" transform="matrix(1.00, 0.00, -0.00, -1.00, 1021.6, 154.2)">K</text><text xml:space="preserve" font-family="Helvetica,Helvetica" font-size="88.0" fill="#3E3E3E" transform="matrix(1.00, 0.00, -0.00, -1.00, 1080.3, 154.2)">S</text><text xml:space="preserve" font-family="GillSans-Light,Gill Sans" font-size="24.0" fill="#525252" transform="matrix(1.00, 0.00, -0.00, -1.00, 948.5, 24.7)">4</text><text xml:space="preserve" font-family="GillSans-Light,Gill Sans" font-size="24.0" fill="#525252" transform="matrix(1.00, 0.00, -0.00, -1.00, 960.5, 24.7)">0</text></g></svg>