<?xml version="1.0" encoding="UTF-8" standalone="no"?><svg xmlns="http://www.w3.org/2000/svg" xmlns:xlink="http://www.w3.org/1999/xlink" clip-rule="evenodd" stroke-miterlimit="10" viewBox="0 0 1920 1200"><desc>SVG generated by Keynote</desc><defs></defs><g transform="matrix(1.00, 0.00, -0.00, -1.00, 0.0, 1200.0)"><path d="M 0.0 1200.0 L 1920.0 1200.0 L 1920.0 0.0 L 0.0 0.0 Z M 0.0 1200.0 " fill="#FEFFFF"></path><g><clipPath id="clip0x7fa624329c00"><path d="M 355.8 598.2 L 1564.2 598.2 L 1564.2 953.0 L 355.8 953.0 Z M 355.8 598.2 "></path></clipPath><g clip-path="url(#clip0x7fa624329c00)"><text xml:space="preserve" font-family="Helvetica-Light,Helvetica" font-size="122.0" fill="#000000" transform="matrix(1.00, 0.00, -0.00, -1.00, 578.1, 626.0)">C</text><text xml:space="preserve" font-family="Helvetica-Light,Helvetica" font-size="122.0" fill="#000000" transform="matrix(1.00, 0.00, -0.00, -1.00, 666.2, 626.0)">l</text><text xml:space="preserve" font-family="Helvetica-Light,Helvetica" font-size="122.0" fill="#000000" transform="matrix(1.00, 0.00, -0.00, -1.00, 693.3, 626.0)">i</text><text xml:space="preserve" font-family="Helvetica-Light,Helvetica" font-size="122.0" fill="#000000" transform="matrix(1.00, 0.00, -0.00, -1.00, 720.4, 626.0)">p</text><text xml:space="preserve" font-family="Helvetica-Light,Helvetica" font-size="122.0" fill="#000000" transform="matrix(1.00, 0.00, -0.00, -1.00, 794.9, 626.0)">b</text><text xml:space="preserve" font-family="Helvetica-Light,Helvetica" font-size="122.0" fill="#000000" transform="matrix(1.00, 0.00, -0.00, -1.00, 869.5, 626.0)">o</text><text xml:space="preserve" font-family="Helvetica-Light,Helvetica" font-size="122.0" fill="#000000" transform="matrix(1.00, 0.00, -0.00, -1.00, 937.3, 626.0)">a</text><text xml:space="preserve" font-family="Helvetica-Light,Helvetica" font-size="122.0" fill="#000000" transform="matrix(1.00, 0.00, -0.00, -1.00, 1005.1, 626.0)">r</text><text xml:space="preserve" font-family="Helvetica-Light,Helvetica" font-size="122.0" fill="#000000" transform="matrix(1.00, 0.00, -0.00, -1.00, 1043.6, 626.0)">d</text><text xml:space="preserve" font-family="Helvetica-Light,Helvetica" font-size="122.0" fill="#000000" transform="matrix(1.00, 0.00, -0.00, -1.00, 1118.1, 626.0)"> </text><text xml:space="preserve" font-family="Helvetica-Light,Helvetica" font-size="122.0" fill="#000000" transform="matrix(1.00, 0.00, -0.00, -1.00, 1152.0, 626.0)">A</text><text xml:space="preserve" font-family="Helvetica-Light,Helvetica" font-size="122.0" fill="#000000" transform="matrix(1.00, 0.00, -0.00, -1.00, 1233.4, 626.0)">P</text><text xml:space="preserve" font-family="Helvetica-Light,Helvetica" font-size="122.0" fill="#000000" transform="matrix(1.00, 0.00, -0.00, -1.00, 1307.9, 626.0)">I</text></g></g><text xml:space="preserve" font-family="Helvetica-Light,Helvetica" font-size="48.0" fill="#000000" transform="matrix(1.00, 0.00, -0.00, -1.00, 761.3, 530.5)">I</text><text xml:space="preserve" font-family="Helvetica-Light,Helvetica" font-size="48.0" fill="#000000" transform="matrix(1.00, 0.00, -0.00, -1.00, 774.6, 530.5)">m</text><text xml:space="preserve" font-family="Helvetica-Light,Helvetica" font-size="48.0" fill="#000000" transform="matrix(1.00, 0.00, -0.00, -1.00, 814.6, 530.5)">a</text><text xml:space="preserve" font-family="Helvetica-Light,Helvetica" font-size="48.0" fill="#000000" transform="matrix(1.00, 0.00, -0.00, -1.00, 841.3, 530.5)">g</text><text xml:space="preserve" font-family="Helvetica-Light,Helvetica" font-size="48.0" fill="#000000" transform="matrix(1.00, 0.00, -0.00, -1.00, 870.6, 530.5)">e</text><text xml:space="preserve" font-family="Helvetica-Light,Helvetica" font-size="48.0" fill="#000000" transform="matrix(1.00, 0.00, -0.00, -1.00, 897.3, 530.5)"> </text><text xml:space="preserve" font-family="Helvetica-Light,Helvetica" font-size="48.0" fill="#000000" transform="matrix(1.00, 0.00, -0.00, -1.00, 910.7, 530.5)">C</text><text xml:space="preserve" font-family="Helvetica-Light,Helvetica" font-size="48.0" fill="#000000" transform="matrix(1.00, 0.00, -0.00, -1.00, 945.3, 530.5)">o</text><text xml:space="preserve" font-family="Helvetica-Light,Helvetica" font-size="48.0" fill="#000000" transform="matrix(1.00, 0.00, -0.00, -1.00, 972.0, 530.5)">p</text><text xml:space="preserve" font-family="Helvetica-Light,Helvetica" font-size="48.0" fill="#000000" transform="matrix(1.00, 0.00, -0.00, -1.00, 1001.3, 530.5)">y</text><text xml:space="preserve" font-family="Helvetica-Light,Helvetica" font-size="48.0" fill="#000000" transform="matrix(1.00, 0.00, -0.00, -1.00, 1025.3, 530.5)">/</text><text xml:space="preserve" font-family="Helvetica-Light,Helvetica" font-size="48.0" fill="#000000" transform="matrix(1.00, 0.00, -0.00, -1.00, 1038.7, 530.5)">P</text><text xml:space="preserve" font-family="Helvetica-Light,Helvetica" font-size="48.0" fill="#000000" transform="matrix(1.00, 0.00, -0.00, -1.00, 1068.0, 530.5)">a</text><text xml:space="preserve" font-family="Helvetica-Light,Helvetica" font-size="48.0" fill="#000000" transform="matrix(1.00, 0.00, -0.00, -1.00, 1094.7, 530.5)">s</text><text xml:space="preserve" font-family="Helvetica-Light,Helvetica" font-size="48.0" fill="#000000" transform="matrix(1.00, 0.00, -0.00, -1.00, 1118.7, 530.5)">t</text><text xml:space="preserve" font-family="Helvetica-Light,Helvetica" font-size="48.0" fill="#000000" transform="matrix(1.00, 0.00, -0.00, -1.00, 1132.0, 530.5)">e</text></g></svg>