<?xml version="1.0" encoding="UTF-8" standalone="no"?><svg xmlns="http://www.w3.org/2000/svg" xmlns:xlink="http://www.w3.org/1999/xlink" clip-rule="evenodd" stroke-miterlimit="10" viewBox="0 0 1920 1080"><desc>SVG generated by Keynote</desc><defs></defs><g transform="matrix(1.00, 0.00, -0.00, -1.00, 0.0, 1080.0)"><g><clipPath id="clip0x7fad15292260"><path d="M 0.0 1080.0 L 1920.0 1080.0 L 1920.0 0.0 L 0.0 0.0 Z M 0.0 1080.0 "></path></clipPath><g clip-path="url(#clip0x7fad15292260)"><image xlink:href="../../6E59E501-5AC6-43A6-BE5B-2CF2B6D53CE4/assets/C8AF8D5373B240750928713C158CDCE7.png" width="1280.00" height="1024.00" transform="matrix(1.50, 0.00, -0.00, -1.05, 0.0, 1080.0)"></image></g></g><image xlink:href="../../6E59E501-5AC6-43A6-BE5B-2CF2B6D53CE4/assets/8A87A3B5F2651CC804842E862E028977.png" width="153.00" height="41.00" transform="matrix(0.95, 0.00, -0.00, -0.95, 1725.0, 1080.0)"></image><text xml:space="preserve" font-family="Helvetica,Helvetica" font-size="88.0" fill="#3E3E3E" transform="matrix(1.00, 0.00, -0.00, -1.00, 57.0, 951.2)">R</text><text xml:space="preserve" font-family="Helvetica,Helvetica" font-size="88.0" fill="#3E3E3E" transform="matrix(1.00, 0.00, -0.00, -1.00, 120.6, 951.2)">E</text><text xml:space="preserve" font-family="Helvetica,Helvetica" font-size="88.0" fill="#3E3E3E" transform="matrix(1.00, 0.00, -0.00, -1.00, 179.3, 951.2)">F</text><text xml:space="preserve" font-family="Helvetica,Helvetica" font-size="88.0" fill="#3E3E3E" transform="matrix(1.00, 0.00, -0.00, -1.00, 233.0, 951.2)">E</text><text xml:space="preserve" font-family="Helvetica,Helvetica" font-size="88.0" fill="#3E3E3E" transform="matrix(1.00, 0.00, -0.00, -1.00, 291.7, 951.2)">R</text><text xml:space="preserve" font-family="Helvetica,Helvetica" font-size="88.0" fill="#3E3E3E" transform="matrix(1.00, 0.00, -0.00, -1.00, 355.3, 951.2)">E</text><text xml:space="preserve" font-family="Helvetica,Helvetica" font-size="88.0" fill="#3E3E3E" transform="matrix(1.00, 0.00, -0.00, -1.00, 414.0, 951.2)">N</text><text xml:space="preserve" font-family="Helvetica,Helvetica" font-size="88.0" fill="#3E3E3E" transform="matrix(1.00, 0.00, -0.00, -1.00, 477.5, 951.2)">C</text><text xml:space="preserve" font-family="Helvetica,Helvetica" font-size="88.0" fill="#3E3E3E" transform="matrix(1.00, 0.00, -0.00, -1.00, 541.1, 951.2)">E</text><text xml:space="preserve" font-family="Helvetica,Helvetica" font-size="88.0" fill="#3E3E3E" transform="matrix(1.00, 0.00, -0.00, -1.00, 599.8, 951.2)">S</text><text xml:space="preserve" font-family="Helvetica,Helvetica" font-size="42.6" fill="#525252" transform="matrix(1.00, 0.00, -0.00, -1.00, 57.0, 822.8)">•</text><text xml:space="preserve" font-family="Helvetica,Helvetica" font-size="52.0" fill="#3E3E3E" transform="matrix(1.00, 0.00, -0.00, -1.00, 81.0, 820.0)">W</text><text xml:space="preserve" font-family="Helvetica,Helvetica" font-size="52.0" fill="#3E3E3E" transform="matrix(1.00, 0.00, -0.00, -1.00, 129.2, 820.0)">e</text><text xml:space="preserve" font-family="Helvetica,Helvetica" font-size="52.0" fill="#3E3E3E" transform="matrix(1.00, 0.00, -0.00, -1.00, 158.1, 820.0)">b</text><text xml:space="preserve" font-family="Helvetica,Helvetica" font-size="52.0" fill="#3E3E3E" transform="matrix(1.00, 0.00, -0.00, -1.00, 187.0, 820.0)"> </text><text xml:space="preserve" font-family="Helvetica,Helvetica" font-size="52.0" fill="#3E3E3E" transform="matrix(1.00, 0.00, -0.00, -1.00, 201.5, 820.0)">S</text><text xml:space="preserve" font-family="Helvetica,Helvetica" font-size="52.0" fill="#3E3E3E" transform="matrix(1.00, 0.00, -0.00, -1.00, 236.1, 820.0)">o</text><text xml:space="preserve" font-family="Helvetica,Helvetica" font-size="52.0" fill="#3E3E3E" transform="matrix(1.00, 0.00, -0.00, -1.00, 265.1, 820.0)">c</text><text xml:space="preserve" font-family="Helvetica,Helvetica" font-size="52.0" fill="#3E3E3E" transform="matrix(1.00, 0.00, -0.00, -1.00, 291.1, 820.0)">k</text><text xml:space="preserve" font-family="Helvetica,Helvetica" font-size="52.0" fill="#3E3E3E" transform="matrix(1.00, 0.00, -0.00, -1.00, 317.1, 820.0)">e</text><text xml:space="preserve" font-family="Helvetica,Helvetica" font-size="52.0" fill="#3E3E3E" transform="matrix(1.00, 0.00, -0.00, -1.00, 346.0, 820.0)">t</text><text xml:space="preserve" font-family="Helvetica,Helvetica" font-size="42.6" fill="#525252" transform="matrix(1.00, 0.00, -0.00, -1.00, 87.0, 706.8)">•</text><text xml:space="preserve" font-family="Helvetica,Helvetica" font-size="52.0" fill="#3E3E3E" transform="matrix(1.00, 0.00, -0.00, -1.00, 111.0, 704.0)">h</text><text xml:space="preserve" font-family="Helvetica,Helvetica" font-size="52.0" fill="#3E3E3E" transform="matrix(1.00, 0.00, -0.00, -1.00, 139.9, 704.0)">t</text><text xml:space="preserve" font-family="Helvetica,Helvetica" font-size="52.0" fill="#3E3E3E" transform="matrix(1.00, 0.00, -0.00, -1.00, 154.4, 704.0)">t</text><text xml:space="preserve" font-family="Helvetica,Helvetica" font-size="52.0" fill="#3E3E3E" transform="matrix(1.00, 0.00, -0.00, -1.00, 168.8, 704.0)">p</text><text xml:space="preserve" font-family="Helvetica,Helvetica" font-size="52.0" fill="#3E3E3E" transform="matrix(1.00, 0.00, -0.00, -1.00, 197.7, 704.0)">s</text><text xml:space="preserve" font-family="Helvetica,Helvetica" font-size="52.0" fill="#3E3E3E" transform="matrix(1.00, 0.00, -0.00, -1.00, 223.7, 704.0)">:</text><text xml:space="preserve" font-family="Helvetica,Helvetica" font-size="52.0" fill="#3E3E3E" transform="matrix(1.00, 0.00, -0.00, -1.00, 238.2, 704.0)">/</text><text xml:space="preserve" font-family="Helvetica,Helvetica" font-size="52.0" fill="#3E3E3E" transform="matrix(1.00, 0.00, -0.00, -1.00, 252.6, 704.0)">/</text><text xml:space="preserve" font-family="Helvetica,Helvetica" font-size="52.0" fill="#3E3E3E" transform="matrix(1.00, 0.00, -0.00, -1.00, 267.0, 704.0)">d</text><text xml:space="preserve" font-family="Helvetica,Helvetica" font-size="52.0" fill="#3E3E3E" transform="matrix(1.00, 0.00, -0.00, -1.00, 296.0, 704.0)">e</text><text xml:space="preserve" font-family="Helvetica,Helvetica" font-size="52.0" fill="#3E3E3E" transform="matrix(1.00, 0.00, -0.00, -1.00, 324.9, 704.0)">v</text><text xml:space="preserve" font-family="Helvetica,Helvetica" font-size="52.0" fill="#3E3E3E" transform="matrix(1.00, 0.00, -0.00, -1.00, 350.9, 704.0)">e</text><text xml:space="preserve" font-family="Helvetica,Helvetica" font-size="52.0" fill="#3E3E3E" transform="matrix(1.00, 0.00, -0.00, -1.00, 379.8, 704.0)">l</text><text xml:space="preserve" font-family="Helvetica,Helvetica" font-size="52.0" fill="#3E3E3E" transform="matrix(1.00, 0.00, -0.00, -1.00, 391.4, 704.0)">o</text><text xml:space="preserve" font-family="Helvetica,Helvetica" font-size="52.0" fill="#3E3E3E" transform="matrix(1.00, 0.00, -0.00, -1.00, 420.3, 704.0)">p</text><text xml:space="preserve" font-family="Helvetica,Helvetica" font-size="52.0" fill="#3E3E3E" transform="matrix(1.00, 0.00, -0.00, -1.00, 449.3, 704.0)">e</text><text xml:space="preserve" font-family="Helvetica,Helvetica" font-size="52.0" fill="#3E3E3E" transform="matrix(1.00, 0.00, -0.00, -1.00, 478.2, 704.0)">r</text><text xml:space="preserve" font-family="Helvetica,Helvetica" font-size="52.0" fill="#3E3E3E" transform="matrix(1.00, 0.00, -0.00, -1.00, 492.7, 704.0)">.</text><text xml:space="preserve" font-family="Helvetica,Helvetica" font-size="52.0" fill="#3E3E3E" transform="matrix(1.00, 0.00, -0.00, -1.00, 507.1, 704.0)">m</text><text xml:space="preserve" font-family="Helvetica,Helvetica" font-size="52.0" fill="#3E3E3E" transform="matrix(1.00, 0.00, -0.00, -1.00, 550.4, 704.0)">o</text><text xml:space="preserve" font-family="Helvetica,Helvetica" font-size="52.0" fill="#3E3E3E" transform="matrix(1.00, 0.00, -0.00, -1.00, 579.3, 704.0)">z</text><text xml:space="preserve" font-family="Helvetica,Helvetica" font-size="52.0" fill="#3E3E3E" transform="matrix(1.00, 0.00, -0.00, -1.00, 605.3, 704.0)">i</text><text xml:space="preserve" font-family="Helvetica,Helvetica" font-size="52.0" fill="#3E3E3E" transform="matrix(1.00, 0.00, -0.00, -1.00, 616.9, 704.0)">l</text><text xml:space="preserve" font-family="Helvetica,Helvetica" font-size="52.0" fill="#3E3E3E" transform="matrix(1.00, 0.00, -0.00, -1.00, 628.5, 704.0)">l</text><text xml:space="preserve" font-family="Helvetica,Helvetica" font-size="52.0" fill="#3E3E3E" transform="matrix(1.00, 0.00, -0.00, -1.00, 640.0, 704.0)">a</text><text xml:space="preserve" font-family="Helvetica,Helvetica" font-size="52.0" fill="#3E3E3E" transform="matrix(1.00, 0.00, -0.00, -1.00, 669.0, 704.0)">.</text><text xml:space="preserve" font-family="Helvetica,Helvetica" font-size="52.0" fill="#3E3E3E" transform="matrix(1.00, 0.00, -0.00, -1.00, 683.4, 704.0)">o</text><text xml:space="preserve" font-family="Helvetica,Helvetica" font-size="52.0" fill="#3E3E3E" transform="matrix(1.00, 0.00, -0.00, -1.00, 712.3, 704.0)">r</text><text xml:space="preserve" font-family="Helvetica,Helvetica" font-size="52.0" fill="#3E3E3E" transform="matrix(1.00, 0.00, -0.00, -1.00, 729.6, 704.0)">g</text><text xml:space="preserve" font-family="Helvetica,Helvetica" font-size="52.0" fill="#3E3E3E" transform="matrix(1.00, 0.00, -0.00, -1.00, 758.6, 704.0)">/</text><text xml:space="preserve" font-family="Helvetica,Helvetica" font-size="52.0" fill="#3E3E3E" transform="matrix(1.00, 0.00, -0.00, -1.00, 773.0, 704.0)">e</text><text xml:space="preserve" font-family="Helvetica,Helvetica" font-size="52.0" fill="#3E3E3E" transform="matrix(1.00, 0.00, -0.00, -1.00, 801.9, 704.0)">n</text><text xml:space="preserve" font-family="Helvetica,Helvetica" font-size="52.0" fill="#3E3E3E" transform="matrix(1.00, 0.00, -0.00, -1.00, 830.9, 704.0)">-</text><text xml:space="preserve" font-family="Helvetica,Helvetica" font-size="52.0" fill="#3E3E3E" transform="matrix(1.00, 0.00, -0.00, -1.00, 848.2, 704.0)">U</text><text xml:space="preserve" font-family="Helvetica,Helvetica" font-size="52.0" fill="#3E3E3E" transform="matrix(1.00, 0.00, -0.00, -1.00, 885.8, 704.0)">S</text><text xml:space="preserve" font-family="Helvetica,Helvetica" font-size="52.0" fill="#3E3E3E" transform="matrix(1.00, 0.00, -0.00, -1.00, 920.4, 704.0)">/</text><text xml:space="preserve" font-family="Helvetica,Helvetica" font-size="52.0" fill="#3E3E3E" transform="matrix(1.00, 0.00, -0.00, -1.00, 934.9, 704.0)">d</text><text xml:space="preserve" font-family="Helvetica,Helvetica" font-size="52.0" fill="#3E3E3E" transform="matrix(1.00, 0.00, -0.00, -1.00, 963.8, 704.0)">o</text><text xml:space="preserve" font-family="Helvetica,Helvetica" font-size="52.0" fill="#3E3E3E" transform="matrix(1.00, 0.00, -0.00, -1.00, 992.7, 704.0)">c</text><text xml:space="preserve" font-family="Helvetica,Helvetica" font-size="52.0" fill="#3E3E3E" transform="matrix(1.00, 0.00, -0.00, -1.00, 1018.7, 704.0)">s</text><text xml:space="preserve" font-family="Helvetica,Helvetica" font-size="52.0" fill="#3E3E3E" transform="matrix(1.00, 0.00, -0.00, -1.00, 1044.7, 704.0)">/</text><text xml:space="preserve" font-family="Helvetica,Helvetica" font-size="52.0" fill="#3E3E3E" transform="matrix(1.00, 0.00, -0.00, -1.00, 1059.2, 704.0)">G</text><text xml:space="preserve" font-family="Helvetica,Helvetica" font-size="52.0" fill="#3E3E3E" transform="matrix(1.00, 0.00, -0.00, -1.00, 1099.6, 704.0)">l</text><text xml:space="preserve" font-family="Helvetica,Helvetica" font-size="52.0" fill="#3E3E3E" transform="matrix(1.00, 0.00, -0.00, -1.00, 1111.2, 704.0)">o</text><text xml:space="preserve" font-family="Helvetica,Helvetica" font-size="52.0" fill="#3E3E3E" transform="matrix(1.00, 0.00, -0.00, -1.00, 1140.1, 704.0)">s</text><text xml:space="preserve" font-family="Helvetica,Helvetica" font-size="52.0" fill="#3E3E3E" transform="matrix(1.00, 0.00, -0.00, -1.00, 1166.1, 704.0)">s</text><text xml:space="preserve" font-family="Helvetica,Helvetica" font-size="52.0" fill="#3E3E3E" transform="matrix(1.00, 0.00, -0.00, -1.00, 1192.1, 704.0)">a</text><text xml:space="preserve" font-family="Helvetica,Helvetica" font-size="52.0" fill="#3E3E3E" transform="matrix(1.00, 0.00, -0.00, -1.00, 1221.0, 704.0)">r</text><text xml:space="preserve" font-family="Helvetica,Helvetica" font-size="52.0" fill="#3E3E3E" transform="matrix(1.00, 0.00, -0.00, -1.00, 1238.4, 704.0)">y</text><text xml:space="preserve" font-family="Helvetica,Helvetica" font-size="52.0" fill="#3E3E3E" transform="matrix(1.00, 0.00, -0.00, -1.00, 1264.4, 704.0)">/</text><text xml:space="preserve" font-family="Helvetica,Helvetica" font-size="52.0" fill="#3E3E3E" transform="matrix(1.00, 0.00, -0.00, -1.00, 1278.8, 704.0)">W</text><text xml:space="preserve" font-family="Helvetica,Helvetica" font-size="52.0" fill="#3E3E3E" transform="matrix(1.00, 0.00, -0.00, -1.00, 1326.9, 704.0)">e</text><text xml:space="preserve" font-family="Helvetica,Helvetica" font-size="52.0" fill="#3E3E3E" transform="matrix(1.00, 0.00, -0.00, -1.00, 1355.9, 704.0)">b</text><text xml:space="preserve" font-family="Helvetica,Helvetica" font-size="52.0" fill="#3E3E3E" transform="matrix(1.00, 0.00, -0.00, -1.00, 1384.8, 704.0)">S</text><text xml:space="preserve" font-family="Helvetica,Helvetica" font-size="52.0" fill="#3E3E3E" transform="matrix(1.00, 0.00, -0.00, -1.00, 1419.5, 704.0)">o</text><text xml:space="preserve" font-family="Helvetica,Helvetica" font-size="52.0" fill="#3E3E3E" transform="matrix(1.00, 0.00, -0.00, -1.00, 1448.4, 704.0)">c</text><text xml:space="preserve" font-family="Helvetica,Helvetica" font-size="52.0" fill="#3E3E3E" transform="matrix(1.00, 0.00, -0.00, -1.00, 1474.4, 704.0)">k</text><text xml:space="preserve" font-family="Helvetica,Helvetica" font-size="52.0" fill="#3E3E3E" transform="matrix(1.00, 0.00, -0.00, -1.00, 1500.4, 704.0)">e</text><text xml:space="preserve" font-family="Helvetica,Helvetica" font-size="52.0" fill="#3E3E3E" transform="matrix(1.00, 0.00, -0.00, -1.00, 1529.4, 704.0)">t</text><text xml:space="preserve" font-family="Helvetica,Helvetica" font-size="52.0" fill="#3E3E3E" transform="matrix(1.00, 0.00, -0.00, -1.00, 1543.8, 704.0)">s</text><g><clipPath id="clip0x7fad14f1cdb0"><path d="M 110.0 697.7 L 1569.6 697.7 L 1569.6 702.3 L 110.0 702.3 Z M 110.0 697.7 "></path></clipPath><g clip-path="url(#clip0x7fad14f1cdb0)"><path d="M 58.0 174.0 L 1516.6 174.0 " fill="none" stroke="#3E3E3E" stroke-width="2.56" transform="matrix(1.00, 0.00, 0.00, -1.00, 53.0, 874.0)"></path></g></g><text xml:space="preserve" font-family="Helvetica,Helvetica" font-size="42.6" fill="#525252" transform="matrix(1.00, 0.00, -0.00, -1.00, 57.0, 590.8)">•</text><text xml:space="preserve" font-family="Helvetica,Helvetica" font-size="52.0" fill="#3E3E3E" transform="matrix(1.00, 0.00, -0.00, -1.00, 81.0, 588.0)">G</text><text xml:space="preserve" font-family="Helvetica,Helvetica" font-size="52.0" fill="#3E3E3E" transform="matrix(1.00, 0.00, -0.00, -1.00, 121.4, 588.0)">o</text><text xml:space="preserve" font-family="Helvetica,Helvetica" font-size="52.0" fill="#3E3E3E" transform="matrix(1.00, 0.00, -0.00, -1.00, 150.4, 588.0)">o</text><text xml:space="preserve" font-family="Helvetica,Helvetica" font-size="52.0" fill="#3E3E3E" transform="matrix(1.00, 0.00, -0.00, -1.00, 179.3, 588.0)">g</text><text xml:space="preserve" font-family="Helvetica,Helvetica" font-size="52.0" fill="#3E3E3E" transform="matrix(1.00, 0.00, -0.00, -1.00, 208.2, 588.0)">l</text><text xml:space="preserve" font-family="Helvetica,Helvetica" font-size="52.0" fill="#3E3E3E" transform="matrix(1.00, 0.00, -0.00, -1.00, 219.8, 588.0)">e</text><text xml:space="preserve" font-family="Helvetica,Helvetica" font-size="52.0" fill="#3E3E3E" transform="matrix(1.00, 0.00, -0.00, -1.00, 248.7, 588.0)"> </text><text xml:space="preserve" font-family="Helvetica,Helvetica" font-size="52.0" fill="#3E3E3E" transform="matrix(1.00, 0.00, -0.00, -1.00, 263.2, 588.0)">p</text><text xml:space="preserve" font-family="Helvetica,Helvetica" font-size="52.0" fill="#3E3E3E" transform="matrix(1.00, 0.00, -0.00, -1.00, 292.1, 588.0)">r</text><text xml:space="preserve" font-family="Helvetica,Helvetica" font-size="52.0" fill="#3E3E3E" transform="matrix(1.00, 0.00, -0.00, -1.00, 309.4, 588.0)">o</text><text xml:space="preserve" font-family="Helvetica,Helvetica" font-size="52.0" fill="#3E3E3E" transform="matrix(1.00, 0.00, -0.00, -1.00, 338.3, 588.0)">t</text><text xml:space="preserve" font-family="Helvetica,Helvetica" font-size="52.0" fill="#3E3E3E" transform="matrix(1.00, 0.00, -0.00, -1.00, 352.8, 588.0)">o</text><text xml:space="preserve" font-family="Helvetica,Helvetica" font-size="52.0" fill="#3E3E3E" transform="matrix(1.00, 0.00, -0.00, -1.00, 381.7, 588.0)">b</text><text xml:space="preserve" font-family="Helvetica,Helvetica" font-size="52.0" fill="#3E3E3E" transform="matrix(1.00, 0.00, -0.00, -1.00, 410.6, 588.0)">u</text><text xml:space="preserve" font-family="Helvetica,Helvetica" font-size="52.0" fill="#3E3E3E" transform="matrix(1.00, 0.00, -0.00, -1.00, 439.6, 588.0)">f</text><text xml:space="preserve" font-family="Helvetica,Helvetica" font-size="52.0" fill="#3E3E3E" transform="matrix(1.00, 0.00, -0.00, -1.00, 453.1, 588.0)">f</text><text xml:space="preserve" font-family="Helvetica,Helvetica" font-size="52.0" fill="#3E3E3E" transform="matrix(1.00, 0.00, -0.00, -1.00, 467.5, 588.0)">e</text><text xml:space="preserve" font-family="Helvetica,Helvetica" font-size="52.0" fill="#3E3E3E" transform="matrix(1.00, 0.00, -0.00, -1.00, 496.5, 588.0)">r</text><text xml:space="preserve" font-family="Helvetica,Helvetica" font-size="42.6" fill="#525252" transform="matrix(1.00, 0.00, -0.00, -1.00, 87.0, 474.8)">•</text><text xml:space="preserve" font-family="Helvetica,Helvetica" font-size="52.0" fill="#3E3E3E" transform="matrix(1.00, 0.00, -0.00, -1.00, 111.0, 472.0)">h</text><text xml:space="preserve" font-family="Helvetica,Helvetica" font-size="52.0" fill="#3E3E3E" transform="matrix(1.00, 0.00, -0.00, -1.00, 139.9, 472.0)">t</text><text xml:space="preserve" font-family="Helvetica,Helvetica" font-size="52.0" fill="#3E3E3E" transform="matrix(1.00, 0.00, -0.00, -1.00, 154.4, 472.0)">t</text><text xml:space="preserve" font-family="Helvetica,Helvetica" font-size="52.0" fill="#3E3E3E" transform="matrix(1.00, 0.00, -0.00, -1.00, 168.8, 472.0)">p</text><text xml:space="preserve" font-family="Helvetica,Helvetica" font-size="52.0" fill="#3E3E3E" transform="matrix(1.00, 0.00, -0.00, -1.00, 197.7, 472.0)">s</text><text xml:space="preserve" font-family="Helvetica,Helvetica" font-size="52.0" fill="#3E3E3E" transform="matrix(1.00, 0.00, -0.00, -1.00, 223.7, 472.0)">:</text><text xml:space="preserve" font-family="Helvetica,Helvetica" font-size="52.0" fill="#3E3E3E" transform="matrix(1.00, 0.00, -0.00, -1.00, 238.2, 472.0)">/</text><text xml:space="preserve" font-family="Helvetica,Helvetica" font-size="52.0" fill="#3E3E3E" transform="matrix(1.00, 0.00, -0.00, -1.00, 252.6, 472.0)">/</text><text xml:space="preserve" font-family="Helvetica,Helvetica" font-size="52.0" fill="#3E3E3E" transform="matrix(1.00, 0.00, -0.00, -1.00, 267.0, 472.0)">d</text><text xml:space="preserve" font-family="Helvetica,Helvetica" font-size="52.0" fill="#3E3E3E" transform="matrix(1.00, 0.00, -0.00, -1.00, 296.0, 472.0)">e</text><text xml:space="preserve" font-family="Helvetica,Helvetica" font-size="52.0" fill="#3E3E3E" transform="matrix(1.00, 0.00, -0.00, -1.00, 324.9, 472.0)">v</text><text xml:space="preserve" font-family="Helvetica,Helvetica" font-size="52.0" fill="#3E3E3E" transform="matrix(1.00, 0.00, -0.00, -1.00, 350.9, 472.0)">e</text><text xml:space="preserve" font-family="Helvetica,Helvetica" font-size="52.0" fill="#3E3E3E" transform="matrix(1.00, 0.00, -0.00, -1.00, 379.8, 472.0)">l</text><text xml:space="preserve" font-family="Helvetica,Helvetica" font-size="52.0" fill="#3E3E3E" transform="matrix(1.00, 0.00, -0.00, -1.00, 391.4, 472.0)">o</text><text xml:space="preserve" font-family="Helvetica,Helvetica" font-size="52.0" fill="#3E3E3E" transform="matrix(1.00, 0.00, -0.00, -1.00, 420.3, 472.0)">p</text><text xml:space="preserve" font-family="Helvetica,Helvetica" font-size="52.0" fill="#3E3E3E" transform="matrix(1.00, 0.00, -0.00, -1.00, 449.3, 472.0)">e</text><text xml:space="preserve" font-family="Helvetica,Helvetica" font-size="52.0" fill="#3E3E3E" transform="matrix(1.00, 0.00, -0.00, -1.00, 478.2, 472.0)">r</text><text xml:space="preserve" font-family="Helvetica,Helvetica" font-size="52.0" fill="#3E3E3E" transform="matrix(1.00, 0.00, -0.00, -1.00, 495.5, 472.0)">s</text><text xml:space="preserve" font-family="Helvetica,Helvetica" font-size="52.0" fill="#3E3E3E" transform="matrix(1.00, 0.00, -0.00, -1.00, 521.5, 472.0)">.</text><text xml:space="preserve" font-family="Helvetica,Helvetica" font-size="52.0" fill="#3E3E3E" transform="matrix(1.00, 0.00, -0.00, -1.00, 535.9, 472.0)">g</text><text xml:space="preserve" font-family="Helvetica,Helvetica" font-size="52.0" fill="#3E3E3E" transform="matrix(1.00, 0.00, -0.00, -1.00, 564.9, 472.0)">o</text><text xml:space="preserve" font-family="Helvetica,Helvetica" font-size="52.0" fill="#3E3E3E" transform="matrix(1.00, 0.00, -0.00, -1.00, 593.8, 472.0)">o</text><text xml:space="preserve" font-family="Helvetica,Helvetica" font-size="52.0" fill="#3E3E3E" transform="matrix(1.00, 0.00, -0.00, -1.00, 622.7, 472.0)">g</text><text xml:space="preserve" font-family="Helvetica,Helvetica" font-size="52.0" fill="#3E3E3E" transform="matrix(1.00, 0.00, -0.00, -1.00, 651.7, 472.0)">l</text><text xml:space="preserve" font-family="Helvetica,Helvetica" font-size="52.0" fill="#3E3E3E" transform="matrix(1.00, 0.00, -0.00, -1.00, 663.2, 472.0)">e</text><text xml:space="preserve" font-family="Helvetica,Helvetica" font-size="52.0" fill="#3E3E3E" transform="matrix(1.00, 0.00, -0.00, -1.00, 692.2, 472.0)">.</text><text xml:space="preserve" font-family="Helvetica,Helvetica" font-size="52.0" fill="#3E3E3E" transform="matrix(1.00, 0.00, -0.00, -1.00, 706.6, 472.0)">c</text><text xml:space="preserve" font-family="Helvetica,Helvetica" font-size="52.0" fill="#3E3E3E" transform="matrix(1.00, 0.00, -0.00, -1.00, 732.6, 472.0)">o</text><text xml:space="preserve" font-family="Helvetica,Helvetica" font-size="52.0" fill="#3E3E3E" transform="matrix(1.00, 0.00, -0.00, -1.00, 761.5, 472.0)">m</text><text xml:space="preserve" font-family="Helvetica,Helvetica" font-size="52.0" fill="#3E3E3E" transform="matrix(1.00, 0.00, -0.00, -1.00, 804.8, 472.0)">/</text><text xml:space="preserve" font-family="Helvetica,Helvetica" font-size="52.0" fill="#3E3E3E" transform="matrix(1.00, 0.00, -0.00, -1.00, 819.3, 472.0)">p</text><text xml:space="preserve" font-family="Helvetica,Helvetica" font-size="52.0" fill="#3E3E3E" transform="matrix(1.00, 0.00, -0.00, -1.00, 848.2, 472.0)">r</text><text xml:space="preserve" font-family="Helvetica,Helvetica" font-size="52.0" fill="#3E3E3E" transform="matrix(1.00, 0.00, -0.00, -1.00, 865.5, 472.0)">o</text><text xml:space="preserve" font-family="Helvetica,Helvetica" font-size="52.0" fill="#3E3E3E" transform="matrix(1.00, 0.00, -0.00, -1.00, 894.5, 472.0)">t</text><text xml:space="preserve" font-family="Helvetica,Helvetica" font-size="52.0" fill="#3E3E3E" transform="matrix(1.00, 0.00, -0.00, -1.00, 908.9, 472.0)">o</text><text xml:space="preserve" font-family="Helvetica,Helvetica" font-size="52.0" fill="#3E3E3E" transform="matrix(1.00, 0.00, -0.00, -1.00, 937.8, 472.0)">c</text><text xml:space="preserve" font-family="Helvetica,Helvetica" font-size="52.0" fill="#3E3E3E" transform="matrix(1.00, 0.00, -0.00, -1.00, 963.8, 472.0)">o</text><text xml:space="preserve" font-family="Helvetica,Helvetica" font-size="52.0" fill="#3E3E3E" transform="matrix(1.00, 0.00, -0.00, -1.00, 992.8, 472.0)">l</text><text xml:space="preserve" font-family="Helvetica,Helvetica" font-size="52.0" fill="#3E3E3E" transform="matrix(1.00, 0.00, -0.00, -1.00, 1004.3, 472.0)">-</text><text xml:space="preserve" font-family="Helvetica,Helvetica" font-size="52.0" fill="#3E3E3E" transform="matrix(1.00, 0.00, -0.00, -1.00, 1021.6, 472.0)">b</text><text xml:space="preserve" font-family="Helvetica,Helvetica" font-size="52.0" fill="#3E3E3E" transform="matrix(1.00, 0.00, -0.00, -1.00, 1050.6, 472.0)">u</text><text xml:space="preserve" font-family="Helvetica,Helvetica" font-size="52.0" fill="#3E3E3E" transform="matrix(1.00, 0.00, -0.00, -1.00, 1079.5, 472.0)">f</text><text xml:space="preserve" font-family="Helvetica,Helvetica" font-size="52.0" fill="#3E3E3E" transform="matrix(1.00, 0.00, -0.00, -1.00, 1093.0, 472.0)">f</text><text xml:space="preserve" font-family="Helvetica,Helvetica" font-size="52.0" fill="#3E3E3E" transform="matrix(1.00, 0.00, -0.00, -1.00, 1107.5, 472.0)">e</text><text xml:space="preserve" font-family="Helvetica,Helvetica" font-size="52.0" fill="#3E3E3E" transform="matrix(1.00, 0.00, -0.00, -1.00, 1136.4, 472.0)">r</text><text xml:space="preserve" font-family="Helvetica,Helvetica" font-size="52.0" fill="#3E3E3E" transform="matrix(1.00, 0.00, -0.00, -1.00, 1153.7, 472.0)">s</text><text xml:space="preserve" font-family="Helvetica,Helvetica" font-size="52.0" fill="#3E3E3E" transform="matrix(1.00, 0.00, -0.00, -1.00, 1179.7, 472.0)">/</text><g><clipPath id="clip0x7fad15391300"><path d="M 110.0 465.7 L 1194.0 465.7 L 1194.0 470.3 L 110.0 470.3 Z M 110.0 465.7 "></path></clipPath><g clip-path="url(#clip0x7fad15391300)"><path d="M 58.0 406.0 L 1141.0 406.0 " fill="none" stroke="#3E3E3E" stroke-width="2.56" transform="matrix(1.00, 0.00, 0.00, -1.00, 53.0, 874.0)"></path></g></g><text xml:space="preserve" font-family="Helvetica,Helvetica" font-size="42.6" fill="#525252" transform="matrix(1.00, 0.00, -0.00, -1.00, 57.0, 358.8)">•</text><text xml:space="preserve" font-family="Helvetica,Helvetica" font-size="52.0" fill="#3E3E3E" transform="matrix(1.00, 0.00, -0.00, -1.00, 81.0, 356.0)">R</text><text xml:space="preserve" font-family="Helvetica,Helvetica" font-size="52.0" fill="#3E3E3E" transform="matrix(1.00, 0.00, -0.00, -1.00, 118.6, 356.0)">e</text><text xml:space="preserve" font-family="Helvetica,Helvetica" font-size="52.0" fill="#3E3E3E" transform="matrix(1.00, 0.00, -0.00, -1.00, 147.5, 356.0)">m</text><text xml:space="preserve" font-family="Helvetica,Helvetica" font-size="52.0" fill="#3E3E3E" transform="matrix(1.00, 0.00, -0.00, -1.00, 190.8, 356.0)">o</text><text xml:space="preserve" font-family="Helvetica,Helvetica" font-size="52.0" fill="#3E3E3E" transform="matrix(1.00, 0.00, -0.00, -1.00, 219.7, 356.0)">t</text><text xml:space="preserve" font-family="Helvetica,Helvetica" font-size="52.0" fill="#3E3E3E" transform="matrix(1.00, 0.00, -0.00, -1.00, 234.2, 356.0)">e</text><text xml:space="preserve" font-family="Helvetica,Helvetica" font-size="52.0" fill="#3E3E3E" transform="matrix(1.00, 0.00, -0.00, -1.00, 263.1, 356.0)"> </text><text xml:space="preserve" font-family="Helvetica,Helvetica" font-size="52.0" fill="#3E3E3E" transform="matrix(1.00, 0.00, -0.00, -1.00, 277.5, 356.0)">D</text><text xml:space="preserve" font-family="Helvetica,Helvetica" font-size="52.0" fill="#3E3E3E" transform="matrix(1.00, 0.00, -0.00, -1.00, 315.1, 356.0)">e</text><text xml:space="preserve" font-family="Helvetica,Helvetica" font-size="52.0" fill="#3E3E3E" transform="matrix(1.00, 0.00, -0.00, -1.00, 344.0, 356.0)">b</text><text xml:space="preserve" font-family="Helvetica,Helvetica" font-size="52.0" fill="#3E3E3E" transform="matrix(1.00, 0.00, -0.00, -1.00, 373.0, 356.0)">u</text><text xml:space="preserve" font-family="Helvetica,Helvetica" font-size="52.0" fill="#3E3E3E" transform="matrix(1.00, 0.00, -0.00, -1.00, 401.9, 356.0)">g</text><text xml:space="preserve" font-family="Helvetica,Helvetica" font-size="52.0" fill="#3E3E3E" transform="matrix(1.00, 0.00, -0.00, -1.00, 430.8, 356.0)">g</text><text xml:space="preserve" font-family="Helvetica,Helvetica" font-size="52.0" fill="#3E3E3E" transform="matrix(1.00, 0.00, -0.00, -1.00, 459.8, 356.0)">i</text><text xml:space="preserve" font-family="Helvetica,Helvetica" font-size="52.0" fill="#3E3E3E" transform="matrix(1.00, 0.00, -0.00, -1.00, 471.3, 356.0)">n</text><text xml:space="preserve" font-family="Helvetica,Helvetica" font-size="52.0" fill="#3E3E3E" transform="matrix(1.00, 0.00, -0.00, -1.00, 500.3, 356.0)">g</text><text xml:space="preserve" font-family="Helvetica,Helvetica" font-size="52.0" fill="#3E3E3E" transform="matrix(1.00, 0.00, -0.00, -1.00, 529.2, 356.0)"> </text><text xml:space="preserve" font-family="Helvetica,Helvetica" font-size="52.0" fill="#3E3E3E" transform="matrix(1.00, 0.00, -0.00, -1.00, 543.6, 356.0)">P</text><text xml:space="preserve" font-family="Helvetica,Helvetica" font-size="52.0" fill="#3E3E3E" transform="matrix(1.00, 0.00, -0.00, -1.00, 578.3, 356.0)">r</text><text xml:space="preserve" font-family="Helvetica,Helvetica" font-size="52.0" fill="#3E3E3E" transform="matrix(1.00, 0.00, -0.00, -1.00, 595.6, 356.0)">o</text><text xml:space="preserve" font-family="Helvetica,Helvetica" font-size="52.0" fill="#3E3E3E" transform="matrix(1.00, 0.00, -0.00, -1.00, 624.5, 356.0)">t</text><text xml:space="preserve" font-family="Helvetica,Helvetica" font-size="52.0" fill="#3E3E3E" transform="matrix(1.00, 0.00, -0.00, -1.00, 639.0, 356.0)">o</text><text xml:space="preserve" font-family="Helvetica,Helvetica" font-size="52.0" fill="#3E3E3E" transform="matrix(1.00, 0.00, -0.00, -1.00, 667.9, 356.0)">c</text><text xml:space="preserve" font-family="Helvetica,Helvetica" font-size="52.0" fill="#3E3E3E" transform="matrix(1.00, 0.00, -0.00, -1.00, 693.9, 356.0)">o</text><text xml:space="preserve" font-family="Helvetica,Helvetica" font-size="52.0" fill="#3E3E3E" transform="matrix(1.00, 0.00, -0.00, -1.00, 722.8, 356.0)">l</text><text xml:space="preserve" font-family="Helvetica,Helvetica" font-size="42.6" fill="#525252" transform="matrix(1.00, 0.00, -0.00, -1.00, 87.0, 242.8)">•</text><text xml:space="preserve" font-family="Helvetica,Helvetica" font-size="52.0" fill="#3E3E3E" transform="matrix(1.00, 0.00, -0.00, -1.00, 111.0, 240.0)">h</text><text xml:space="preserve" font-family="Helvetica,Helvetica" font-size="52.0" fill="#3E3E3E" transform="matrix(1.00, 0.00, -0.00, -1.00, 139.9, 240.0)">t</text><text xml:space="preserve" font-family="Helvetica,Helvetica" font-size="52.0" fill="#3E3E3E" transform="matrix(1.00, 0.00, -0.00, -1.00, 154.4, 240.0)">t</text><text xml:space="preserve" font-family="Helvetica,Helvetica" font-size="52.0" fill="#3E3E3E" transform="matrix(1.00, 0.00, -0.00, -1.00, 168.8, 240.0)">p</text><text xml:space="preserve" font-family="Helvetica,Helvetica" font-size="52.0" fill="#3E3E3E" transform="matrix(1.00, 0.00, -0.00, -1.00, 197.7, 240.0)">s</text><text xml:space="preserve" font-family="Helvetica,Helvetica" font-size="52.0" fill="#3E3E3E" transform="matrix(1.00, 0.00, -0.00, -1.00, 223.7, 240.0)">:</text><text xml:space="preserve" font-family="Helvetica,Helvetica" font-size="52.0" fill="#3E3E3E" transform="matrix(1.00, 0.00, -0.00, -1.00, 238.2, 240.0)">/</text><text xml:space="preserve" font-family="Helvetica,Helvetica" font-size="52.0" fill="#3E3E3E" transform="matrix(1.00, 0.00, -0.00, -1.00, 252.6, 240.0)">/</text><text xml:space="preserve" font-family="Helvetica,Helvetica" font-size="52.0" fill="#3E3E3E" transform="matrix(1.00, 0.00, -0.00, -1.00, 267.0, 240.0)">w</text><text xml:space="preserve" font-family="Helvetica,Helvetica" font-size="52.0" fill="#3E3E3E" transform="matrix(1.00, 0.00, -0.00, -1.00, 304.6, 240.0)">i</text><text xml:space="preserve" font-family="Helvetica,Helvetica" font-size="52.0" fill="#3E3E3E" transform="matrix(1.00, 0.00, -0.00, -1.00, 316.2, 240.0)">k</text><text xml:space="preserve" font-family="Helvetica,Helvetica" font-size="52.0" fill="#3E3E3E" transform="matrix(1.00, 0.00, -0.00, -1.00, 342.2, 240.0)">i</text><text xml:space="preserve" font-family="Helvetica,Helvetica" font-size="52.0" fill="#3E3E3E" transform="matrix(1.00, 0.00, -0.00, -1.00, 353.7, 240.0)">.</text><text xml:space="preserve" font-family="Helvetica,Helvetica" font-size="52.0" fill="#3E3E3E" transform="matrix(1.00, 0.00, -0.00, -1.00, 368.2, 240.0)">m</text><text xml:space="preserve" font-family="Helvetica,Helvetica" font-size="52.0" fill="#3E3E3E" transform="matrix(1.00, 0.00, -0.00, -1.00, 411.5, 240.0)">o</text><text xml:space="preserve" font-family="Helvetica,Helvetica" font-size="52.0" fill="#3E3E3E" transform="matrix(1.00, 0.00, -0.00, -1.00, 440.4, 240.0)">z</text><text xml:space="preserve" font-family="Helvetica,Helvetica" font-size="52.0" fill="#3E3E3E" transform="matrix(1.00, 0.00, -0.00, -1.00, 466.4, 240.0)">i</text><text xml:space="preserve" font-family="Helvetica,Helvetica" font-size="52.0" fill="#3E3E3E" transform="matrix(1.00, 0.00, -0.00, -1.00, 478.0, 240.0)">l</text><text xml:space="preserve" font-family="Helvetica,Helvetica" font-size="52.0" fill="#3E3E3E" transform="matrix(1.00, 0.00, -0.00, -1.00, 489.5, 240.0)">l</text><text xml:space="preserve" font-family="Helvetica,Helvetica" font-size="52.0" fill="#3E3E3E" transform="matrix(1.00, 0.00, -0.00, -1.00, 501.1, 240.0)">a</text><text xml:space="preserve" font-family="Helvetica,Helvetica" font-size="52.0" fill="#3E3E3E" transform="matrix(1.00, 0.00, -0.00, -1.00, 530.0, 240.0)">.</text><text xml:space="preserve" font-family="Helvetica,Helvetica" font-size="52.0" fill="#3E3E3E" transform="matrix(1.00, 0.00, -0.00, -1.00, 544.5, 240.0)">o</text><text xml:space="preserve" font-family="Helvetica,Helvetica" font-size="52.0" fill="#3E3E3E" transform="matrix(1.00, 0.00, -0.00, -1.00, 573.4, 240.0)">r</text><text xml:space="preserve" font-family="Helvetica,Helvetica" font-size="52.0" fill="#3E3E3E" transform="matrix(1.00, 0.00, -0.00, -1.00, 590.7, 240.0)">g</text><text xml:space="preserve" font-family="Helvetica,Helvetica" font-size="52.0" fill="#3E3E3E" transform="matrix(1.00, 0.00, -0.00, -1.00, 619.7, 240.0)">/</text><text xml:space="preserve" font-family="Helvetica,Helvetica" font-size="52.0" fill="#3E3E3E" transform="matrix(1.00, 0.00, -0.00, -1.00, 634.1, 240.0)">R</text><text xml:space="preserve" font-family="Helvetica,Helvetica" font-size="52.0" fill="#3E3E3E" transform="matrix(1.00, 0.00, -0.00, -1.00, 671.7, 240.0)">e</text><text xml:space="preserve" font-family="Helvetica,Helvetica" font-size="52.0" fill="#3E3E3E" transform="matrix(1.00, 0.00, -0.00, -1.00, 700.6, 240.0)">m</text><text xml:space="preserve" font-family="Helvetica,Helvetica" font-size="52.0" fill="#3E3E3E" transform="matrix(1.00, 0.00, -0.00, -1.00, 743.9, 240.0)">o</text><text xml:space="preserve" font-family="Helvetica,Helvetica" font-size="52.0" fill="#3E3E3E" transform="matrix(1.00, 0.00, -0.00, -1.00, 772.8, 240.0)">t</text><text xml:space="preserve" font-family="Helvetica,Helvetica" font-size="52.0" fill="#3E3E3E" transform="matrix(1.00, 0.00, -0.00, -1.00, 787.3, 240.0)">e</text><text xml:space="preserve" font-family="Helvetica,Helvetica" font-size="52.0" fill="#3E3E3E" transform="matrix(1.00, 0.00, -0.00, -1.00, 816.2, 240.0)">_</text><text xml:space="preserve" font-family="Helvetica,Helvetica" font-size="52.0" fill="#3E3E3E" transform="matrix(1.00, 0.00, -0.00, -1.00, 845.1, 240.0)">D</text><text xml:space="preserve" font-family="Helvetica,Helvetica" font-size="52.0" fill="#3E3E3E" transform="matrix(1.00, 0.00, -0.00, -1.00, 882.7, 240.0)">e</text><text xml:space="preserve" font-family="Helvetica,Helvetica" font-size="52.0" fill="#3E3E3E" transform="matrix(1.00, 0.00, -0.00, -1.00, 911.6, 240.0)">b</text><text xml:space="preserve" font-family="Helvetica,Helvetica" font-size="52.0" fill="#3E3E3E" transform="matrix(1.00, 0.00, -0.00, -1.00, 940.5, 240.0)">u</text><text xml:space="preserve" font-family="Helvetica,Helvetica" font-size="52.0" fill="#3E3E3E" transform="matrix(1.00, 0.00, -0.00, -1.00, 969.5, 240.0)">g</text><text xml:space="preserve" font-family="Helvetica,Helvetica" font-size="52.0" fill="#3E3E3E" transform="matrix(1.00, 0.00, -0.00, -1.00, 998.4, 240.0)">g</text><text xml:space="preserve" font-family="Helvetica,Helvetica" font-size="52.0" fill="#3E3E3E" transform="matrix(1.00, 0.00, -0.00, -1.00, 1027.3, 240.0)">i</text><text xml:space="preserve" font-family="Helvetica,Helvetica" font-size="52.0" fill="#3E3E3E" transform="matrix(1.00, 0.00, -0.00, -1.00, 1038.9, 240.0)">n</text><text xml:space="preserve" font-family="Helvetica,Helvetica" font-size="52.0" fill="#3E3E3E" transform="matrix(1.00, 0.00, -0.00, -1.00, 1067.8, 240.0)">g</text><text xml:space="preserve" font-family="Helvetica,Helvetica" font-size="52.0" fill="#3E3E3E" transform="matrix(1.00, 0.00, -0.00, -1.00, 1096.8, 240.0)">_</text><text xml:space="preserve" font-family="Helvetica,Helvetica" font-size="52.0" fill="#3E3E3E" transform="matrix(1.00, 0.00, -0.00, -1.00, 1125.7, 240.0)">P</text><text xml:space="preserve" font-family="Helvetica,Helvetica" font-size="52.0" fill="#3E3E3E" transform="matrix(1.00, 0.00, -0.00, -1.00, 1160.4, 240.0)">r</text><text xml:space="preserve" font-family="Helvetica,Helvetica" font-size="52.0" fill="#3E3E3E" transform="matrix(1.00, 0.00, -0.00, -1.00, 1177.7, 240.0)">o</text><text xml:space="preserve" font-family="Helvetica,Helvetica" font-size="52.0" fill="#3E3E3E" transform="matrix(1.00, 0.00, -0.00, -1.00, 1206.6, 240.0)">t</text><text xml:space="preserve" font-family="Helvetica,Helvetica" font-size="52.0" fill="#3E3E3E" transform="matrix(1.00, 0.00, -0.00, -1.00, 1221.1, 240.0)">o</text><text xml:space="preserve" font-family="Helvetica,Helvetica" font-size="52.0" fill="#3E3E3E" transform="matrix(1.00, 0.00, -0.00, -1.00, 1250.0, 240.0)">c</text><text xml:space="preserve" font-family="Helvetica,Helvetica" font-size="52.0" fill="#3E3E3E" transform="matrix(1.00, 0.00, -0.00, -1.00, 1276.0, 240.0)">o</text><text xml:space="preserve" font-family="Helvetica,Helvetica" font-size="52.0" fill="#3E3E3E" transform="matrix(1.00, 0.00, -0.00, -1.00, 1304.9, 240.0)">l</text><g><clipPath id="clip0x7fad153b04a0"><path d="M 110.0 233.7 L 1316.3 233.7 L 1316.3 238.3 L 110.0 238.3 Z M 110.0 233.7 "></path></clipPath><g clip-path="url(#clip0x7fad153b04a0)"><path d="M 58.0 638.0 L 1263.3 638.0 " fill="none" stroke="#3E3E3E" stroke-width="2.56" transform="matrix(1.00, 0.00, 0.00, -1.00, 53.0, 874.0)"></path></g></g><text xml:space="preserve" font-family="GillSans-Light,Gill Sans" font-size="24.0" fill="#525252" transform="matrix(1.00, 0.00, -0.00, -1.00, 948.5, 24.7)">3</text><text xml:space="preserve" font-family="GillSans-Light,Gill Sans" font-size="24.0" fill="#525252" transform="matrix(1.00, 0.00, -0.00, -1.00, 960.5, 24.7)">9</text></g></svg>