<?xml version="1.0" encoding="UTF-8" standalone="no"?><svg xmlns="http://www.w3.org/2000/svg" xmlns:xlink="http://www.w3.org/1999/xlink" clip-rule="evenodd" stroke-miterlimit="10" viewBox="0 0 270 274"><desc>SVG generated by Keynote</desc><defs></defs><g transform="matrix(1.00, 0.00, -0.00, -1.00, 0.0, 274.0)"><path d="M 0.0 229.5 L 0.3 39.8 C 0.3 17.8 17.8 -0.1 39.8 -0.1 L 225.3 -0.1 C 247.3 -0.1 265.3 17.8 265.3 39.8 L 265.3 229.5 C 265.3 251.5 247.3 268.9 225.3 268.9 L 39.8 268.9 C 17.8 268.9 0.0 251.5 0.0 229.5 Z M 0.0 229.5 " fill="none" stroke="#85878C" stroke-width="2.00" transform="matrix(1.00, 0.00, 0.00, -1.00, 2.7, 271.9)"></path><g><clipPath id="clip0x7fad0d9747e0"><path d="M -6.5 2.6 L 277.0 2.6 L 277.0 271.9 L -6.5 271.9 Z M -6.5 2.6 "></path></clipPath><g clip-path="url(#clip0x7fad0d9747e0)"><text xml:space="preserve" font-family="GillSans-Light,Gill Sans" font-size="50.0" fill="#000000" transform="matrix(1.00, 0.00, -0.00, -1.00, 63.7, 121.2)">R</text><text xml:space="preserve" font-family="GillSans-Light,Gill Sans" font-size="50.0" fill="#000000" transform="matrix(1.00, 0.00, -0.00, -1.00, 92.3, 121.2)">e</text><text xml:space="preserve" font-family="GillSans-Light,Gill Sans" font-size="50.0" fill="#000000" transform="matrix(1.00, 0.00, -0.00, -1.00, 116.3, 121.2)">n</text><text xml:space="preserve" font-family="GillSans-Light,Gill Sans" font-size="50.0" fill="#000000" transform="matrix(1.00, 0.00, -0.00, -1.00, 140.8, 121.2)">d</text><text xml:space="preserve" font-family="GillSans-Light,Gill Sans" font-size="50.0" fill="#000000" transform="matrix(1.00, 0.00, -0.00, -1.00, 166.3, 121.2)">e</text><text xml:space="preserve" font-family="GillSans-Light,Gill Sans" font-size="50.0" fill="#000000" transform="matrix(1.00, 0.00, -0.00, -1.00, 190.2, 121.2)">r</text></g></g></g></svg>