<?xml version="1.0" encoding="UTF-8" standalone="no"?><svg xmlns="http://www.w3.org/2000/svg" xmlns:xlink="http://www.w3.org/1999/xlink" clip-rule="evenodd" stroke-miterlimit="10" viewBox="0 0 270 597"><desc>SVG generated by Keynote</desc><defs></defs><g transform="matrix(1.00, 0.00, -0.00, -1.00, 0.0, 597.0)"><path d="M 0.0 552.8 L 0.3 39.8 C 0.3 17.8 17.8 -0.3 39.8 -0.3 L 225.3 -0.3 C 247.3 -0.3 265.3 17.8 265.3 39.8 L 265.3 552.8 C 265.3 574.7 247.3 592.7 225.3 592.7 L 39.8 592.7 C 17.8 592.7 0.0 574.7 0.0 552.8 Z M 0.0 552.8 " fill="none" stroke="#85878C" stroke-width="2.00" transform="matrix(1.00, 0.00, 0.00, -1.00, 2.7, 594.7)"></path><g><clipPath id="clip0x7fad0f913ae0"><path d="M -6.5 2.2 L 277.0 2.2 L 277.0 594.7 L -6.5 594.7 Z M -6.5 2.2 "></path></clipPath><g clip-path="url(#clip0x7fad0f913ae0)"><text xml:space="preserve" font-family="GillSans-Light,Gill Sans" font-size="50.0" fill="#000000" transform="matrix(1.00, 0.00, -0.00, -1.00, 93.6, 309.7)">d</text><text xml:space="preserve" font-family="GillSans-Light,Gill Sans" font-size="50.0" fill="#000000" transform="matrix(1.00, 0.00, -0.00, -1.00, 119.1, 309.7)">a</text><text xml:space="preserve" font-family="GillSans-Light,Gill Sans" font-size="50.0" fill="#000000" transform="matrix(1.00, 0.00, -0.00, -1.00, 140.4, 309.7)">t</text><text xml:space="preserve" font-family="GillSans-Light,Gill Sans" font-size="50.0" fill="#000000" transform="matrix(1.00, 0.00, -0.00, -1.00, 155.5, 309.7)">a</text><text xml:space="preserve" font-family="GillSans-Light,Gill Sans" font-size="50.0" fill="#000000" transform="matrix(1.00, 0.00, -0.00, -1.00, 176.8, 309.7)"> </text><text xml:space="preserve" font-family="GillSans-Light,Gill Sans" font-size="50.0" fill="#000000" transform="matrix(1.00, 0.00, -0.00, -1.00, 38.7, 252.7)">p</text><text xml:space="preserve" font-family="GillSans-Light,Gill Sans" font-size="50.0" fill="#000000" transform="matrix(1.00, 0.00, -0.00, -1.00, 64.1, 252.7)">r</text><text xml:space="preserve" font-family="GillSans-Light,Gill Sans" font-size="50.0" fill="#000000" transform="matrix(1.00, 0.00, -0.00, -1.00, 80.8, 252.7)">o</text><text xml:space="preserve" font-family="GillSans-Light,Gill Sans" font-size="50.0" fill="#000000" transform="matrix(1.00, 0.00, -0.00, -1.00, 107.9, 252.7)">c</text><text xml:space="preserve" font-family="GillSans-Light,Gill Sans" font-size="50.0" fill="#000000" transform="matrix(1.00, 0.00, -0.00, -1.00, 128.7, 252.7)">e</text><text xml:space="preserve" font-family="GillSans-Light,Gill Sans" font-size="50.0" fill="#000000" transform="matrix(1.00, 0.00, -0.00, -1.00, 152.7, 252.7)">s</text><text xml:space="preserve" font-family="GillSans-Light,Gill Sans" font-size="50.0" fill="#000000" transform="matrix(1.00, 0.00, -0.00, -1.00, 170.4, 252.7)">s</text><text xml:space="preserve" font-family="GillSans-Light,Gill Sans" font-size="50.0" fill="#000000" transform="matrix(1.00, 0.00, -0.00, -1.00, 188.1, 252.7)">o</text><text xml:space="preserve" font-family="GillSans-Light,Gill Sans" font-size="50.0" fill="#000000" transform="matrix(1.00, 0.00, -0.00, -1.00, 215.2, 252.7)">r</text></g></g></g></svg>