<?xml version="1.0" encoding="UTF-8" standalone="no"?><svg xmlns="http://www.w3.org/2000/svg" xmlns:xlink="http://www.w3.org/1999/xlink" clip-rule="evenodd" stroke-miterlimit="10" viewBox="0 0 261 207"><desc>SVG generated by Keynote</desc><defs></defs><g transform="matrix(1.00, 0.00, -0.00, -1.00, 0.0, 207.0)"><path d="M 0.0 148.0 L 0.0 54.4 C 0.0 24.4 24.4 -0.3 54.4 -0.3 L 200.7 -0.3 C 230.8 -0.3 255.0 24.4 255.0 54.4 L 255.0 148.0 C 255.0 178.1 230.8 202.7 200.7 202.7 L 54.4 202.7 C 24.4 202.7 0.0 178.1 0.0 148.0 Z M 0.0 148.0 " fill="none" stroke="#85878C" stroke-width="2.00" transform="matrix(1.00, 0.00, 0.00, -1.00, 3.0, 204.7)"></path><g><clipPath id="clip0x7fad0d9653d0"><path d="M -6.2 2.3 L 267.3 2.3 L 267.3 204.7 L -6.2 204.7 Z M -6.2 2.3 "></path></clipPath><g clip-path="url(#clip0x7fad0d9653d0)"><text xml:space="preserve" font-family="GillSans-Light,Gill Sans" font-size="50.0" fill="#000000" transform="matrix(1.00, 0.00, -0.00, -1.00, 55.0, 87.6)">c</text><text xml:space="preserve" font-family="GillSans-Light,Gill Sans" font-size="50.0" fill="#000000" transform="matrix(1.00, 0.00, -0.00, -1.00, 75.8, 87.6)">o</text><text xml:space="preserve" font-family="GillSans-Light,Gill Sans" font-size="50.0" fill="#000000" transform="matrix(1.00, 0.00, -0.00, -1.00, 102.9, 87.6)">n</text><text xml:space="preserve" font-family="GillSans-Light,Gill Sans" font-size="50.0" fill="#000000" transform="matrix(1.00, 0.00, -0.00, -1.00, 127.5, 87.6)">t</text><text xml:space="preserve" font-family="GillSans-Light,Gill Sans" font-size="50.0" fill="#000000" transform="matrix(1.00, 0.00, -0.00, -1.00, 142.5, 87.6)">e</text><text xml:space="preserve" font-family="GillSans-Light,Gill Sans" font-size="50.0" fill="#000000" transform="matrix(1.00, 0.00, -0.00, -1.00, 166.5, 87.6)">n</text><text xml:space="preserve" font-family="GillSans-Light,Gill Sans" font-size="50.0" fill="#000000" transform="matrix(1.00, 0.00, -0.00, -1.00, 191.0, 87.6)">t</text></g></g></g></svg>