<?xml version="1.0" encoding="UTF-8" standalone="no"?><svg xmlns="http://www.w3.org/2000/svg" xmlns:xlink="http://www.w3.org/1999/xlink" clip-rule="evenodd" stroke-miterlimit="10" viewBox="0 0 440 180"><desc>SVG generated by Keynote</desc><defs></defs><g transform="matrix(1.00, 0.00, -0.00, -1.00, 0.0, 180.0)"><g><clipPath id="clip0x7fad0f96ef80"><path d="M 100.6 0.9 L 321.4 0.9 L 321.4 100.6 L 100.6 100.6 Z M 100.6 0.9 "></path></clipPath><g clip-path="url(#clip0x7fad0f96ef80)"><image xlink:href="1AA26937883B24528BC223C96C03F718.png" width="219.00" height="98.00" transform="matrix(1.00, 0.00, -0.00, -1.00, 101.6, 99.6)" opacity="0.50"></image><path d="M 104.6 21.9 L 105.0 83.6 C 105.0 91.9 111.3 99.0 119.6 99.0 L 302.4 99.0 C 310.7 99.0 317.0 91.9 317.0 83.6 L 317.0 21.9 C 317.0 13.6 310.7 7.0 302.4 7.0 L 119.6 7.0 C 111.3 7.0 104.6 13.6 104.6 21.9 Z M 104.6 21.9 " fill="#F5D327"></path></g></g><g><clipPath id="clip0x7fad0f971200"><path d="M 94.4 6.9 L 327.6 6.9 L 327.6 98.6 L 94.4 98.6 Z M 94.4 6.9 "></path></clipPath><g clip-path="url(#clip0x7fad0f971200)"><text xml:space="preserve" font-family="GillSans-Light,Gill Sans" font-size="50.0" fill="#000000" transform="matrix(1.00, 0.00, -0.00, -1.00, 124.5, 36.4)">p</text><text xml:space="preserve" font-family="GillSans-Light,Gill Sans" font-size="50.0" fill="#000000" transform="matrix(1.00, 0.00, -0.00, -1.00, 150.0, 36.4)">r</text><text xml:space="preserve" font-family="GillSans-Light,Gill Sans" font-size="50.0" fill="#000000" transform="matrix(1.00, 0.00, -0.00, -1.00, 166.6, 36.4)">o</text><text xml:space="preserve" font-family="GillSans-Light,Gill Sans" font-size="50.0" fill="#000000" transform="matrix(1.00, 0.00, -0.00, -1.00, 193.7, 36.4)">t</text><text xml:space="preserve" font-family="GillSans-Light,Gill Sans" font-size="50.0" fill="#000000" transform="matrix(1.00, 0.00, -0.00, -1.00, 208.8, 36.4)">o</text><text xml:space="preserve" font-family="GillSans-Light,Gill Sans" font-size="50.0" fill="#000000" transform="matrix(1.00, 0.00, -0.00, -1.00, 235.9, 36.4)">b</text><text xml:space="preserve" font-family="GillSans-Light,Gill Sans" font-size="50.0" fill="#000000" transform="matrix(1.00, 0.00, -0.00, -1.00, 260.9, 36.4)">u</text><text xml:space="preserve" font-family="GillSans-Light,Gill Sans" font-size="50.0" fill="#000000" transform="matrix(1.00, 0.00, -0.00, -1.00, 285.4, 36.4)">f</text></g></g><g><clipPath id="clip0x7fad0f9755a0"><path d="M 304.4 78.0 L 405.8 179.5 L 439.4 145.8 L 338.0 44.4 Z M 304.4 78.0 "></path></clipPath><g clip-path="url(#clip0x7fad0f9755a0)"><path d="M 0.0 0.0 L 95.8 0.0 L 101.8 0.0 " fill="none" stroke="#525252" stroke-width="12.00" transform="matrix(0.71, 0.71, 0.71, -0.71, 321.9, 61.9)"></path><path d="M 405.8 113.6 L 421.9 161.9 L 373.5 145.8 Z M 405.8 113.6 " fill="#525252"></path></g></g><g><clipPath id="clip0x7fad0f976bf0"><path d="M 89.1 52.5 L 0.2 141.4 L 33.8 175.1 L 122.7 86.2 Z M 89.1 52.5 "></path></clipPath><g clip-path="url(#clip0x7fad0f976bf0)"><path d="M 0.0 0.0 L 78.1 0.0 L 84.1 0.0 " fill="none" stroke="#525252" stroke-width="12.00" transform="matrix(-0.71, 0.71, 0.71, 0.71, 105.2, 70.1)"></path><path d="M 66.1 141.4 L 17.7 157.6 L 33.8 109.2 Z M 66.1 141.4 " fill="#525252"></path></g></g></g></svg>