<?xml version="1.0" encoding="UTF-8" standalone="no"?><svg xmlns="http://www.w3.org/2000/svg" xmlns:xlink="http://www.w3.org/1999/xlink" clip-rule="evenodd" stroke-miterlimit="10" viewBox="0 0 463 94"><desc>SVG generated by Keynote</desc><defs><pattern id="08496831-BB6C-4EF7-8B6B-89C56F4086B6" patternUnits="userSpaceOnUse" width="600" height="600" viewBox="0 0 600 600"><image xlink:href="../../E762FFDA-B531-4E02-855D-32971CD8B3ED/assets/ADFEDB07BA590A41659D8979D96483E7.png" width="600.00" height="600.00"></image></pattern></defs><g transform="matrix(1.00, 0.00, -0.00, -1.00, 0.0, 94.0)"><g><clipPath id="clip0x7fad0d5d0660"><path d="M 0.8 35.3 L 462.8 35.3 L 462.8 94.0 L 0.8 94.0 Z M 0.8 35.3 "></path></clipPath><g clip-path="url(#clip0x7fad0d5d0660)"><image xlink:href="5351BF47FA174490505ABDF17EB6D7E4.png" width="460.00" height="57.00" transform="matrix(1.00, 0.00, -0.00, -0.99, 1.8, 93.0)" opacity="0.50"></image></g></g><g><clipPath id="clip0x7fad0d5d1790"><path d="M 395.0 59.0 L 395.0 41.3 L 458.8 66.6 L 395.0 92.0 L 395.0 75.0 L 5.0 75.0 L 5.0 59.0 Z M 394.8 58.5 "></path></clipPath><g clip-path="url(#clip0x7fad0d5d1790)"><g><clipPath id="clip0x7fad0d5d1ee0"><path d="M 0.8 35.3 L 462.8 35.3 L 462.8 94.0 L 0.8 94.0 Z M 0.8 35.3 "></path></clipPath><g clip-path="url(#clip0x7fad0d5d1ee0)"><path d="M 5.0 41.3 L 458.8 41.3 L 458.8 92.0 L 5.0 92.0 Z M 5.0 41.3 " fill="url(#08496831-BB6C-4EF7-8B6B-89C56F4086B6)"></path></g></g></g></g><g><clipPath id="clip0x7fad0d5d4640"><path d="M 41.8 -4.5 L 416.2 -4.5 L 416.2 63.5 L 41.8 63.5 Z M 41.8 -4.5 "></path></clipPath><g clip-path="url(#clip0x7fad0d5d4640)"><text xml:space="preserve" font-family="Helvetica,Helvetica" font-size="40.0" fill="#525252" transform="matrix(1.00, 0.00, -0.00, -1.00, 52.3, 14.7)">h</text><text xml:space="preserve" font-family="Helvetica,Helvetica" font-size="40.0" fill="#525252" transform="matrix(1.00, 0.00, -0.00, -1.00, 73.6, 14.7)">a</text><text xml:space="preserve" font-family="Helvetica,Helvetica" font-size="40.0" fill="#525252" transform="matrix(1.00, 0.00, -0.00, -1.00, 94.8, 14.7)">n</text><text xml:space="preserve" font-family="Helvetica,Helvetica" font-size="40.0" fill="#525252" transform="matrix(1.00, 0.00, -0.00, -1.00, 116.1, 14.7)">d</text><text xml:space="preserve" font-family="Helvetica,Helvetica" font-size="40.0" fill="#525252" transform="matrix(1.00, 0.00, -0.00, -1.00, 137.4, 14.7)">s</text><text xml:space="preserve" font-family="Helvetica,Helvetica" font-size="40.0" fill="#525252" transform="matrix(1.00, 0.00, -0.00, -1.00, 156.4, 14.7)">h</text><text xml:space="preserve" font-family="Helvetica,Helvetica" font-size="40.0" fill="#525252" transform="matrix(1.00, 0.00, -0.00, -1.00, 177.6, 14.7)">a</text><text xml:space="preserve" font-family="Helvetica,Helvetica" font-size="40.0" fill="#525252" transform="matrix(1.00, 0.00, -0.00, -1.00, 198.9, 14.7)">k</text><text xml:space="preserve" font-family="Helvetica,Helvetica" font-size="40.0" fill="#525252" transform="matrix(1.00, 0.00, -0.00, -1.00, 217.9, 14.7)">e</text><text xml:space="preserve" font-family="Helvetica,Helvetica" font-size="40.0" fill="#525252" transform="matrix(1.00, 0.00, -0.00, -1.00, 239.1, 14.7)"> </text><text xml:space="preserve" font-family="Helvetica,Helvetica" font-size="40.0" fill="#525252" transform="matrix(1.00, 0.00, -0.00, -1.00, 249.3, 14.7)">r</text><text xml:space="preserve" font-family="Helvetica,Helvetica" font-size="40.0" fill="#525252" transform="matrix(1.00, 0.00, -0.00, -1.00, 261.6, 14.7)">e</text><text xml:space="preserve" font-family="Helvetica,Helvetica" font-size="40.0" fill="#525252" transform="matrix(1.00, 0.00, -0.00, -1.00, 282.8, 14.7)">s</text><text xml:space="preserve" font-family="Helvetica,Helvetica" font-size="40.0" fill="#525252" transform="matrix(1.00, 0.00, -0.00, -1.00, 301.8, 14.7)">p</text><text xml:space="preserve" font-family="Helvetica,Helvetica" font-size="40.0" fill="#525252" transform="matrix(1.00, 0.00, -0.00, -1.00, 323.1, 14.7)">o</text><text xml:space="preserve" font-family="Helvetica,Helvetica" font-size="40.0" fill="#525252" transform="matrix(1.00, 0.00, -0.00, -1.00, 344.4, 14.7)">n</text><text xml:space="preserve" font-family="Helvetica,Helvetica" font-size="40.0" fill="#525252" transform="matrix(1.00, 0.00, -0.00, -1.00, 365.6, 14.7)">s</text><text xml:space="preserve" font-family="Helvetica,Helvetica" font-size="40.0" fill="#525252" transform="matrix(1.00, 0.00, -0.00, -1.00, 384.6, 14.7)">e</text></g></g></g></svg>