<?xml version="1.0" encoding="UTF-8" standalone="no"?><svg xmlns="http://www.w3.org/2000/svg" xmlns:xlink="http://www.w3.org/1999/xlink" clip-rule="evenodd" stroke-miterlimit="10" viewBox="0 0 1920 1080"><desc>SVG generated by Keynote</desc><defs><pattern id="D4E96583-79A6-4ED3-9CFC-71ED7C0F02BD" patternUnits="userSpaceOnUse" width="600" height="600" viewBox="0 0 600 600"><image xlink:href="../../E762FFDA-B531-4E02-855D-32971CD8B3ED/assets/ADFEDB07BA590A41659D8979D96483E7.png" width="600.00" height="600.00"></image></pattern></defs><g transform="matrix(1.00, 0.00, -0.00, -1.00, 0.0, 1080.0)"><g><clipPath id="clip0x7fad0dc21e50"><path d="M 0.0 1080.0 L 1920.0 1080.0 L 1920.0 0.0 L 0.0 0.0 Z M 0.0 1080.0 "></path></clipPath><g clip-path="url(#clip0x7fad0dc21e50)"><image xlink:href="../../6E59E501-5AC6-43A6-BE5B-2CF2B6D53CE4/assets/C8AF8D5373B240750928713C158CDCE7.png" width="1280.00" height="1024.00" transform="matrix(1.50, 0.00, -0.00, -1.05, 0.0, 1080.0)"></image></g></g><image xlink:href="../../6E59E501-5AC6-43A6-BE5B-2CF2B6D53CE4/assets/8A87A3B5F2651CC804842E862E028977.png" width="153.00" height="41.00" transform="matrix(0.95, 0.00, -0.00, -0.95, 1725.0, 1080.0)"></image><text xml:space="preserve" font-family="Helvetica,Helvetica" font-size="88.0" fill="#3E3E3E" transform="matrix(1.00, 0.00, -0.00, -1.00, 57.0, 951.2)">W</text><text xml:space="preserve" font-family="Helvetica,Helvetica" font-size="88.0" fill="#3E3E3E" transform="matrix(1.00, 0.00, -0.00, -1.00, 140.0, 951.2)">E</text><text xml:space="preserve" font-family="Helvetica,Helvetica" font-size="88.0" fill="#3E3E3E" transform="matrix(1.00, 0.00, -0.00, -1.00, 198.7, 951.2)">B</text><text xml:space="preserve" font-family="Helvetica,Helvetica" font-size="88.0" fill="#3E3E3E" transform="matrix(1.00, 0.00, -0.00, -1.00, 257.4, 951.2)"> </text><text xml:space="preserve" font-family="Helvetica,Helvetica" font-size="88.0" fill="#3E3E3E" transform="matrix(1.00, 0.00, -0.00, -1.00, 281.9, 951.2)">S</text><text xml:space="preserve" font-family="Helvetica,Helvetica" font-size="88.0" fill="#3E3E3E" transform="matrix(1.00, 0.00, -0.00, -1.00, 340.6, 951.2)">O</text><text xml:space="preserve" font-family="Helvetica,Helvetica" font-size="88.0" fill="#3E3E3E" transform="matrix(1.00, 0.00, -0.00, -1.00, 409.0, 951.2)">C</text><text xml:space="preserve" font-family="Helvetica,Helvetica" font-size="88.0" fill="#3E3E3E" transform="matrix(1.00, 0.00, -0.00, -1.00, 472.6, 951.2)">K</text><text xml:space="preserve" font-family="Helvetica,Helvetica" font-size="88.0" fill="#3E3E3E" transform="matrix(1.00, 0.00, -0.00, -1.00, 531.3, 951.2)">E</text><text xml:space="preserve" font-family="Helvetica,Helvetica" font-size="88.0" fill="#3E3E3E" transform="matrix(1.00, 0.00, -0.00, -1.00, 589.9, 951.2)">T</text><text xml:space="preserve" font-family="Helvetica,Helvetica" font-size="42.6" fill="#525252" transform="matrix(1.00, 0.00, -0.00, -1.00, 57.0, 822.8)">•</text><text xml:space="preserve" font-family="Helvetica,Helvetica" font-size="52.0" fill="#3E3E3E" transform="matrix(1.00, 0.00, -0.00, -1.00, 81.0, 820.0)">A</text><text xml:space="preserve" font-family="Helvetica,Helvetica" font-size="52.0" fill="#3E3E3E" transform="matrix(1.00, 0.00, -0.00, -1.00, 112.8, 820.0)"> </text><text xml:space="preserve" font-family="Helvetica,Helvetica" font-size="52.0" fill="#3E3E3E" transform="matrix(1.00, 0.00, -0.00, -1.00, 127.3, 820.0)">p</text><text xml:space="preserve" font-family="Helvetica,Helvetica" font-size="52.0" fill="#3E3E3E" transform="matrix(1.00, 0.00, -0.00, -1.00, 156.2, 820.0)">r</text><text xml:space="preserve" font-family="Helvetica,Helvetica" font-size="52.0" fill="#3E3E3E" transform="matrix(1.00, 0.00, -0.00, -1.00, 173.5, 820.0)">o</text><text xml:space="preserve" font-family="Helvetica,Helvetica" font-size="52.0" fill="#3E3E3E" transform="matrix(1.00, 0.00, -0.00, -1.00, 202.5, 820.0)">t</text><text xml:space="preserve" font-family="Helvetica,Helvetica" font-size="52.0" fill="#3E3E3E" transform="matrix(1.00, 0.00, -0.00, -1.00, 216.9, 820.0)">o</text><text xml:space="preserve" font-family="Helvetica,Helvetica" font-size="52.0" fill="#3E3E3E" transform="matrix(1.00, 0.00, -0.00, -1.00, 245.8, 820.0)">c</text><text xml:space="preserve" font-family="Helvetica,Helvetica" font-size="52.0" fill="#3E3E3E" transform="matrix(1.00, 0.00, -0.00, -1.00, 271.8, 820.0)">o</text><text xml:space="preserve" font-family="Helvetica,Helvetica" font-size="52.0" fill="#3E3E3E" transform="matrix(1.00, 0.00, -0.00, -1.00, 300.8, 820.0)">l</text><text xml:space="preserve" font-family="Helvetica,Helvetica" font-size="52.0" fill="#3E3E3E" transform="matrix(1.00, 0.00, -0.00, -1.00, 312.3, 820.0)"> </text><text xml:space="preserve" font-family="Helvetica,Helvetica" font-size="52.0" fill="#3E3E3E" transform="matrix(1.00, 0.00, -0.00, -1.00, 326.8, 820.0)">p</text><text xml:space="preserve" font-family="Helvetica,Helvetica" font-size="52.0" fill="#3E3E3E" transform="matrix(1.00, 0.00, -0.00, -1.00, 355.7, 820.0)">r</text><text xml:space="preserve" font-family="Helvetica,Helvetica" font-size="52.0" fill="#3E3E3E" transform="matrix(1.00, 0.00, -0.00, -1.00, 373.0, 820.0)">o</text><text xml:space="preserve" font-family="Helvetica,Helvetica" font-size="52.0" fill="#3E3E3E" transform="matrix(1.00, 0.00, -0.00, -1.00, 401.9, 820.0)">v</text><text xml:space="preserve" font-family="Helvetica,Helvetica" font-size="52.0" fill="#3E3E3E" transform="matrix(1.00, 0.00, -0.00, -1.00, 427.9, 820.0)">i</text><text xml:space="preserve" font-family="Helvetica,Helvetica" font-size="52.0" fill="#3E3E3E" transform="matrix(1.00, 0.00, -0.00, -1.00, 439.5, 820.0)">d</text><text xml:space="preserve" font-family="Helvetica,Helvetica" font-size="52.0" fill="#3E3E3E" transform="matrix(1.00, 0.00, -0.00, -1.00, 468.4, 820.0)">i</text><text xml:space="preserve" font-family="Helvetica,Helvetica" font-size="52.0" fill="#3E3E3E" transform="matrix(1.00, 0.00, -0.00, -1.00, 480.0, 820.0)">n</text><text xml:space="preserve" font-family="Helvetica,Helvetica" font-size="52.0" fill="#3E3E3E" transform="matrix(1.00, 0.00, -0.00, -1.00, 508.9, 820.0)">g</text><text xml:space="preserve" font-family="Helvetica,Helvetica" font-size="52.0" fill="#3E3E3E" transform="matrix(1.00, 0.00, -0.00, -1.00, 537.8, 820.0)"> </text><text xml:space="preserve" font-family="Helvetica,Helvetica" font-size="52.0" fill="#3E3E3E" transform="matrix(1.00, 0.00, -0.00, -1.00, 552.3, 820.0)">f</text><text xml:space="preserve" font-family="Helvetica,Helvetica" font-size="52.0" fill="#3E3E3E" transform="matrix(1.00, 0.00, -0.00, -1.00, 566.7, 820.0)">u</text><text xml:space="preserve" font-family="Helvetica,Helvetica" font-size="52.0" fill="#3E3E3E" transform="matrix(1.00, 0.00, -0.00, -1.00, 595.6, 820.0)">l</text><text xml:space="preserve" font-family="Helvetica,Helvetica" font-size="52.0" fill="#3E3E3E" transform="matrix(1.00, 0.00, -0.00, -1.00, 607.2, 820.0)">l</text><text xml:space="preserve" font-family="Helvetica,Helvetica" font-size="52.0" fill="#3E3E3E" transform="matrix(1.00, 0.00, -0.00, -1.00, 618.8, 820.0)">-</text><text xml:space="preserve" font-family="Helvetica,Helvetica" font-size="52.0" fill="#3E3E3E" transform="matrix(1.00, 0.00, -0.00, -1.00, 636.1, 820.0)">d</text><text xml:space="preserve" font-family="Helvetica,Helvetica" font-size="52.0" fill="#3E3E3E" transform="matrix(1.00, 0.00, -0.00, -1.00, 665.0, 820.0)">u</text><text xml:space="preserve" font-family="Helvetica,Helvetica" font-size="52.0" fill="#3E3E3E" transform="matrix(1.00, 0.00, -0.00, -1.00, 694.0, 820.0)">p</text><text xml:space="preserve" font-family="Helvetica,Helvetica" font-size="52.0" fill="#3E3E3E" transform="matrix(1.00, 0.00, -0.00, -1.00, 722.9, 820.0)">l</text><text xml:space="preserve" font-family="Helvetica,Helvetica" font-size="52.0" fill="#3E3E3E" transform="matrix(1.00, 0.00, -0.00, -1.00, 734.4, 820.0)">e</text><text xml:space="preserve" font-family="Helvetica,Helvetica" font-size="52.0" fill="#3E3E3E" transform="matrix(1.00, 0.00, -0.00, -1.00, 763.4, 820.0)">x</text><text xml:space="preserve" font-family="Helvetica,Helvetica" font-size="52.0" fill="#3E3E3E" transform="matrix(1.00, 0.00, -0.00, -1.00, 789.4, 820.0)"> </text><text xml:space="preserve" font-family="Helvetica,Helvetica" font-size="52.0" fill="#3E3E3E" transform="matrix(1.00, 0.00, -0.00, -1.00, 803.8, 820.0)">c</text><text xml:space="preserve" font-family="Helvetica,Helvetica" font-size="52.0" fill="#3E3E3E" transform="matrix(1.00, 0.00, -0.00, -1.00, 829.8, 820.0)">o</text><text xml:space="preserve" font-family="Helvetica,Helvetica" font-size="52.0" fill="#3E3E3E" transform="matrix(1.00, 0.00, -0.00, -1.00, 858.7, 820.0)">m</text><text xml:space="preserve" font-family="Helvetica,Helvetica" font-size="52.0" fill="#3E3E3E" transform="matrix(1.00, 0.00, -0.00, -1.00, 902.1, 820.0)">m</text><text xml:space="preserve" font-family="Helvetica,Helvetica" font-size="52.0" fill="#3E3E3E" transform="matrix(1.00, 0.00, -0.00, -1.00, 945.4, 820.0)">u</text><text xml:space="preserve" font-family="Helvetica,Helvetica" font-size="52.0" fill="#3E3E3E" transform="matrix(1.00, 0.00, -0.00, -1.00, 974.3, 820.0)">n</text><text xml:space="preserve" font-family="Helvetica,Helvetica" font-size="52.0" fill="#3E3E3E" transform="matrix(1.00, 0.00, -0.00, -1.00, 1003.2, 820.0)">i</text><text xml:space="preserve" font-family="Helvetica,Helvetica" font-size="52.0" fill="#3E3E3E" transform="matrix(1.00, 0.00, -0.00, -1.00, 1014.8, 820.0)">c</text><text xml:space="preserve" font-family="Helvetica,Helvetica" font-size="52.0" fill="#3E3E3E" transform="matrix(1.00, 0.00, -0.00, -1.00, 1040.8, 820.0)">a</text><text xml:space="preserve" font-family="Helvetica,Helvetica" font-size="52.0" fill="#3E3E3E" transform="matrix(1.00, 0.00, -0.00, -1.00, 1069.7, 820.0)">t</text><text xml:space="preserve" font-family="Helvetica,Helvetica" font-size="52.0" fill="#3E3E3E" transform="matrix(1.00, 0.00, -0.00, -1.00, 1084.2, 820.0)">i</text><text xml:space="preserve" font-family="Helvetica,Helvetica" font-size="52.0" fill="#3E3E3E" transform="matrix(1.00, 0.00, -0.00, -1.00, 1095.7, 820.0)">o</text><text xml:space="preserve" font-family="Helvetica,Helvetica" font-size="52.0" fill="#3E3E3E" transform="matrix(1.00, 0.00, -0.00, -1.00, 1124.7, 820.0)">n</text><text xml:space="preserve" font-family="Helvetica,Helvetica" font-size="52.0" fill="#3E3E3E" transform="matrix(1.00, 0.00, -0.00, -1.00, 1153.6, 820.0)">s</text><text xml:space="preserve" font-family="Helvetica,Helvetica" font-size="52.0" fill="#3E3E3E" transform="matrix(1.00, 0.00, -0.00, -1.00, 1179.6, 820.0)"> </text><text xml:space="preserve" font-family="Helvetica,Helvetica" font-size="52.0" fill="#3E3E3E" transform="matrix(1.00, 0.00, -0.00, -1.00, 1194.0, 820.0)">c</text><text xml:space="preserve" font-family="Helvetica,Helvetica" font-size="52.0" fill="#3E3E3E" transform="matrix(1.00, 0.00, -0.00, -1.00, 1220.0, 820.0)">h</text><text xml:space="preserve" font-family="Helvetica,Helvetica" font-size="52.0" fill="#3E3E3E" transform="matrix(1.00, 0.00, -0.00, -1.00, 1249.0, 820.0)">a</text><text xml:space="preserve" font-family="Helvetica,Helvetica" font-size="52.0" fill="#3E3E3E" transform="matrix(1.00, 0.00, -0.00, -1.00, 1277.9, 820.0)">n</text><text xml:space="preserve" font-family="Helvetica,Helvetica" font-size="52.0" fill="#3E3E3E" transform="matrix(1.00, 0.00, -0.00, -1.00, 1306.8, 820.0)">n</text><text xml:space="preserve" font-family="Helvetica,Helvetica" font-size="52.0" fill="#3E3E3E" transform="matrix(1.00, 0.00, -0.00, -1.00, 1335.7, 820.0)">e</text><text xml:space="preserve" font-family="Helvetica,Helvetica" font-size="52.0" fill="#3E3E3E" transform="matrix(1.00, 0.00, -0.00, -1.00, 1364.7, 820.0)">l</text><text xml:space="preserve" font-family="Helvetica,Helvetica" font-size="52.0" fill="#3E3E3E" transform="matrix(1.00, 0.00, -0.00, -1.00, 1376.2, 820.0)">s</text><text xml:space="preserve" font-family="Helvetica,Helvetica" font-size="52.0" fill="#3E3E3E" transform="matrix(1.00, 0.00, -0.00, -1.00, 1402.2, 820.0)"> </text><text xml:space="preserve" font-family="Helvetica,Helvetica" font-size="52.0" fill="#3E3E3E" transform="matrix(1.00, 0.00, -0.00, -1.00, 1416.7, 820.0)">o</text><text xml:space="preserve" font-family="Helvetica,Helvetica" font-size="52.0" fill="#3E3E3E" transform="matrix(1.00, 0.00, -0.00, -1.00, 1445.6, 820.0)">v</text><text xml:space="preserve" font-family="Helvetica,Helvetica" font-size="52.0" fill="#3E3E3E" transform="matrix(1.00, 0.00, -0.00, -1.00, 1471.6, 820.0)">e</text><text xml:space="preserve" font-family="Helvetica,Helvetica" font-size="52.0" fill="#3E3E3E" transform="matrix(1.00, 0.00, -0.00, -1.00, 1500.5, 820.0)">r</text><text xml:space="preserve" font-family="Helvetica,Helvetica" font-size="52.0" fill="#3E3E3E" transform="matrix(1.00, 0.00, -0.00, -1.00, 1517.9, 820.0)"> </text><text xml:space="preserve" font-family="Helvetica,Helvetica" font-size="52.0" fill="#3E3E3E" transform="matrix(1.00, 0.00, -0.00, -1.00, 1532.3, 820.0)">a</text><text xml:space="preserve" font-family="Helvetica,Helvetica" font-size="52.0" fill="#3E3E3E" transform="matrix(1.00, 0.00, -0.00, -1.00, 1561.2, 820.0)"> </text><text xml:space="preserve" font-family="Helvetica,Helvetica" font-size="52.0" fill="#3E3E3E" transform="matrix(1.00, 0.00, -0.00, -1.00, 1575.7, 820.0)">s</text><text xml:space="preserve" font-family="Helvetica,Helvetica" font-size="52.0" fill="#3E3E3E" transform="matrix(1.00, 0.00, -0.00, -1.00, 1601.7, 820.0)">i</text><text xml:space="preserve" font-family="Helvetica,Helvetica" font-size="52.0" fill="#3E3E3E" transform="matrix(1.00, 0.00, -0.00, -1.00, 1613.2, 820.0)">n</text><text xml:space="preserve" font-family="Helvetica,Helvetica" font-size="52.0" fill="#3E3E3E" transform="matrix(1.00, 0.00, -0.00, -1.00, 1642.2, 820.0)">g</text><text xml:space="preserve" font-family="Helvetica,Helvetica" font-size="52.0" fill="#3E3E3E" transform="matrix(1.00, 0.00, -0.00, -1.00, 1671.1, 820.0)">l</text><text xml:space="preserve" font-family="Helvetica,Helvetica" font-size="52.0" fill="#3E3E3E" transform="matrix(1.00, 0.00, -0.00, -1.00, 1682.6, 820.0)">e</text><text xml:space="preserve" font-family="Helvetica,Helvetica" font-size="52.0" fill="#3E3E3E" transform="matrix(1.00, 0.00, -0.00, -1.00, 1711.6, 820.0)"> </text><text xml:space="preserve" font-family="Helvetica,Helvetica" font-size="52.0" fill="#3E3E3E" transform="matrix(1.00, 0.00, -0.00, -1.00, 1725.1, 820.0)">T</text><text xml:space="preserve" font-family="Helvetica,Helvetica" font-size="52.0" fill="#3E3E3E" transform="matrix(1.00, 0.00, -0.00, -1.00, 1756.9, 820.0)">C</text><text xml:space="preserve" font-family="Helvetica,Helvetica" font-size="52.0" fill="#3E3E3E" transform="matrix(1.00, 0.00, -0.00, -1.00, 1794.4, 820.0)">P</text><text xml:space="preserve" font-family="Helvetica,Helvetica" font-size="52.0" fill="#3E3E3E" transform="matrix(1.00, 0.00, -0.00, -1.00, 1828.2, 820.0)"> </text><text xml:space="preserve" font-family="Helvetica,Helvetica" font-size="52.0" fill="#3E3E3E" transform="matrix(1.00, 0.00, -0.00, -1.00, 81.0, 758.0)">c</text><text xml:space="preserve" font-family="Helvetica,Helvetica" font-size="52.0" fill="#3E3E3E" transform="matrix(1.00, 0.00, -0.00, -1.00, 107.0, 758.0)">o</text><text xml:space="preserve" font-family="Helvetica,Helvetica" font-size="52.0" fill="#3E3E3E" transform="matrix(1.00, 0.00, -0.00, -1.00, 135.9, 758.0)">n</text><text xml:space="preserve" font-family="Helvetica,Helvetica" font-size="52.0" fill="#3E3E3E" transform="matrix(1.00, 0.00, -0.00, -1.00, 164.9, 758.0)">n</text><text xml:space="preserve" font-family="Helvetica,Helvetica" font-size="52.0" fill="#3E3E3E" transform="matrix(1.00, 0.00, -0.00, -1.00, 193.8, 758.0)">e</text><text xml:space="preserve" font-family="Helvetica,Helvetica" font-size="52.0" fill="#3E3E3E" transform="matrix(1.00, 0.00, -0.00, -1.00, 222.7, 758.0)">c</text><text xml:space="preserve" font-family="Helvetica,Helvetica" font-size="52.0" fill="#3E3E3E" transform="matrix(1.00, 0.00, -0.00, -1.00, 248.7, 758.0)">t</text><text xml:space="preserve" font-family="Helvetica,Helvetica" font-size="52.0" fill="#3E3E3E" transform="matrix(1.00, 0.00, -0.00, -1.00, 263.2, 758.0)">i</text><text xml:space="preserve" font-family="Helvetica,Helvetica" font-size="52.0" fill="#3E3E3E" transform="matrix(1.00, 0.00, -0.00, -1.00, 274.7, 758.0)">o</text><text xml:space="preserve" font-family="Helvetica,Helvetica" font-size="52.0" fill="#3E3E3E" transform="matrix(1.00, 0.00, -0.00, -1.00, 303.7, 758.0)">n</text><text xml:space="preserve" font-family="Helvetica,Helvetica" font-size="42.6" fill="#525252" transform="matrix(1.00, 0.00, -0.00, -1.00, 57.0, 644.8)">•</text><text xml:space="preserve" font-family="Helvetica,Helvetica" font-size="52.0" fill="#3E3E3E" transform="matrix(1.00, 0.00, -0.00, -1.00, 81.0, 642.0)">O</text><text xml:space="preserve" font-family="Helvetica,Helvetica" font-size="52.0" fill="#3E3E3E" transform="matrix(1.00, 0.00, -0.00, -1.00, 121.4, 642.0)">n</text><text xml:space="preserve" font-family="Helvetica,Helvetica" font-size="52.0" fill="#3E3E3E" transform="matrix(1.00, 0.00, -0.00, -1.00, 150.4, 642.0)">l</text><text xml:space="preserve" font-family="Helvetica,Helvetica" font-size="52.0" fill="#3E3E3E" transform="matrix(1.00, 0.00, -0.00, -1.00, 161.9, 642.0)">y</text><text xml:space="preserve" font-family="Helvetica,Helvetica" font-size="52.0" fill="#3E3E3E" transform="matrix(1.00, 0.00, -0.00, -1.00, 187.9, 642.0)"> </text><text xml:space="preserve" font-family="Helvetica,Helvetica" font-size="52.0" fill="#3E3E3E" transform="matrix(1.00, 0.00, -0.00, -1.00, 202.4, 642.0)">B</text><text xml:space="preserve" font-family="Helvetica,Helvetica" font-size="52.0" fill="#3E3E3E" transform="matrix(1.00, 0.00, -0.00, -1.00, 237.1, 642.0)">2</text><text xml:space="preserve" font-family="Helvetica,Helvetica" font-size="52.0" fill="#3E3E3E" transform="matrix(1.00, 0.00, -0.00, -1.00, 266.0, 642.0)">G</text><text xml:space="preserve" font-family="Helvetica,Helvetica" font-size="52.0" fill="#3E3E3E" transform="matrix(1.00, 0.00, -0.00, -1.00, 306.4, 642.0)"> </text><text xml:space="preserve" font-family="Helvetica,Helvetica" font-size="52.0" fill="#3E3E3E" transform="matrix(1.00, 0.00, -0.00, -1.00, 320.9, 642.0)">m</text><text xml:space="preserve" font-family="Helvetica,Helvetica" font-size="52.0" fill="#3E3E3E" transform="matrix(1.00, 0.00, -0.00, -1.00, 364.2, 642.0)">a</text><text xml:space="preserve" font-family="Helvetica,Helvetica" font-size="52.0" fill="#3E3E3E" transform="matrix(1.00, 0.00, -0.00, -1.00, 393.1, 642.0)">i</text><text xml:space="preserve" font-family="Helvetica,Helvetica" font-size="52.0" fill="#3E3E3E" transform="matrix(1.00, 0.00, -0.00, -1.00, 404.7, 642.0)">n</text><text xml:space="preserve" font-family="Helvetica,Helvetica" font-size="52.0" fill="#3E3E3E" transform="matrix(1.00, 0.00, -0.00, -1.00, 433.6, 642.0)"> </text><text xml:space="preserve" font-family="Helvetica,Helvetica" font-size="52.0" fill="#3E3E3E" transform="matrix(1.00, 0.00, -0.00, -1.00, 448.0, 642.0)">t</text><text xml:space="preserve" font-family="Helvetica,Helvetica" font-size="52.0" fill="#3E3E3E" transform="matrix(1.00, 0.00, -0.00, -1.00, 462.5, 642.0)">h</text><text xml:space="preserve" font-family="Helvetica,Helvetica" font-size="52.0" fill="#3E3E3E" transform="matrix(1.00, 0.00, -0.00, -1.00, 491.4, 642.0)">r</text><text xml:space="preserve" font-family="Helvetica,Helvetica" font-size="52.0" fill="#3E3E3E" transform="matrix(1.00, 0.00, -0.00, -1.00, 508.7, 642.0)">e</text><text xml:space="preserve" font-family="Helvetica,Helvetica" font-size="52.0" fill="#3E3E3E" transform="matrix(1.00, 0.00, -0.00, -1.00, 537.6, 642.0)">a</text><text xml:space="preserve" font-family="Helvetica,Helvetica" font-size="52.0" fill="#3E3E3E" transform="matrix(1.00, 0.00, -0.00, -1.00, 566.6, 642.0)">d</text><text xml:space="preserve" font-family="Helvetica,Helvetica" font-size="52.0" fill="#3E3E3E" transform="matrix(1.00, 0.00, -0.00, -1.00, 595.5, 642.0)"> </text><text xml:space="preserve" font-family="Helvetica,Helvetica" font-size="52.0" fill="#3E3E3E" transform="matrix(1.00, 0.00, -0.00, -1.00, 609.9, 642.0)">c</text><text xml:space="preserve" font-family="Helvetica,Helvetica" font-size="52.0" fill="#3E3E3E" transform="matrix(1.00, 0.00, -0.00, -1.00, 635.9, 642.0)">a</text><text xml:space="preserve" font-family="Helvetica,Helvetica" font-size="52.0" fill="#3E3E3E" transform="matrix(1.00, 0.00, -0.00, -1.00, 664.9, 642.0)">n</text><text xml:space="preserve" font-family="Helvetica,Helvetica" font-size="52.0" fill="#3E3E3E" transform="matrix(1.00, 0.00, -0.00, -1.00, 693.8, 642.0)"> </text><text xml:space="preserve" font-family="Helvetica,Helvetica" font-size="52.0" fill="#3E3E3E" transform="matrix(1.00, 0.00, -0.00, -1.00, 708.2, 642.0)">c</text><text xml:space="preserve" font-family="Helvetica,Helvetica" font-size="52.0" fill="#3E3E3E" transform="matrix(1.00, 0.00, -0.00, -1.00, 734.2, 642.0)">r</text><text xml:space="preserve" font-family="Helvetica,Helvetica" font-size="52.0" fill="#3E3E3E" transform="matrix(1.00, 0.00, -0.00, -1.00, 751.6, 642.0)">e</text><text xml:space="preserve" font-family="Helvetica,Helvetica" font-size="52.0" fill="#3E3E3E" transform="matrix(1.00, 0.00, -0.00, -1.00, 780.5, 642.0)">a</text><text xml:space="preserve" font-family="Helvetica,Helvetica" font-size="52.0" fill="#3E3E3E" transform="matrix(1.00, 0.00, -0.00, -1.00, 809.4, 642.0)">t</text><text xml:space="preserve" font-family="Helvetica,Helvetica" font-size="52.0" fill="#3E3E3E" transform="matrix(1.00, 0.00, -0.00, -1.00, 823.9, 642.0)">e</text><text xml:space="preserve" font-family="Helvetica,Helvetica" font-size="52.0" fill="#3E3E3E" transform="matrix(1.00, 0.00, -0.00, -1.00, 852.8, 642.0)"> </text><text xml:space="preserve" font-family="Helvetica,Helvetica" font-size="52.0" fill="#3E3E3E" transform="matrix(1.00, 0.00, -0.00, -1.00, 867.2, 642.0)">w</text><text xml:space="preserve" font-family="Helvetica,Helvetica" font-size="52.0" fill="#3E3E3E" transform="matrix(1.00, 0.00, -0.00, -1.00, 904.8, 642.0)">e</text><text xml:space="preserve" font-family="Helvetica,Helvetica" font-size="52.0" fill="#3E3E3E" transform="matrix(1.00, 0.00, -0.00, -1.00, 933.7, 642.0)">b</text><text xml:space="preserve" font-family="Helvetica,Helvetica" font-size="52.0" fill="#3E3E3E" transform="matrix(1.00, 0.00, -0.00, -1.00, 962.6, 642.0)"> </text><text xml:space="preserve" font-family="Helvetica,Helvetica" font-size="52.0" fill="#3E3E3E" transform="matrix(1.00, 0.00, -0.00, -1.00, 977.1, 642.0)">s</text><text xml:space="preserve" font-family="Helvetica,Helvetica" font-size="52.0" fill="#3E3E3E" transform="matrix(1.00, 0.00, -0.00, -1.00, 1003.1, 642.0)">o</text><text xml:space="preserve" font-family="Helvetica,Helvetica" font-size="52.0" fill="#3E3E3E" transform="matrix(1.00, 0.00, -0.00, -1.00, 1032.0, 642.0)">c</text><text xml:space="preserve" font-family="Helvetica,Helvetica" font-size="52.0" fill="#3E3E3E" transform="matrix(1.00, 0.00, -0.00, -1.00, 1058.0, 642.0)">k</text><text xml:space="preserve" font-family="Helvetica,Helvetica" font-size="52.0" fill="#3E3E3E" transform="matrix(1.00, 0.00, -0.00, -1.00, 1084.0, 642.0)">e</text><text xml:space="preserve" font-family="Helvetica,Helvetica" font-size="52.0" fill="#3E3E3E" transform="matrix(1.00, 0.00, -0.00, -1.00, 1112.9, 642.0)">t</text><text xml:space="preserve" font-family="Helvetica,Helvetica" font-size="42.6" fill="#525252" transform="matrix(1.00, 0.00, -0.00, -1.00, 57.0, 528.8)">•</text><text xml:space="preserve" font-family="Helvetica,Helvetica" font-size="52.0" fill="#3E3E3E" transform="matrix(1.00, 0.00, -0.00, -1.00, 81.0, 526.0)">T</text><text xml:space="preserve" font-family="Helvetica,Helvetica" font-size="52.0" fill="#3E3E3E" transform="matrix(1.00, 0.00, -0.00, -1.00, 107.0, 526.0)">o</text><text xml:space="preserve" font-family="Helvetica,Helvetica" font-size="52.0" fill="#3E3E3E" transform="matrix(1.00, 0.00, -0.00, -1.00, 135.9, 526.0)"> </text><text xml:space="preserve" font-family="Helvetica,Helvetica" font-size="52.0" fill="#3E3E3E" transform="matrix(1.00, 0.00, -0.00, -1.00, 150.4, 526.0)">e</text><text xml:space="preserve" font-family="Helvetica,Helvetica" font-size="52.0" fill="#3E3E3E" transform="matrix(1.00, 0.00, -0.00, -1.00, 179.3, 526.0)">s</text><text xml:space="preserve" font-family="Helvetica,Helvetica" font-size="52.0" fill="#3E3E3E" transform="matrix(1.00, 0.00, -0.00, -1.00, 205.3, 526.0)">t</text><text xml:space="preserve" font-family="Helvetica,Helvetica" font-size="52.0" fill="#3E3E3E" transform="matrix(1.00, 0.00, -0.00, -1.00, 219.7, 526.0)">a</text><text xml:space="preserve" font-family="Helvetica,Helvetica" font-size="52.0" fill="#3E3E3E" transform="matrix(1.00, 0.00, -0.00, -1.00, 248.7, 526.0)">b</text><text xml:space="preserve" font-family="Helvetica,Helvetica" font-size="52.0" fill="#3E3E3E" transform="matrix(1.00, 0.00, -0.00, -1.00, 277.6, 526.0)">l</text><text xml:space="preserve" font-family="Helvetica,Helvetica" font-size="52.0" fill="#3E3E3E" transform="matrix(1.00, 0.00, -0.00, -1.00, 289.1, 526.0)">i</text><text xml:space="preserve" font-family="Helvetica,Helvetica" font-size="52.0" fill="#3E3E3E" transform="matrix(1.00, 0.00, -0.00, -1.00, 300.7, 526.0)">s</text><text xml:space="preserve" font-family="Helvetica,Helvetica" font-size="52.0" fill="#3E3E3E" transform="matrix(1.00, 0.00, -0.00, -1.00, 326.7, 526.0)">h</text><text xml:space="preserve" font-family="Helvetica,Helvetica" font-size="52.0" fill="#3E3E3E" transform="matrix(1.00, 0.00, -0.00, -1.00, 355.6, 526.0)"> </text><text xml:space="preserve" font-family="Helvetica,Helvetica" font-size="52.0" fill="#3E3E3E" transform="matrix(1.00, 0.00, -0.00, -1.00, 370.1, 526.0)">a</text><text xml:space="preserve" font-family="Helvetica,Helvetica" font-size="52.0" fill="#3E3E3E" transform="matrix(1.00, 0.00, -0.00, -1.00, 399.0, 526.0)"> </text><text xml:space="preserve" font-family="Helvetica,Helvetica" font-size="52.0" fill="#3E3E3E" transform="matrix(1.00, 0.00, -0.00, -1.00, 413.4, 526.0)">W</text><text xml:space="preserve" font-family="Helvetica,Helvetica" font-size="52.0" fill="#3E3E3E" transform="matrix(1.00, 0.00, -0.00, -1.00, 461.6, 526.0)">e</text><text xml:space="preserve" font-family="Helvetica,Helvetica" font-size="52.0" fill="#3E3E3E" transform="matrix(1.00, 0.00, -0.00, -1.00, 490.5, 526.0)">b</text><text xml:space="preserve" font-family="Helvetica,Helvetica" font-size="52.0" fill="#3E3E3E" transform="matrix(1.00, 0.00, -0.00, -1.00, 519.5, 526.0)">S</text><text xml:space="preserve" font-family="Helvetica,Helvetica" font-size="52.0" fill="#3E3E3E" transform="matrix(1.00, 0.00, -0.00, -1.00, 554.2, 526.0)">o</text><text xml:space="preserve" font-family="Helvetica,Helvetica" font-size="52.0" fill="#3E3E3E" transform="matrix(1.00, 0.00, -0.00, -1.00, 583.1, 526.0)">c</text><text xml:space="preserve" font-family="Helvetica,Helvetica" font-size="52.0" fill="#3E3E3E" transform="matrix(1.00, 0.00, -0.00, -1.00, 609.1, 526.0)">k</text><text xml:space="preserve" font-family="Helvetica,Helvetica" font-size="52.0" fill="#3E3E3E" transform="matrix(1.00, 0.00, -0.00, -1.00, 635.1, 526.0)">e</text><text xml:space="preserve" font-family="Helvetica,Helvetica" font-size="52.0" fill="#3E3E3E" transform="matrix(1.00, 0.00, -0.00, -1.00, 664.0, 526.0)">t</text><text xml:space="preserve" font-family="Helvetica,Helvetica" font-size="52.0" fill="#3E3E3E" transform="matrix(1.00, 0.00, -0.00, -1.00, 678.4, 526.0)"> </text><text xml:space="preserve" font-family="Helvetica,Helvetica" font-size="52.0" fill="#3E3E3E" transform="matrix(1.00, 0.00, -0.00, -1.00, 692.9, 526.0)">c</text><text xml:space="preserve" font-family="Helvetica,Helvetica" font-size="52.0" fill="#3E3E3E" transform="matrix(1.00, 0.00, -0.00, -1.00, 718.9, 526.0)">o</text><text xml:space="preserve" font-family="Helvetica,Helvetica" font-size="52.0" fill="#3E3E3E" transform="matrix(1.00, 0.00, -0.00, -1.00, 747.8, 526.0)">n</text><text xml:space="preserve" font-family="Helvetica,Helvetica" font-size="52.0" fill="#3E3E3E" transform="matrix(1.00, 0.00, -0.00, -1.00, 776.7, 526.0)">n</text><text xml:space="preserve" font-family="Helvetica,Helvetica" font-size="52.0" fill="#3E3E3E" transform="matrix(1.00, 0.00, -0.00, -1.00, 805.7, 526.0)">e</text><text xml:space="preserve" font-family="Helvetica,Helvetica" font-size="52.0" fill="#3E3E3E" transform="matrix(1.00, 0.00, -0.00, -1.00, 834.6, 526.0)">c</text><text xml:space="preserve" font-family="Helvetica,Helvetica" font-size="52.0" fill="#3E3E3E" transform="matrix(1.00, 0.00, -0.00, -1.00, 860.6, 526.0)">t</text><text xml:space="preserve" font-family="Helvetica,Helvetica" font-size="52.0" fill="#3E3E3E" transform="matrix(1.00, 0.00, -0.00, -1.00, 875.0, 526.0)">i</text><text xml:space="preserve" font-family="Helvetica,Helvetica" font-size="52.0" fill="#3E3E3E" transform="matrix(1.00, 0.00, -0.00, -1.00, 886.6, 526.0)">o</text><text xml:space="preserve" font-family="Helvetica,Helvetica" font-size="52.0" fill="#3E3E3E" transform="matrix(1.00, 0.00, -0.00, -1.00, 915.5, 526.0)">n</text><text xml:space="preserve" font-family="Helvetica,Helvetica" font-size="52.0" fill="#3E3E3E" transform="matrix(1.00, 0.00, -0.00, -1.00, 944.4, 526.0)"> </text><text xml:space="preserve" font-family="Helvetica,Helvetica" font-size="52.0" fill="#3E3E3E" transform="matrix(1.00, 0.00, -0.00, -1.00, 958.8, 526.0)">(</text><text xml:space="preserve" font-family="Helvetica,Helvetica" font-size="52.0" fill="#3E3E3E" transform="matrix(1.00, 0.00, -0.00, -1.00, 976.1, 526.0)">2</text><text xml:space="preserve" font-family="Helvetica,Helvetica" font-size="52.0" fill="#3E3E3E" transform="matrix(1.00, 0.00, -0.00, -1.00, 1005.0, 526.0)">-</text><text xml:space="preserve" font-family="Helvetica,Helvetica" font-size="52.0" fill="#3E3E3E" transform="matrix(1.00, 0.00, -0.00, -1.00, 1022.4, 526.0)">w</text><text xml:space="preserve" font-family="Helvetica,Helvetica" font-size="52.0" fill="#3E3E3E" transform="matrix(1.00, 0.00, -0.00, -1.00, 1059.9, 526.0)">a</text><text xml:space="preserve" font-family="Helvetica,Helvetica" font-size="52.0" fill="#3E3E3E" transform="matrix(1.00, 0.00, -0.00, -1.00, 1088.9, 526.0)">y</text><text xml:space="preserve" font-family="Helvetica,Helvetica" font-size="52.0" fill="#3E3E3E" transform="matrix(1.00, 0.00, -0.00, -1.00, 1114.9, 526.0)">)</text><text xml:space="preserve" font-family="Helvetica,Helvetica" font-size="52.0" fill="#3E3E3E" transform="matrix(1.00, 0.00, -0.00, -1.00, 1132.2, 526.0)">:</text><text xml:space="preserve" font-family="GillSans-Light,Gill Sans" font-size="24.0" fill="#525252" transform="matrix(1.00, 0.00, -0.00, -1.00, 954.5, 24.7)">7</text><path d="M 427.0 400.0 L 640.0 400.0 L 640.0 176.0 L 427.0 176.0 Z M 427.5 400.1 " fill="#7F8685"></path><g><clipPath id="clip0x7fad0dc40cf0"><path d="M 417.3 176.0 L 650.7 176.0 L 650.7 400.1 L 417.3 400.1 Z M 417.3 176.0 "></path></clipPath><g clip-path="url(#clip0x7fad0dc40cf0)"><text xml:space="preserve" font-family="GillSans-Light,Gill Sans" font-size="50.0" fill="#FEFFFF" transform="matrix(1.00, 0.00, -0.00, -1.00, 469.6, 271.0)">S</text><text xml:space="preserve" font-family="GillSans-Light,Gill Sans" font-size="50.0" fill="#FEFFFF" transform="matrix(1.00, 0.00, -0.00, -1.00, 493.1, 271.0)">e</text><text xml:space="preserve" font-family="GillSans-Light,Gill Sans" font-size="50.0" fill="#FEFFFF" transform="matrix(1.00, 0.00, -0.00, -1.00, 517.0, 271.0)">r</text><text xml:space="preserve" font-family="GillSans-Light,Gill Sans" font-size="50.0" fill="#FEFFFF" transform="matrix(1.00, 0.00, -0.00, -1.00, 537.2, 271.0)">v</text><text xml:space="preserve" font-family="GillSans-Light,Gill Sans" font-size="50.0" fill="#FEFFFF" transform="matrix(1.00, 0.00, -0.00, -1.00, 557.7, 271.0)">e</text><text xml:space="preserve" font-family="GillSans-Light,Gill Sans" font-size="50.0" fill="#FEFFFF" transform="matrix(1.00, 0.00, -0.00, -1.00, 581.7, 271.0)">r</text></g></g><path d="M 1132.0 400.0 L 1345.0 400.0 L 1345.0 176.0 L 1132.0 176.0 Z M 1132.2 400.1 " fill="#7F8685"></path><g><clipPath id="clip0x7fad0dc44550"><path d="M 1122.0 176.0 L 1355.4 176.0 L 1355.4 400.1 L 1122.0 400.1 Z M 1122.0 176.0 "></path></clipPath><g clip-path="url(#clip0x7fad0dc44550)"><text xml:space="preserve" font-family="GillSans-Light,Gill Sans" font-size="50.0" fill="#FEFFFF" transform="matrix(1.00, 0.00, -0.00, -1.00, 1180.6, 271.0)">C</text><text xml:space="preserve" font-family="GillSans-Light,Gill Sans" font-size="50.0" fill="#FEFFFF" transform="matrix(1.00, 0.00, -0.00, -1.00, 1214.5, 271.0)">l</text><text xml:space="preserve" font-family="GillSans-Light,Gill Sans" font-size="50.0" fill="#FEFFFF" transform="matrix(1.00, 0.00, -0.00, -1.00, 1223.9, 271.0)">i</text><text xml:space="preserve" font-family="GillSans-Light,Gill Sans" font-size="50.0" fill="#FEFFFF" transform="matrix(1.00, 0.00, -0.00, -1.00, 1233.3, 271.0)">e</text><text xml:space="preserve" font-family="GillSans-Light,Gill Sans" font-size="50.0" fill="#FEFFFF" transform="matrix(1.00, 0.00, -0.00, -1.00, 1257.2, 271.0)">n</text><text xml:space="preserve" font-family="GillSans-Light,Gill Sans" font-size="50.0" fill="#FEFFFF" transform="matrix(1.00, 0.00, -0.00, -1.00, 1281.7, 271.0)">t</text></g></g><g><clipPath id="clip0x7fad0dc47770"><path d="M 647.8 213.3 L 1109.8 213.3 L 1109.8 272.0 L 647.8 272.0 Z M 647.8 213.3 "></path></clipPath><g clip-path="url(#clip0x7fad0dc47770)"><image xlink:href="../../E762FFDA-B531-4E02-855D-32971CD8B3ED/assets/5351BF47FA174490505ABDF17EB6D7E4.png" width="460.00" height="57.00" transform="matrix(1.00, 0.00, -0.00, -0.99, 648.8, 271.0)" opacity="0.50"></image></g></g><g><clipPath id="clip0x7fad0dd33480"><path d="M 1042.0 237.0 L 1042.0 219.3 L 1105.8 244.6 L 1042.0 270.0 L 1042.0 253.0 L 652.0 253.0 L 652.0 237.0 Z M 1041.8 236.5 "></path></clipPath><g clip-path="url(#clip0x7fad0dd33480)"><g><clipPath id="clip0x7fad0dd33c60"><path d="M 647.8 213.3 L 1109.8 213.3 L 1109.8 272.0 L 647.8 272.0 Z M 647.8 213.3 "></path></clipPath><g clip-path="url(#clip0x7fad0dd33c60)"><path d="M 652.0 219.3 L 1105.8 219.3 L 1105.8 270.0 L 652.0 270.0 Z M 652.0 219.3 " fill="url(#D4E96583-79A6-4ED3-9CFC-71ED7C0F02BD)"></path></g></g></g></g><g><clipPath id="clip0x7fad0dc48fb0"><path d="M 688.8 173.5 L 1063.2 173.5 L 1063.2 241.5 L 688.8 241.5 Z M 688.8 173.5 "></path></clipPath><g clip-path="url(#clip0x7fad0dc48fb0)"><text xml:space="preserve" font-family="Helvetica,Helvetica" font-size="40.0" fill="#525252" transform="matrix(1.00, 0.00, -0.00, -1.00, 699.3, 192.7)">h</text><text xml:space="preserve" font-family="Helvetica,Helvetica" font-size="40.0" fill="#525252" transform="matrix(1.00, 0.00, -0.00, -1.00, 720.6, 192.7)">a</text><text xml:space="preserve" font-family="Helvetica,Helvetica" font-size="40.0" fill="#525252" transform="matrix(1.00, 0.00, -0.00, -1.00, 741.8, 192.7)">n</text><text xml:space="preserve" font-family="Helvetica,Helvetica" font-size="40.0" fill="#525252" transform="matrix(1.00, 0.00, -0.00, -1.00, 763.1, 192.7)">d</text><text xml:space="preserve" font-family="Helvetica,Helvetica" font-size="40.0" fill="#525252" transform="matrix(1.00, 0.00, -0.00, -1.00, 784.4, 192.7)">s</text><text xml:space="preserve" font-family="Helvetica,Helvetica" font-size="40.0" fill="#525252" transform="matrix(1.00, 0.00, -0.00, -1.00, 803.4, 192.7)">h</text><text xml:space="preserve" font-family="Helvetica,Helvetica" font-size="40.0" fill="#525252" transform="matrix(1.00, 0.00, -0.00, -1.00, 824.6, 192.7)">a</text><text xml:space="preserve" font-family="Helvetica,Helvetica" font-size="40.0" fill="#525252" transform="matrix(1.00, 0.00, -0.00, -1.00, 845.9, 192.7)">k</text><text xml:space="preserve" font-family="Helvetica,Helvetica" font-size="40.0" fill="#525252" transform="matrix(1.00, 0.00, -0.00, -1.00, 864.9, 192.7)">e</text><text xml:space="preserve" font-family="Helvetica,Helvetica" font-size="40.0" fill="#525252" transform="matrix(1.00, 0.00, -0.00, -1.00, 886.1, 192.7)"> </text><text xml:space="preserve" font-family="Helvetica,Helvetica" font-size="40.0" fill="#525252" transform="matrix(1.00, 0.00, -0.00, -1.00, 896.3, 192.7)">r</text><text xml:space="preserve" font-family="Helvetica,Helvetica" font-size="40.0" fill="#525252" transform="matrix(1.00, 0.00, -0.00, -1.00, 908.6, 192.7)">e</text><text xml:space="preserve" font-family="Helvetica,Helvetica" font-size="40.0" fill="#525252" transform="matrix(1.00, 0.00, -0.00, -1.00, 929.8, 192.7)">s</text><text xml:space="preserve" font-family="Helvetica,Helvetica" font-size="40.0" fill="#525252" transform="matrix(1.00, 0.00, -0.00, -1.00, 948.8, 192.7)">p</text><text xml:space="preserve" font-family="Helvetica,Helvetica" font-size="40.0" fill="#525252" transform="matrix(1.00, 0.00, -0.00, -1.00, 970.1, 192.7)">o</text><text xml:space="preserve" font-family="Helvetica,Helvetica" font-size="40.0" fill="#525252" transform="matrix(1.00, 0.00, -0.00, -1.00, 991.4, 192.7)">n</text><text xml:space="preserve" font-family="Helvetica,Helvetica" font-size="40.0" fill="#525252" transform="matrix(1.00, 0.00, -0.00, -1.00, 1012.6, 192.7)">s</text><text xml:space="preserve" font-family="Helvetica,Helvetica" font-size="40.0" fill="#525252" transform="matrix(1.00, 0.00, -0.00, -1.00, 1031.6, 192.7)">e</text></g></g></g></svg>