<?xml version="1.0" encoding="UTF-8" standalone="no"?><svg xmlns="http://www.w3.org/2000/svg" xmlns:xlink="http://www.w3.org/1999/xlink" clip-rule="evenodd" stroke-miterlimit="10" viewBox="0 0 1772 347"><desc>SVG generated by Keynote</desc><defs></defs><g transform="matrix(1.00, 0.00, -0.00, -1.00, 0.0, 347.0)"><text xml:space="preserve" font-family="Helvetica,Helvetica" font-size="42.6" fill="#525252" transform="matrix(1.00, 0.00, -0.00, -1.00, 0.0, 309.8)">•</text><text xml:space="preserve" font-family="Helvetica,Helvetica" font-size="52.0" fill="#3E3E3E" transform="matrix(1.00, 0.00, -0.00, -1.00, 24.0, 307.0)">A</text><text xml:space="preserve" font-family="Helvetica,Helvetica" font-size="52.0" fill="#3E3E3E" transform="matrix(1.00, 0.00, -0.00, -1.00, 55.8, 307.0)"> </text><text xml:space="preserve" font-family="Helvetica,Helvetica" font-size="52.0" fill="#3E3E3E" transform="matrix(1.00, 0.00, -0.00, -1.00, 70.3, 307.0)">p</text><text xml:space="preserve" font-family="Helvetica,Helvetica" font-size="52.0" fill="#3E3E3E" transform="matrix(1.00, 0.00, -0.00, -1.00, 99.2, 307.0)">r</text><text xml:space="preserve" font-family="Helvetica,Helvetica" font-size="52.0" fill="#3E3E3E" transform="matrix(1.00, 0.00, -0.00, -1.00, 116.5, 307.0)">o</text><text xml:space="preserve" font-family="Helvetica,Helvetica" font-size="52.0" fill="#3E3E3E" transform="matrix(1.00, 0.00, -0.00, -1.00, 145.5, 307.0)">t</text><text xml:space="preserve" font-family="Helvetica,Helvetica" font-size="52.0" fill="#3E3E3E" transform="matrix(1.00, 0.00, -0.00, -1.00, 159.9, 307.0)">o</text><text xml:space="preserve" font-family="Helvetica,Helvetica" font-size="52.0" fill="#3E3E3E" transform="matrix(1.00, 0.00, -0.00, -1.00, 188.8, 307.0)">c</text><text xml:space="preserve" font-family="Helvetica,Helvetica" font-size="52.0" fill="#3E3E3E" transform="matrix(1.00, 0.00, -0.00, -1.00, 214.8, 307.0)">o</text><text xml:space="preserve" font-family="Helvetica,Helvetica" font-size="52.0" fill="#3E3E3E" transform="matrix(1.00, 0.00, -0.00, -1.00, 243.8, 307.0)">l</text><text xml:space="preserve" font-family="Helvetica,Helvetica" font-size="52.0" fill="#3E3E3E" transform="matrix(1.00, 0.00, -0.00, -1.00, 255.3, 307.0)"> </text><text xml:space="preserve" font-family="Helvetica,Helvetica" font-size="52.0" fill="#3E3E3E" transform="matrix(1.00, 0.00, -0.00, -1.00, 269.8, 307.0)">p</text><text xml:space="preserve" font-family="Helvetica,Helvetica" font-size="52.0" fill="#3E3E3E" transform="matrix(1.00, 0.00, -0.00, -1.00, 298.7, 307.0)">r</text><text xml:space="preserve" font-family="Helvetica,Helvetica" font-size="52.0" fill="#3E3E3E" transform="matrix(1.00, 0.00, -0.00, -1.00, 316.0, 307.0)">o</text><text xml:space="preserve" font-family="Helvetica,Helvetica" font-size="52.0" fill="#3E3E3E" transform="matrix(1.00, 0.00, -0.00, -1.00, 344.9, 307.0)">v</text><text xml:space="preserve" font-family="Helvetica,Helvetica" font-size="52.0" fill="#3E3E3E" transform="matrix(1.00, 0.00, -0.00, -1.00, 370.9, 307.0)">i</text><text xml:space="preserve" font-family="Helvetica,Helvetica" font-size="52.0" fill="#3E3E3E" transform="matrix(1.00, 0.00, -0.00, -1.00, 382.5, 307.0)">d</text><text xml:space="preserve" font-family="Helvetica,Helvetica" font-size="52.0" fill="#3E3E3E" transform="matrix(1.00, 0.00, -0.00, -1.00, 411.4, 307.0)">i</text><text xml:space="preserve" font-family="Helvetica,Helvetica" font-size="52.0" fill="#3E3E3E" transform="matrix(1.00, 0.00, -0.00, -1.00, 423.0, 307.0)">n</text><text xml:space="preserve" font-family="Helvetica,Helvetica" font-size="52.0" fill="#3E3E3E" transform="matrix(1.00, 0.00, -0.00, -1.00, 451.9, 307.0)">g</text><text xml:space="preserve" font-family="Helvetica,Helvetica" font-size="52.0" fill="#3E3E3E" transform="matrix(1.00, 0.00, -0.00, -1.00, 480.8, 307.0)"> </text><text xml:space="preserve" font-family="Helvetica,Helvetica" font-size="52.0" fill="#3E3E3E" transform="matrix(1.00, 0.00, -0.00, -1.00, 495.3, 307.0)">f</text><text xml:space="preserve" font-family="Helvetica,Helvetica" font-size="52.0" fill="#3E3E3E" transform="matrix(1.00, 0.00, -0.00, -1.00, 509.7, 307.0)">u</text><text xml:space="preserve" font-family="Helvetica,Helvetica" font-size="52.0" fill="#3E3E3E" transform="matrix(1.00, 0.00, -0.00, -1.00, 538.6, 307.0)">l</text><text xml:space="preserve" font-family="Helvetica,Helvetica" font-size="52.0" fill="#3E3E3E" transform="matrix(1.00, 0.00, -0.00, -1.00, 550.2, 307.0)">l</text><text xml:space="preserve" font-family="Helvetica,Helvetica" font-size="52.0" fill="#3E3E3E" transform="matrix(1.00, 0.00, -0.00, -1.00, 561.8, 307.0)">-</text><text xml:space="preserve" font-family="Helvetica,Helvetica" font-size="52.0" fill="#3E3E3E" transform="matrix(1.00, 0.00, -0.00, -1.00, 579.1, 307.0)">d</text><text xml:space="preserve" font-family="Helvetica,Helvetica" font-size="52.0" fill="#3E3E3E" transform="matrix(1.00, 0.00, -0.00, -1.00, 608.0, 307.0)">u</text><text xml:space="preserve" font-family="Helvetica,Helvetica" font-size="52.0" fill="#3E3E3E" transform="matrix(1.00, 0.00, -0.00, -1.00, 637.0, 307.0)">p</text><text xml:space="preserve" font-family="Helvetica,Helvetica" font-size="52.0" fill="#3E3E3E" transform="matrix(1.00, 0.00, -0.00, -1.00, 665.9, 307.0)">l</text><text xml:space="preserve" font-family="Helvetica,Helvetica" font-size="52.0" fill="#3E3E3E" transform="matrix(1.00, 0.00, -0.00, -1.00, 677.4, 307.0)">e</text><text xml:space="preserve" font-family="Helvetica,Helvetica" font-size="52.0" fill="#3E3E3E" transform="matrix(1.00, 0.00, -0.00, -1.00, 706.4, 307.0)">x</text><text xml:space="preserve" font-family="Helvetica,Helvetica" font-size="52.0" fill="#3E3E3E" transform="matrix(1.00, 0.00, -0.00, -1.00, 732.4, 307.0)"> </text><text xml:space="preserve" font-family="Helvetica,Helvetica" font-size="52.0" fill="#3E3E3E" transform="matrix(1.00, 0.00, -0.00, -1.00, 746.8, 307.0)">c</text><text xml:space="preserve" font-family="Helvetica,Helvetica" font-size="52.0" fill="#3E3E3E" transform="matrix(1.00, 0.00, -0.00, -1.00, 772.8, 307.0)">o</text><text xml:space="preserve" font-family="Helvetica,Helvetica" font-size="52.0" fill="#3E3E3E" transform="matrix(1.00, 0.00, -0.00, -1.00, 801.7, 307.0)">m</text><text xml:space="preserve" font-family="Helvetica,Helvetica" font-size="52.0" fill="#3E3E3E" transform="matrix(1.00, 0.00, -0.00, -1.00, 845.1, 307.0)">m</text><text xml:space="preserve" font-family="Helvetica,Helvetica" font-size="52.0" fill="#3E3E3E" transform="matrix(1.00, 0.00, -0.00, -1.00, 888.4, 307.0)">u</text><text xml:space="preserve" font-family="Helvetica,Helvetica" font-size="52.0" fill="#3E3E3E" transform="matrix(1.00, 0.00, -0.00, -1.00, 917.3, 307.0)">n</text><text xml:space="preserve" font-family="Helvetica,Helvetica" font-size="52.0" fill="#3E3E3E" transform="matrix(1.00, 0.00, -0.00, -1.00, 946.2, 307.0)">i</text><text xml:space="preserve" font-family="Helvetica,Helvetica" font-size="52.0" fill="#3E3E3E" transform="matrix(1.00, 0.00, -0.00, -1.00, 957.8, 307.0)">c</text><text xml:space="preserve" font-family="Helvetica,Helvetica" font-size="52.0" fill="#3E3E3E" transform="matrix(1.00, 0.00, -0.00, -1.00, 983.8, 307.0)">a</text><text xml:space="preserve" font-family="Helvetica,Helvetica" font-size="52.0" fill="#3E3E3E" transform="matrix(1.00, 0.00, -0.00, -1.00, 1012.7, 307.0)">t</text><text xml:space="preserve" font-family="Helvetica,Helvetica" font-size="52.0" fill="#3E3E3E" transform="matrix(1.00, 0.00, -0.00, -1.00, 1027.2, 307.0)">i</text><text xml:space="preserve" font-family="Helvetica,Helvetica" font-size="52.0" fill="#3E3E3E" transform="matrix(1.00, 0.00, -0.00, -1.00, 1038.7, 307.0)">o</text><text xml:space="preserve" font-family="Helvetica,Helvetica" font-size="52.0" fill="#3E3E3E" transform="matrix(1.00, 0.00, -0.00, -1.00, 1067.7, 307.0)">n</text><text xml:space="preserve" font-family="Helvetica,Helvetica" font-size="52.0" fill="#3E3E3E" transform="matrix(1.00, 0.00, -0.00, -1.00, 1096.6, 307.0)">s</text><text xml:space="preserve" font-family="Helvetica,Helvetica" font-size="52.0" fill="#3E3E3E" transform="matrix(1.00, 0.00, -0.00, -1.00, 1122.6, 307.0)"> </text><text xml:space="preserve" font-family="Helvetica,Helvetica" font-size="52.0" fill="#3E3E3E" transform="matrix(1.00, 0.00, -0.00, -1.00, 1137.0, 307.0)">c</text><text xml:space="preserve" font-family="Helvetica,Helvetica" font-size="52.0" fill="#3E3E3E" transform="matrix(1.00, 0.00, -0.00, -1.00, 1163.0, 307.0)">h</text><text xml:space="preserve" font-family="Helvetica,Helvetica" font-size="52.0" fill="#3E3E3E" transform="matrix(1.00, 0.00, -0.00, -1.00, 1192.0, 307.0)">a</text><text xml:space="preserve" font-family="Helvetica,Helvetica" font-size="52.0" fill="#3E3E3E" transform="matrix(1.00, 0.00, -0.00, -1.00, 1220.9, 307.0)">n</text><text xml:space="preserve" font-family="Helvetica,Helvetica" font-size="52.0" fill="#3E3E3E" transform="matrix(1.00, 0.00, -0.00, -1.00, 1249.8, 307.0)">n</text><text xml:space="preserve" font-family="Helvetica,Helvetica" font-size="52.0" fill="#3E3E3E" transform="matrix(1.00, 0.00, -0.00, -1.00, 1278.7, 307.0)">e</text><text xml:space="preserve" font-family="Helvetica,Helvetica" font-size="52.0" fill="#3E3E3E" transform="matrix(1.00, 0.00, -0.00, -1.00, 1307.7, 307.0)">l</text><text xml:space="preserve" font-family="Helvetica,Helvetica" font-size="52.0" fill="#3E3E3E" transform="matrix(1.00, 0.00, -0.00, -1.00, 1319.2, 307.0)">s</text><text xml:space="preserve" font-family="Helvetica,Helvetica" font-size="52.0" fill="#3E3E3E" transform="matrix(1.00, 0.00, -0.00, -1.00, 1345.2, 307.0)"> </text><text xml:space="preserve" font-family="Helvetica,Helvetica" font-size="52.0" fill="#3E3E3E" transform="matrix(1.00, 0.00, -0.00, -1.00, 1359.7, 307.0)">o</text><text xml:space="preserve" font-family="Helvetica,Helvetica" font-size="52.0" fill="#3E3E3E" transform="matrix(1.00, 0.00, -0.00, -1.00, 1388.6, 307.0)">v</text><text xml:space="preserve" font-family="Helvetica,Helvetica" font-size="52.0" fill="#3E3E3E" transform="matrix(1.00, 0.00, -0.00, -1.00, 1414.6, 307.0)">e</text><text xml:space="preserve" font-family="Helvetica,Helvetica" font-size="52.0" fill="#3E3E3E" transform="matrix(1.00, 0.00, -0.00, -1.00, 1443.5, 307.0)">r</text><text xml:space="preserve" font-family="Helvetica,Helvetica" font-size="52.0" fill="#3E3E3E" transform="matrix(1.00, 0.00, -0.00, -1.00, 1460.9, 307.0)"> </text><text xml:space="preserve" font-family="Helvetica,Helvetica" font-size="52.0" fill="#3E3E3E" transform="matrix(1.00, 0.00, -0.00, -1.00, 1475.3, 307.0)">a</text><text xml:space="preserve" font-family="Helvetica,Helvetica" font-size="52.0" fill="#3E3E3E" transform="matrix(1.00, 0.00, -0.00, -1.00, 1504.2, 307.0)"> </text><text xml:space="preserve" font-family="Helvetica,Helvetica" font-size="52.0" fill="#3E3E3E" transform="matrix(1.00, 0.00, -0.00, -1.00, 1518.7, 307.0)">s</text><text xml:space="preserve" font-family="Helvetica,Helvetica" font-size="52.0" fill="#3E3E3E" transform="matrix(1.00, 0.00, -0.00, -1.00, 1544.7, 307.0)">i</text><text xml:space="preserve" font-family="Helvetica,Helvetica" font-size="52.0" fill="#3E3E3E" transform="matrix(1.00, 0.00, -0.00, -1.00, 1556.2, 307.0)">n</text><text xml:space="preserve" font-family="Helvetica,Helvetica" font-size="52.0" fill="#3E3E3E" transform="matrix(1.00, 0.00, -0.00, -1.00, 1585.2, 307.0)">g</text><text xml:space="preserve" font-family="Helvetica,Helvetica" font-size="52.0" fill="#3E3E3E" transform="matrix(1.00, 0.00, -0.00, -1.00, 1614.1, 307.0)">l</text><text xml:space="preserve" font-family="Helvetica,Helvetica" font-size="52.0" fill="#3E3E3E" transform="matrix(1.00, 0.00, -0.00, -1.00, 1625.6, 307.0)">e</text><text xml:space="preserve" font-family="Helvetica,Helvetica" font-size="52.0" fill="#3E3E3E" transform="matrix(1.00, 0.00, -0.00, -1.00, 1654.6, 307.0)"> </text><text xml:space="preserve" font-family="Helvetica,Helvetica" font-size="52.0" fill="#3E3E3E" transform="matrix(1.00, 0.00, -0.00, -1.00, 1668.1, 307.0)">T</text><text xml:space="preserve" font-family="Helvetica,Helvetica" font-size="52.0" fill="#3E3E3E" transform="matrix(1.00, 0.00, -0.00, -1.00, 1699.9, 307.0)">C</text><text xml:space="preserve" font-family="Helvetica,Helvetica" font-size="52.0" fill="#3E3E3E" transform="matrix(1.00, 0.00, -0.00, -1.00, 1737.4, 307.0)">P</text><text xml:space="preserve" font-family="Helvetica,Helvetica" font-size="52.0" fill="#3E3E3E" transform="matrix(1.00, 0.00, -0.00, -1.00, 1771.2, 307.0)"> </text><text xml:space="preserve" font-family="Helvetica,Helvetica" font-size="52.0" fill="#3E3E3E" transform="matrix(1.00, 0.00, -0.00, -1.00, 24.0, 245.0)">c</text><text xml:space="preserve" font-family="Helvetica,Helvetica" font-size="52.0" fill="#3E3E3E" transform="matrix(1.00, 0.00, -0.00, -1.00, 50.0, 245.0)">o</text><text xml:space="preserve" font-family="Helvetica,Helvetica" font-size="52.0" fill="#3E3E3E" transform="matrix(1.00, 0.00, -0.00, -1.00, 78.9, 245.0)">n</text><text xml:space="preserve" font-family="Helvetica,Helvetica" font-size="52.0" fill="#3E3E3E" transform="matrix(1.00, 0.00, -0.00, -1.00, 107.9, 245.0)">n</text><text xml:space="preserve" font-family="Helvetica,Helvetica" font-size="52.0" fill="#3E3E3E" transform="matrix(1.00, 0.00, -0.00, -1.00, 136.8, 245.0)">e</text><text xml:space="preserve" font-family="Helvetica,Helvetica" font-size="52.0" fill="#3E3E3E" transform="matrix(1.00, 0.00, -0.00, -1.00, 165.7, 245.0)">c</text><text xml:space="preserve" font-family="Helvetica,Helvetica" font-size="52.0" fill="#3E3E3E" transform="matrix(1.00, 0.00, -0.00, -1.00, 191.7, 245.0)">t</text><text xml:space="preserve" font-family="Helvetica,Helvetica" font-size="52.0" fill="#3E3E3E" transform="matrix(1.00, 0.00, -0.00, -1.00, 206.2, 245.0)">i</text><text xml:space="preserve" font-family="Helvetica,Helvetica" font-size="52.0" fill="#3E3E3E" transform="matrix(1.00, 0.00, -0.00, -1.00, 217.7, 245.0)">o</text><text xml:space="preserve" font-family="Helvetica,Helvetica" font-size="52.0" fill="#3E3E3E" transform="matrix(1.00, 0.00, -0.00, -1.00, 246.7, 245.0)">n</text><text xml:space="preserve" font-family="Helvetica,Helvetica" font-size="42.6" fill="#525252" transform="matrix(1.00, 0.00, -0.00, -1.00, 0.0, 131.8)">•</text><text xml:space="preserve" font-family="Helvetica,Helvetica" font-size="52.0" fill="#3E3E3E" transform="matrix(1.00, 0.00, -0.00, -1.00, 24.0, 129.0)">O</text><text xml:space="preserve" font-family="Helvetica,Helvetica" font-size="52.0" fill="#3E3E3E" transform="matrix(1.00, 0.00, -0.00, -1.00, 64.4, 129.0)">n</text><text xml:space="preserve" font-family="Helvetica,Helvetica" font-size="52.0" fill="#3E3E3E" transform="matrix(1.00, 0.00, -0.00, -1.00, 93.4, 129.0)">l</text><text xml:space="preserve" font-family="Helvetica,Helvetica" font-size="52.0" fill="#3E3E3E" transform="matrix(1.00, 0.00, -0.00, -1.00, 104.9, 129.0)">y</text><text xml:space="preserve" font-family="Helvetica,Helvetica" font-size="52.0" fill="#3E3E3E" transform="matrix(1.00, 0.00, -0.00, -1.00, 130.9, 129.0)"> </text><text xml:space="preserve" font-family="Helvetica,Helvetica" font-size="52.0" fill="#3E3E3E" transform="matrix(1.00, 0.00, -0.00, -1.00, 145.4, 129.0)">B</text><text xml:space="preserve" font-family="Helvetica,Helvetica" font-size="52.0" fill="#3E3E3E" transform="matrix(1.00, 0.00, -0.00, -1.00, 180.1, 129.0)">2</text><text xml:space="preserve" font-family="Helvetica,Helvetica" font-size="52.0" fill="#3E3E3E" transform="matrix(1.00, 0.00, -0.00, -1.00, 209.0, 129.0)">G</text><text xml:space="preserve" font-family="Helvetica,Helvetica" font-size="52.0" fill="#3E3E3E" transform="matrix(1.00, 0.00, -0.00, -1.00, 249.4, 129.0)"> </text><text xml:space="preserve" font-family="Helvetica,Helvetica" font-size="52.0" fill="#3E3E3E" transform="matrix(1.00, 0.00, -0.00, -1.00, 263.9, 129.0)">m</text><text xml:space="preserve" font-family="Helvetica,Helvetica" font-size="52.0" fill="#3E3E3E" transform="matrix(1.00, 0.00, -0.00, -1.00, 307.2, 129.0)">a</text><text xml:space="preserve" font-family="Helvetica,Helvetica" font-size="52.0" fill="#3E3E3E" transform="matrix(1.00, 0.00, -0.00, -1.00, 336.1, 129.0)">i</text><text xml:space="preserve" font-family="Helvetica,Helvetica" font-size="52.0" fill="#3E3E3E" transform="matrix(1.00, 0.00, -0.00, -1.00, 347.7, 129.0)">n</text><text xml:space="preserve" font-family="Helvetica,Helvetica" font-size="52.0" fill="#3E3E3E" transform="matrix(1.00, 0.00, -0.00, -1.00, 376.6, 129.0)"> </text><text xml:space="preserve" font-family="Helvetica,Helvetica" font-size="52.0" fill="#3E3E3E" transform="matrix(1.00, 0.00, -0.00, -1.00, 391.0, 129.0)">t</text><text xml:space="preserve" font-family="Helvetica,Helvetica" font-size="52.0" fill="#3E3E3E" transform="matrix(1.00, 0.00, -0.00, -1.00, 405.5, 129.0)">h</text><text xml:space="preserve" font-family="Helvetica,Helvetica" font-size="52.0" fill="#3E3E3E" transform="matrix(1.00, 0.00, -0.00, -1.00, 434.4, 129.0)">r</text><text xml:space="preserve" font-family="Helvetica,Helvetica" font-size="52.0" fill="#3E3E3E" transform="matrix(1.00, 0.00, -0.00, -1.00, 451.7, 129.0)">e</text><text xml:space="preserve" font-family="Helvetica,Helvetica" font-size="52.0" fill="#3E3E3E" transform="matrix(1.00, 0.00, -0.00, -1.00, 480.6, 129.0)">a</text><text xml:space="preserve" font-family="Helvetica,Helvetica" font-size="52.0" fill="#3E3E3E" transform="matrix(1.00, 0.00, -0.00, -1.00, 509.6, 129.0)">d</text><text xml:space="preserve" font-family="Helvetica,Helvetica" font-size="52.0" fill="#3E3E3E" transform="matrix(1.00, 0.00, -0.00, -1.00, 538.5, 129.0)"> </text><text xml:space="preserve" font-family="Helvetica,Helvetica" font-size="52.0" fill="#3E3E3E" transform="matrix(1.00, 0.00, -0.00, -1.00, 552.9, 129.0)">c</text><text xml:space="preserve" font-family="Helvetica,Helvetica" font-size="52.0" fill="#3E3E3E" transform="matrix(1.00, 0.00, -0.00, -1.00, 578.9, 129.0)">a</text><text xml:space="preserve" font-family="Helvetica,Helvetica" font-size="52.0" fill="#3E3E3E" transform="matrix(1.00, 0.00, -0.00, -1.00, 607.9, 129.0)">n</text><text xml:space="preserve" font-family="Helvetica,Helvetica" font-size="52.0" fill="#3E3E3E" transform="matrix(1.00, 0.00, -0.00, -1.00, 636.8, 129.0)"> </text><text xml:space="preserve" font-family="Helvetica,Helvetica" font-size="52.0" fill="#3E3E3E" transform="matrix(1.00, 0.00, -0.00, -1.00, 651.2, 129.0)">c</text><text xml:space="preserve" font-family="Helvetica,Helvetica" font-size="52.0" fill="#3E3E3E" transform="matrix(1.00, 0.00, -0.00, -1.00, 677.2, 129.0)">r</text><text xml:space="preserve" font-family="Helvetica,Helvetica" font-size="52.0" fill="#3E3E3E" transform="matrix(1.00, 0.00, -0.00, -1.00, 694.6, 129.0)">e</text><text xml:space="preserve" font-family="Helvetica,Helvetica" font-size="52.0" fill="#3E3E3E" transform="matrix(1.00, 0.00, -0.00, -1.00, 723.5, 129.0)">a</text><text xml:space="preserve" font-family="Helvetica,Helvetica" font-size="52.0" fill="#3E3E3E" transform="matrix(1.00, 0.00, -0.00, -1.00, 752.4, 129.0)">t</text><text xml:space="preserve" font-family="Helvetica,Helvetica" font-size="52.0" fill="#3E3E3E" transform="matrix(1.00, 0.00, -0.00, -1.00, 766.9, 129.0)">e</text><text xml:space="preserve" font-family="Helvetica,Helvetica" font-size="52.0" fill="#3E3E3E" transform="matrix(1.00, 0.00, -0.00, -1.00, 795.8, 129.0)"> </text><text xml:space="preserve" font-family="Helvetica,Helvetica" font-size="52.0" fill="#3E3E3E" transform="matrix(1.00, 0.00, -0.00, -1.00, 810.2, 129.0)">w</text><text xml:space="preserve" font-family="Helvetica,Helvetica" font-size="52.0" fill="#3E3E3E" transform="matrix(1.00, 0.00, -0.00, -1.00, 847.8, 129.0)">e</text><text xml:space="preserve" font-family="Helvetica,Helvetica" font-size="52.0" fill="#3E3E3E" transform="matrix(1.00, 0.00, -0.00, -1.00, 876.7, 129.0)">b</text><text xml:space="preserve" font-family="Helvetica,Helvetica" font-size="52.0" fill="#3E3E3E" transform="matrix(1.00, 0.00, -0.00, -1.00, 905.6, 129.0)"> </text><text xml:space="preserve" font-family="Helvetica,Helvetica" font-size="52.0" fill="#3E3E3E" transform="matrix(1.00, 0.00, -0.00, -1.00, 920.1, 129.0)">s</text><text xml:space="preserve" font-family="Helvetica,Helvetica" font-size="52.0" fill="#3E3E3E" transform="matrix(1.00, 0.00, -0.00, -1.00, 946.1, 129.0)">o</text><text xml:space="preserve" font-family="Helvetica,Helvetica" font-size="52.0" fill="#3E3E3E" transform="matrix(1.00, 0.00, -0.00, -1.00, 975.0, 129.0)">c</text><text xml:space="preserve" font-family="Helvetica,Helvetica" font-size="52.0" fill="#3E3E3E" transform="matrix(1.00, 0.00, -0.00, -1.00, 1001.0, 129.0)">k</text><text xml:space="preserve" font-family="Helvetica,Helvetica" font-size="52.0" fill="#3E3E3E" transform="matrix(1.00, 0.00, -0.00, -1.00, 1027.0, 129.0)">e</text><text xml:space="preserve" font-family="Helvetica,Helvetica" font-size="52.0" fill="#3E3E3E" transform="matrix(1.00, 0.00, -0.00, -1.00, 1055.9, 129.0)">t</text><text xml:space="preserve" font-family="Helvetica,Helvetica" font-size="42.6" fill="#525252" transform="matrix(1.00, 0.00, -0.00, -1.00, 0.0, 15.8)">•</text><text xml:space="preserve" font-family="Helvetica,Helvetica" font-size="52.0" fill="#3E3E3E" transform="matrix(1.00, 0.00, -0.00, -1.00, 24.0, 13.0)">T</text><text xml:space="preserve" font-family="Helvetica,Helvetica" font-size="52.0" fill="#3E3E3E" transform="matrix(1.00, 0.00, -0.00, -1.00, 50.0, 13.0)">o</text><text xml:space="preserve" font-family="Helvetica,Helvetica" font-size="52.0" fill="#3E3E3E" transform="matrix(1.00, 0.00, -0.00, -1.00, 78.9, 13.0)"> </text><text xml:space="preserve" font-family="Helvetica,Helvetica" font-size="52.0" fill="#3E3E3E" transform="matrix(1.00, 0.00, -0.00, -1.00, 93.4, 13.0)">e</text><text xml:space="preserve" font-family="Helvetica,Helvetica" font-size="52.0" fill="#3E3E3E" transform="matrix(1.00, 0.00, -0.00, -1.00, 122.3, 13.0)">s</text><text xml:space="preserve" font-family="Helvetica,Helvetica" font-size="52.0" fill="#3E3E3E" transform="matrix(1.00, 0.00, -0.00, -1.00, 148.3, 13.0)">t</text><text xml:space="preserve" font-family="Helvetica,Helvetica" font-size="52.0" fill="#3E3E3E" transform="matrix(1.00, 0.00, -0.00, -1.00, 162.7, 13.0)">a</text><text xml:space="preserve" font-family="Helvetica,Helvetica" font-size="52.0" fill="#3E3E3E" transform="matrix(1.00, 0.00, -0.00, -1.00, 191.7, 13.0)">b</text><text xml:space="preserve" font-family="Helvetica,Helvetica" font-size="52.0" fill="#3E3E3E" transform="matrix(1.00, 0.00, -0.00, -1.00, 220.6, 13.0)">l</text><text xml:space="preserve" font-family="Helvetica,Helvetica" font-size="52.0" fill="#3E3E3E" transform="matrix(1.00, 0.00, -0.00, -1.00, 232.1, 13.0)">i</text><text xml:space="preserve" font-family="Helvetica,Helvetica" font-size="52.0" fill="#3E3E3E" transform="matrix(1.00, 0.00, -0.00, -1.00, 243.7, 13.0)">s</text><text xml:space="preserve" font-family="Helvetica,Helvetica" font-size="52.0" fill="#3E3E3E" transform="matrix(1.00, 0.00, -0.00, -1.00, 269.7, 13.0)">h</text><text xml:space="preserve" font-family="Helvetica,Helvetica" font-size="52.0" fill="#3E3E3E" transform="matrix(1.00, 0.00, -0.00, -1.00, 298.6, 13.0)"> </text><text xml:space="preserve" font-family="Helvetica,Helvetica" font-size="52.0" fill="#3E3E3E" transform="matrix(1.00, 0.00, -0.00, -1.00, 313.1, 13.0)">a</text><text xml:space="preserve" font-family="Helvetica,Helvetica" font-size="52.0" fill="#3E3E3E" transform="matrix(1.00, 0.00, -0.00, -1.00, 342.0, 13.0)"> </text><text xml:space="preserve" font-family="Helvetica,Helvetica" font-size="52.0" fill="#3E3E3E" transform="matrix(1.00, 0.00, -0.00, -1.00, 356.4, 13.0)">W</text><text xml:space="preserve" font-family="Helvetica,Helvetica" font-size="52.0" fill="#3E3E3E" transform="matrix(1.00, 0.00, -0.00, -1.00, 404.6, 13.0)">e</text><text xml:space="preserve" font-family="Helvetica,Helvetica" font-size="52.0" fill="#3E3E3E" transform="matrix(1.00, 0.00, -0.00, -1.00, 433.5, 13.0)">b</text><text xml:space="preserve" font-family="Helvetica,Helvetica" font-size="52.0" fill="#3E3E3E" transform="matrix(1.00, 0.00, -0.00, -1.00, 462.5, 13.0)">S</text><text xml:space="preserve" font-family="Helvetica,Helvetica" font-size="52.0" fill="#3E3E3E" transform="matrix(1.00, 0.00, -0.00, -1.00, 497.2, 13.0)">o</text><text xml:space="preserve" font-family="Helvetica,Helvetica" font-size="52.0" fill="#3E3E3E" transform="matrix(1.00, 0.00, -0.00, -1.00, 526.1, 13.0)">c</text><text xml:space="preserve" font-family="Helvetica,Helvetica" font-size="52.0" fill="#3E3E3E" transform="matrix(1.00, 0.00, -0.00, -1.00, 552.1, 13.0)">k</text><text xml:space="preserve" font-family="Helvetica,Helvetica" font-size="52.0" fill="#3E3E3E" transform="matrix(1.00, 0.00, -0.00, -1.00, 578.1, 13.0)">e</text><text xml:space="preserve" font-family="Helvetica,Helvetica" font-size="52.0" fill="#3E3E3E" transform="matrix(1.00, 0.00, -0.00, -1.00, 607.0, 13.0)">t</text><text xml:space="preserve" font-family="Helvetica,Helvetica" font-size="52.0" fill="#3E3E3E" transform="matrix(1.00, 0.00, -0.00, -1.00, 621.4, 13.0)"> </text><text xml:space="preserve" font-family="Helvetica,Helvetica" font-size="52.0" fill="#3E3E3E" transform="matrix(1.00, 0.00, -0.00, -1.00, 635.9, 13.0)">c</text><text xml:space="preserve" font-family="Helvetica,Helvetica" font-size="52.0" fill="#3E3E3E" transform="matrix(1.00, 0.00, -0.00, -1.00, 661.9, 13.0)">o</text><text xml:space="preserve" font-family="Helvetica,Helvetica" font-size="52.0" fill="#3E3E3E" transform="matrix(1.00, 0.00, -0.00, -1.00, 690.8, 13.0)">n</text><text xml:space="preserve" font-family="Helvetica,Helvetica" font-size="52.0" fill="#3E3E3E" transform="matrix(1.00, 0.00, -0.00, -1.00, 719.7, 13.0)">n</text><text xml:space="preserve" font-family="Helvetica,Helvetica" font-size="52.0" fill="#3E3E3E" transform="matrix(1.00, 0.00, -0.00, -1.00, 748.7, 13.0)">e</text><text xml:space="preserve" font-family="Helvetica,Helvetica" font-size="52.0" fill="#3E3E3E" transform="matrix(1.00, 0.00, -0.00, -1.00, 777.6, 13.0)">c</text><text xml:space="preserve" font-family="Helvetica,Helvetica" font-size="52.0" fill="#3E3E3E" transform="matrix(1.00, 0.00, -0.00, -1.00, 803.6, 13.0)">t</text><text xml:space="preserve" font-family="Helvetica,Helvetica" font-size="52.0" fill="#3E3E3E" transform="matrix(1.00, 0.00, -0.00, -1.00, 818.0, 13.0)">i</text><text xml:space="preserve" font-family="Helvetica,Helvetica" font-size="52.0" fill="#3E3E3E" transform="matrix(1.00, 0.00, -0.00, -1.00, 829.6, 13.0)">o</text><text xml:space="preserve" font-family="Helvetica,Helvetica" font-size="52.0" fill="#3E3E3E" transform="matrix(1.00, 0.00, -0.00, -1.00, 858.5, 13.0)">n</text><text xml:space="preserve" font-family="Helvetica,Helvetica" font-size="52.0" fill="#3E3E3E" transform="matrix(1.00, 0.00, -0.00, -1.00, 887.4, 13.0)"> </text><text xml:space="preserve" font-family="Helvetica,Helvetica" font-size="52.0" fill="#3E3E3E" transform="matrix(1.00, 0.00, -0.00, -1.00, 901.8, 13.0)">(</text><text xml:space="preserve" font-family="Helvetica,Helvetica" font-size="52.0" fill="#3E3E3E" transform="matrix(1.00, 0.00, -0.00, -1.00, 919.1, 13.0)">2</text><text xml:space="preserve" font-family="Helvetica,Helvetica" font-size="52.0" fill="#3E3E3E" transform="matrix(1.00, 0.00, -0.00, -1.00, 948.0, 13.0)">-</text><text xml:space="preserve" font-family="Helvetica,Helvetica" font-size="52.0" fill="#3E3E3E" transform="matrix(1.00, 0.00, -0.00, -1.00, 965.4, 13.0)">w</text><text xml:space="preserve" font-family="Helvetica,Helvetica" font-size="52.0" fill="#3E3E3E" transform="matrix(1.00, 0.00, -0.00, -1.00, 1002.9, 13.0)">a</text><text xml:space="preserve" font-family="Helvetica,Helvetica" font-size="52.0" fill="#3E3E3E" transform="matrix(1.00, 0.00, -0.00, -1.00, 1031.9, 13.0)">y</text><text xml:space="preserve" font-family="Helvetica,Helvetica" font-size="52.0" fill="#3E3E3E" transform="matrix(1.00, 0.00, -0.00, -1.00, 1057.9, 13.0)">)</text><text xml:space="preserve" font-family="Helvetica,Helvetica" font-size="52.0" fill="#3E3E3E" transform="matrix(1.00, 0.00, -0.00, -1.00, 1075.2, 13.0)">:</text></g></svg>